<?xml version="1.0" encoding="UTF-8"?>
<!DOCTYPE svg PUBLIC "-//W3C//DTD SVG 1.1//EN" "http://www.w3.org/Graphics/SVG/1.1/DTD/svg11.dtd">
<!-- Creator: CorelDRAW 2017 -->
<svg xmlns="http://www.w3.org/2000/svg" xml:space="preserve" width="12.2mm" height="8.7089mm" version="1.1" style="shape-rendering:geometricPrecision; text-rendering:geometricPrecision; image-rendering:optimizeQuality; fill-rule:evenodd; clip-rule:evenodd"
viewBox="0 0 7.72 5.51"
 xmlns:xlink="http://www.w3.org/1999/xlink">
 <defs>
  <style type="text/css">
   <![CDATA[
    .str0 {stroke:#2B2A29;stroke-width:0.13;stroke-miterlimit:22.9256}
    .fil0 {fill:#2B2A29}
   ]]>
  </style>
 </defs>
 <g id="Layer_x0020_1">
  <metadata id="CorelCorpID_0Corel-Layer"/>
  <path class="fil0 str0" d="M0.7 0.06l2.53 0c0.35,0 0.63,0.28 0.63,0.63l0 0c0,0.35 -0.28,0.63 -0.63,0.63l-2.53 0c-0.35,0 -0.63,-0.28 -0.63,-0.63l0 -0c0,-0.35 0.28,-0.63 0.63,-0.63z"/>
  <path class="fil0 str0" d="M0.7 2.12l3.8 0c0.35,0 0.63,0.28 0.63,0.63l0 0c0,0.35 -0.28,0.63 -0.63,0.63l-3.8 0c-0.35,0 -0.63,-0.28 -0.63,-0.63l0 -0c0,-0.35 0.28,-0.63 0.63,-0.63z"/>
  <path class="fil0 str0" d="M0.7 4.18l6.33 0c0.35,0 0.63,0.28 0.63,0.63l0 0c0,0.35 -0.28,0.63 -0.63,0.63l-6.33 0c-0.35,0 -0.63,-0.28 -0.63,-0.63l0 -0c0,-0.35 0.28,-0.63 0.63,-0.63z"/>
  <path class="fil0 str0" d="M6.05 0.68l0.56 -0.47c0.27,-0.22 0.67,-0.19 0.89,0.08l0 0c0.22,0.27 0.19,0.67 -0.08,0.89l-0.94 0.79c-0.1,0.09 -0.22,0.15 -0.35,0.17l-0 0c-0.01,0 -0.02,0 -0.03,0l-0 0 -0.01 0 -0 0 -0.01 0 -0 0 -0.01 0 -0.01 0 -0.01 0 -0.01 -0 -0.01 -0 -0 -0 -0.01 -0 -0 0 -0.01 -0 -0 -0c-0.01,-0 -0.02,-0 -0.03,-0l-0 -0c-0.13,-0.02 -0.25,-0.07 -0.35,-0.17l-0.94 -0.79c-0.27,-0.22 -0.3,-0.62 -0.08,-0.89l0 -0c0.22,-0.27 0.62,-0.3 0.89,-0.08l0.56 0.47z"/>
 </g>
</svg>
