<svg width="47" height="33" viewBox="0 0 47 33" fill="none" xmlns="http://www.w3.org/2000/svg">
<g clip-path="url(#clip0_328_8)">
<path fill-rule="evenodd" clip-rule="evenodd" d="M4.18097 0.360962H19.2922C21.3827 0.360962 23.0551 2.03335 23.0551 4.12384C23.0551 6.21433 21.3827 7.88673 19.2922 7.88673H4.18097C2.09048 7.88673 0.418091 6.21433 0.418091 4.12384C0.418091 2.03335 2.09048 0.360962 4.18097 0.360962Z" fill="#3C9F96"/>
<path fill-rule="evenodd" clip-rule="evenodd" d="M4.18097 12.665H26.8777C28.9682 12.665 30.6406 14.3374 30.6406 16.4279C30.6406 18.5184 28.9682 20.1908 26.8777 20.1908H4.18097C2.09048 20.1908 0.418091 18.5184 0.418091 16.4279C0.418091 14.3374 2.09048 12.665 4.18097 12.665Z" fill="#3C9F96"/>
<path fill-rule="evenodd" clip-rule="evenodd" d="M4.18097 24.969H41.989C44.0795 24.969 45.7519 26.6414 45.7519 28.7319C45.7519 30.8224 44.0795 32.4948 41.989 32.4948H4.18097C2.09048 32.4948 0.418091 30.8224 0.418091 28.7319C0.418091 26.6414 2.09048 24.969 4.18097 24.969Z" fill="#5ECAC0"/>
<path fill-rule="evenodd" clip-rule="evenodd" d="M36.1356 4.06416L39.4804 1.25693C41.0931 -0.0570898 43.4822 0.122095 44.7962 1.73476C46.1102 3.34742 45.931 5.73655 44.3184 7.05058L38.7039 11.7691C38.1066 12.3067 37.3899 12.665 36.6134 12.7845C36.5537 12.7845 36.494 12.7845 36.4342 12.7845H36.3745H36.3148H36.2551H36.1953H36.1356H36.0759H36.0162H35.9564H35.8967C35.837 12.7845 35.7772 12.7845 35.7175 12.7845C34.941 12.665 34.2243 12.3664 33.627 11.7691L28.0126 7.05058C26.3999 5.73655 26.2207 3.34742 27.5347 1.73476C28.8488 0.122095 31.2379 -0.0570898 32.8506 1.25693L36.1953 4.06416H36.1356Z" fill="#5ECAC0"/>
</g>
<defs>
<clipPath id="clip0_328_8">
<rect width="46.1102" height="32.9155" fill="white"/>
</clipPath>
</defs>
</svg>
