<svg width="46" height="39" viewBox="0 0 46 39" fill="none" xmlns="http://www.w3.org/2000/svg">
<path fill-rule="evenodd" clip-rule="evenodd" d="M2.65143 0.361572H20.0063C21.4525 0.361572 22.6577 1.56677 22.6577 3.013C22.6577 4.45924 21.4525 5.66443 20.0063 5.66443H2.65143C1.2052 5.66443 0 4.45924 0 3.013C0 1.56677 1.2052 0.361572 2.65143 0.361572Z" fill="#5ECAC0"/>
<path fill-rule="evenodd" clip-rule="evenodd" d="M2.65143 11H24.586C26.0322 11 27.2374 12.2052 27.2374 13.6514C27.2374 15.0977 26.0322 16.3029 24.586 16.3029H2.65143C1.2052 16.3029 0 15.0977 0 13.6514C0 12.2052 1.2052 11 2.65143 11Z" fill="#5ECAC0"/>
<path fill-rule="evenodd" clip-rule="evenodd" d="M2.65143 22H42.6639C44.1102 22 45.3154 23.2052 45.3154 24.6514C45.3154 26.0977 44.1102 27.3029 42.6639 27.3029H2.65143C1.2052 27.3029 0 26.0977 0 24.6514C0 23.2052 1.2052 22 2.65143 22Z" fill="#3C9F96"/>
<path fill-rule="evenodd" clip-rule="evenodd" d="M35.1616 4.09764L38.5362 1.26543C40.1029 -0.0602872 42.5133 0.120492 43.839 1.74751C45.1648 3.31426 44.984 5.72465 43.357 7.05037L37.7528 11.7506C37.1502 12.293 36.4271 12.6545 35.6437 12.775C35.5835 12.775 35.5232 12.775 35.4629 12.775H35.4027H35.3424H35.2822H35.2219H35.1616H35.1014H35.0411H34.9809H34.9206C34.8603 12.775 34.8001 12.775 34.7398 12.775C33.9564 12.6545 33.2333 12.3532 32.6307 11.7506L27.0266 7.05037C25.4598 5.72465 25.2188 3.31426 26.5445 1.74751C27.8702 0.180752 30.2806 -0.0602872 31.8473 1.26543L35.2219 4.09764H35.1616Z" fill="#3C9F96"/>
<path fill-rule="evenodd" clip-rule="evenodd" d="M2.65143 33H42.6639C44.1102 33 45.3154 34.2052 45.3154 35.6514C45.3154 37.0977 44.1102 38.3029 42.6639 38.3029H2.65143C1.2052 38.3029 0 37.0977 0 35.6514C0 34.2052 1.2052 33 2.65143 33Z" fill="#3C9F96"/>
</svg>
