<svg width="38" height="36" viewBox="0 0 38 36" fill="none" xmlns="http://www.w3.org/2000/svg">
<path d="M18.7178 0C29.0495 0.000243407 37.4346 8.0642 37.4346 18C37.4345 27.9358 29.0495 35.9998 18.7178 36C8.38585 36 4.72175e-05 27.9359 0 18C0 8.06405 8.38582 0 18.7178 0ZM29.2002 10.3809C28.5342 9.74035 27.459 9.74035 26.793 10.3809L15.043 21.6797L10.1074 16.9492C9.44137 16.309 8.36515 16.3088 7.69922 16.9492C7.37946 17.256 7.20022 17.673 7.2002 18.1074C7.2002 18.5418 7.37948 18.9588 7.69922 19.2656L13.8301 25.1611C14.4961 25.8016 15.5893 25.8016 16.2383 25.1611L29.2002 12.6963C29.8662 12.0558 29.8662 11.0214 29.2002 10.3809Z" fill="#5ECAC0"/>
</svg>
