<svg width="40" height="39" viewBox="0 0 40 39" fill="none" xmlns="http://www.w3.org/2000/svg">
<path fill-rule="evenodd" clip-rule="evenodd" d="M2.88031 32.9248L32.9184 2.88671C34.0041 1.801 35.8136 1.801 36.8994 2.88671C37.9851 3.97243 37.9851 5.78195 36.8994 6.86766L6.86126 36.9058C5.77555 37.9915 3.96602 37.9915 2.88031 36.9058C1.79459 35.82 1.79459 34.0105 2.88031 32.9248Z" fill="#3C9F96"/>
<path fill-rule="evenodd" clip-rule="evenodd" d="M37.1197 32.9248L7.0816 2.88671C5.99588 1.801 4.18636 1.801 3.10064 2.88671C2.01493 3.97243 2.01493 5.78195 3.10064 6.86766L33.1387 36.9058C34.2245 37.9915 36.034 37.9915 37.1197 36.9058C38.2054 35.82 38.2054 34.0105 37.1197 32.9248Z" fill="#3C9F96"/>
</svg>
