<svg width="309" height="50" viewBox="0 0 309 50" fill="none" xmlns="http://www.w3.org/2000/svg">
<path fill-rule="evenodd" clip-rule="evenodd" d="M10.2099 29.274H0.452148V19.516H10.2099V29.274Z" fill="#01ACE4"/>
<path fill-rule="evenodd" clip-rule="evenodd" d="M29.7261 9.75787H19.968V8.96454e-05H29.7261V9.75787Z" fill="#01ACE4"/>
<path fill-rule="evenodd" clip-rule="evenodd" d="M29.7261 48.7894H19.968V39.0319H29.7261V48.7894Z" fill="#01ACE4"/>
<path fill-rule="evenodd" clip-rule="evenodd" d="M49.2419 29.274H39.4839V19.516H49.2419V29.274Z" fill="#CB1F40"/>
<path fill-rule="evenodd" clip-rule="evenodd" d="M4.14709 38.1948L11.0472 45.0949L19.9682 36.1738V29.274H13.0682L4.14709 38.1951V38.1948ZM36.6261 29.2737H29.726V36.1735L38.6471 45.0946L45.5472 38.1946L36.6261 29.2735V29.2737ZM45.5466 10.5949L38.6469 3.69507L29.7263 12.6156V19.5157H36.6258L45.5469 10.5949H45.5466ZM4.14736 10.5951L13.0679 19.5157H19.968V12.6156L11.0474 3.69507L4.14762 10.5951H4.14736Z" fill="#01ACE4"/>
<path fill-rule="evenodd" clip-rule="evenodd" d="M65.7125 16.2258L63.2789 18.0437L60.7853 16.2258L61.4012 15.2345L63.2789 16.2711L65.0966 15.2345L65.7125 16.2258ZM66.434 19.3504L65.4872 20.7775C64.9613 20.387 64.4056 20.1916 63.8196 20.1916C63.1137 20.1916 62.4224 20.5371 62.0472 21.0929C61.6413 21.6937 61.4613 22.5653 61.4613 23.782C61.4613 25.2091 61.5809 26.005 61.8966 26.5761C62.3173 27.3424 63.0083 27.7478 63.9096 27.7478C64.4805 27.7478 64.9762 27.5826 65.4869 27.237C65.547 27.192 65.6219 27.1319 65.6971 27.0718L66.6588 28.3938C65.8327 29.0698 64.9462 29.3703 63.7592 29.3703C62.3173 29.3703 61.2052 28.9048 60.3492 27.9281C59.5083 26.9818 59.0873 25.7199 59.0873 24.1876C59.0873 22.8807 59.3129 21.8441 59.7937 20.9428C60.6047 19.4256 62.1071 18.5243 63.7894 18.5243C64.8263 18.5243 65.8629 18.8547 66.434 19.3504Z" fill="#CB1F40"/>
<path fill-rule="evenodd" clip-rule="evenodd" d="M69.3036 24.5184H71.632V24.4284C71.632 23.8575 71.5722 23.557 71.3916 23.2715C71.1964 22.9713 70.911 22.8209 70.5051 22.8209C69.7389 22.8209 69.3033 23.4217 69.3033 24.4885V24.5184H69.3036ZM72.8489 27.1473L73.63 28.3492C72.7435 29.0704 71.8123 29.4159 70.7304 29.4159C68.5222 29.4159 67.0953 27.8535 67.0953 25.4348C67.0953 24.0529 67.3808 23.1365 68.0567 22.3853C68.6877 21.6792 69.4537 21.3487 70.4755 21.3487C71.3617 21.3487 72.2031 21.6493 72.6985 22.16C73.4049 22.8813 73.7203 23.9176 73.7203 25.5251C73.7203 25.6905 73.7203 25.7504 73.7203 25.9908H69.2736V26.0509C69.2736 27.2376 69.8593 27.9136 70.8959 27.9136C71.587 27.9136 72.233 27.6584 72.8489 27.1476V27.1473Z" fill="#CB1F40"/>
<path fill-rule="evenodd" clip-rule="evenodd" d="M80.4215 22.0094L79.7607 23.3614C78.9944 22.9708 78.4384 22.8056 77.8675 22.8056C77.2816 22.8056 76.891 23.1061 76.891 23.5568C76.891 23.9473 77.1465 24.1576 77.8524 24.3381L78.7839 24.5786C79.7302 24.819 80.0458 25.1044 80.3159 25.4499C80.6013 25.8106 80.7366 26.2461 80.7366 26.7569C80.7366 28.3492 79.4149 29.4308 77.4468 29.4308C76.5005 29.4308 75.4636 29.1303 74.3375 28.5446L75.0588 27.0722C75.6746 27.4477 76.7412 27.9436 77.6123 27.9436C78.1834 27.9436 78.6335 27.5681 78.6335 27.0722C78.6335 26.5464 78.2578 26.276 77.4468 26.1259L76.5458 25.9604C76.035 25.8704 75.4035 25.5098 75.1332 25.1793C74.8631 24.8489 74.6979 24.2931 74.6979 23.7972C74.6979 22.2949 75.8843 21.2885 77.6721 21.2885C78.9041 21.2885 79.7157 21.6639 80.4215 22.0097V22.0094Z" fill="#CB1F40"/>
<path fill-rule="evenodd" clip-rule="evenodd" d="M86.0853 21.4686H88.5035L86.0549 24.7134L89.0741 29.1903H86.7009L84.1167 24.8336L86.0851 21.4686H86.0853ZM81.9238 18.5243L83.952 18.0284C84.0418 18.5995 84.0717 19.5008 84.0717 20.5223V29.1903H82.0586V20.5223C82.0586 19.8463 82.0441 19.3205 81.9236 18.5243H81.9238Z" fill="#CB1F40"/>
<path fill-rule="evenodd" clip-rule="evenodd" d="M93.2814 25.8251H93.1912C91.7942 25.8251 91.3131 26.0804 91.3131 26.9968C91.3131 27.5976 91.6891 28.0032 92.1996 28.0032C92.5753 28.0032 92.9507 27.8081 93.2513 27.4773L93.2812 25.8249L93.2814 25.8251ZM93.7173 17.7881L94.5434 19.2606L91.3438 20.6877L90.7579 19.636L93.7173 17.7881ZM89.331 22.4151C89.8264 22.0998 90.0366 22.0095 90.5778 21.7841C91.3287 21.4839 91.9748 21.3335 92.6809 21.3335C93.9728 21.3335 94.8592 21.8141 95.1595 22.6703C95.2649 22.9857 95.3099 23.2261 95.2948 24.0525L95.2498 26.6362C95.2498 26.6812 95.2498 26.7264 95.2498 26.7715C95.2498 27.5976 95.3851 27.9132 95.971 28.3487L94.9045 29.5807C94.4383 29.3853 94.018 29.0398 93.8226 28.6492C93.5372 28.9196 93.5073 28.9498 93.3572 29.0549C92.9817 29.3252 92.4408 29.4753 91.8098 29.4753C90.0972 29.4753 89.1658 28.604 89.1658 27.0717C89.1658 25.2691 90.4126 24.4277 92.8612 24.4277C93.0116 24.4277 93.1019 24.4277 93.3122 24.4428V24.1274C93.3122 23.2711 93.1467 22.9857 92.4106 22.9857C91.7648 22.9857 91.0136 23.301 90.1875 23.8571L89.3315 22.4148L89.331 22.4151Z" fill="#CB1F40"/>
<path fill-rule="evenodd" clip-rule="evenodd" d="M104.189 27.3126C104.459 27.5379 104.895 27.7632 105.3 27.7632C106.292 27.7632 106.683 27.0872 106.683 25.3296C106.683 24.5936 106.622 24.0076 106.487 23.6322C106.337 23.2117 106.021 22.9861 105.526 22.9861C105.03 22.9861 104.549 23.1963 104.189 23.5721V27.3126ZM102.115 21.6641L103.903 21.3487C103.978 21.6193 104.023 21.8293 104.039 22.07C104.384 21.6495 105.15 21.3487 105.931 21.3487C106.472 21.3487 107.028 21.5291 107.449 21.8145C108.275 22.3705 108.876 23.3618 108.876 25.1345C108.876 26.787 108.62 27.6433 107.809 28.4845C107.284 29.0405 106.593 29.3558 105.751 29.3558C105.151 29.3558 104.579 29.2054 104.144 28.9502C104.174 29.1305 104.174 29.5812 104.174 29.5812V31.9848L102.236 32.4955V23.602C102.236 22.5956 102.221 22.3101 102.116 21.6641H102.115Z" fill="#CB1F40"/>
<path fill-rule="evenodd" clip-rule="evenodd" d="M110.183 21.7994L111.986 21.3186C112.166 21.6339 112.272 21.9795 112.302 22.4153C112.587 22.0248 113.068 21.6191 113.444 21.4388C113.609 21.3639 113.879 21.3189 114.104 21.3189C114.405 21.3189 114.54 21.3488 114.856 21.4841L114.3 23.2568C114.105 23.1514 113.939 23.1064 113.714 23.1064C113.263 23.1064 112.858 23.3166 112.482 23.7522V29.1904H110.469V24.0527C110.469 23.0161 110.349 22.2347 110.184 21.7994H110.183Z" fill="#CB1F40"/>
<path fill-rule="evenodd" clip-rule="evenodd" d="M117.951 19.4558C117.951 19.9215 118.327 20.2972 118.777 20.2972C119.243 20.2972 119.619 19.9215 119.619 19.4558C119.619 18.99 119.258 18.6146 118.807 18.6146C118.327 18.6146 117.951 18.99 117.951 19.4558ZM118.807 17.6982C119.754 17.6982 120.535 18.4944 120.535 19.4558C120.535 20.4172 119.739 21.2133 118.777 21.2133C117.831 21.2133 117.065 20.4172 117.065 19.4558C117.065 18.4944 117.876 17.6982 118.807 17.6982ZM115.668 21.6791L117.651 21.3034V26.2457C117.651 26.9367 117.696 27.2974 117.816 27.5076C117.921 27.7178 118.222 27.8682 118.522 27.8682C119.018 27.8682 119.619 27.5076 119.769 27.1321V21.7241L121.692 21.3185V27.1922C121.692 27.703 121.857 28.2288 122.158 28.5895L120.73 29.4005C120.475 29.2204 120.265 28.9649 120.129 28.6493C119.634 29.1299 118.913 29.3854 118.101 29.3854C117.02 29.3854 116.088 28.8746 115.833 28.1385C115.713 27.793 115.668 27.3874 115.668 26.6063V21.6788V21.6791Z" fill="#CB1F40"/>
<path fill-rule="evenodd" clip-rule="evenodd" d="M123.464 21.8594L125.282 21.3637C125.417 21.5739 125.477 21.7542 125.552 22.1448C126.078 21.634 126.724 21.3637 127.43 21.3637C128.061 21.3637 128.587 21.5739 128.992 21.9947C129.098 22.0998 129.143 22.1599 129.292 22.3704C129.999 21.6491 130.63 21.364 131.471 21.364C132.072 21.364 132.643 21.5443 132.988 21.8445C133.424 22.2202 133.559 22.6706 133.559 23.7226V29.1907H131.606V24.1131C131.606 23.1967 131.501 23.0167 130.975 23.0167C130.599 23.0167 130.074 23.2719 129.638 23.6625V29.1907H127.73V24.1881C127.73 23.2267 127.595 23.0013 127.039 23.0013C126.664 23.0013 126.153 23.1965 125.717 23.587V29.1905H123.749V23.8274C123.749 22.7156 123.674 22.2351 123.464 21.8596L123.464 21.8594Z" fill="#CB1F40"/>
<path fill-rule="evenodd" clip-rule="evenodd" d="M134.552 21.634L136.61 21.3936L137.947 25.8702C138.082 26.3359 138.352 27.4625 138.352 27.4625C138.352 27.4625 138.503 26.6063 138.593 26.2308C138.713 25.75 138.728 25.6748 138.893 25.1643L140.05 21.5138H142.168L139.374 29.3107C138.848 30.7982 138.458 31.444 137.902 31.8496C137.391 32.2251 136.73 32.4655 136.039 32.5555L135.348 31.2337C135.784 31.1135 136.294 30.9332 136.595 30.7227C136.82 30.5575 137.001 30.347 137.166 30.0918C137.361 29.7764 137.421 29.6411 137.602 29.1905H137.091C136.971 28.8298 136.91 28.6797 136.775 28.2892C136.625 27.8234 136.385 27.0574 136.37 27.0272L134.552 21.6343L134.552 21.634Z" fill="#CB1F40"/>
<path fill-rule="evenodd" clip-rule="evenodd" d="M148.283 22.0094L147.622 23.3614C146.856 22.9708 146.3 22.8056 145.729 22.8056C145.143 22.8056 144.753 23.1061 144.753 23.5568C144.753 23.9473 145.008 24.1576 145.714 24.3381L146.646 24.5786C147.592 24.819 147.908 25.1044 148.178 25.4499C148.463 25.8106 148.598 26.2461 148.598 26.7569C148.598 28.3492 147.277 29.4308 145.309 29.4308C144.362 29.4308 143.326 29.1303 142.199 28.5446L142.92 27.0722C143.536 27.4477 144.603 27.9436 145.474 27.9436C146.045 27.9436 146.495 27.5681 146.495 27.0722C146.495 26.5464 146.12 26.276 145.309 26.1259L144.408 25.9604C143.896 25.8704 143.265 25.5098 142.995 25.1793C142.725 24.8489 142.559 24.2931 142.559 23.7972C142.559 22.2949 143.746 21.2885 145.534 21.2885C146.766 21.2885 147.578 21.6639 148.283 22.0097L148.283 22.0094Z" fill="#CB1F40"/>
<path fill-rule="evenodd" clip-rule="evenodd" d="M151.904 18.0735C151.979 18.4942 152.01 18.9899 152.01 20.0717V26.0657C152.01 27.3878 152.024 27.5681 152.145 27.7783C152.22 27.9133 152.385 27.9888 152.551 27.9888C152.626 27.9888 152.671 27.9888 152.776 27.9586L153.121 29.1604C152.776 29.2957 152.355 29.3707 151.92 29.3707C151.063 29.3707 150.372 28.965 150.132 28.3192C149.982 27.9287 149.952 27.6883 149.952 26.5916V20.8531C149.952 19.8467 149.922 19.2305 149.846 18.5395L151.905 18.0737L151.904 18.0735Z" fill="#CB1F40"/>
<path fill-rule="evenodd" clip-rule="evenodd" d="M156.967 22.8355C156.486 22.8355 156.096 23.1361 155.93 23.6169C155.796 24.0225 155.72 24.5632 155.72 25.3295C155.72 26.2157 155.811 26.8768 155.975 27.2673C156.156 27.6878 156.606 27.8983 156.997 27.8983C157.869 27.8983 158.244 27.117 158.244 25.2993C158.244 24.2627 158.109 23.5867 157.839 23.2414C157.644 22.9859 157.328 22.8358 156.967 22.8358V22.8355ZM156.937 21.3483C158.034 21.3483 158.89 21.724 159.551 22.5051C160.167 23.2261 160.438 24.0673 160.438 25.3141C160.438 26.6361 160.137 27.5377 159.476 28.2889C158.89 28.9497 158.124 29.3554 156.937 29.3554C154.849 29.3554 153.482 27.7929 153.482 25.3745C153.482 22.9557 154.864 21.3483 156.937 21.3483H156.937Z" fill="#CB1F40"/>
<path fill-rule="evenodd" clip-rule="evenodd" d="M160.814 21.6189L162.872 21.3637L163.983 24.8339C164.148 25.3446 164.374 26.1858 164.479 26.6817C164.539 26.2311 164.705 25.495 164.945 24.729L165.981 21.499H168.084L165.275 29.1905H163.608L160.814 21.6192L160.814 21.6189Z" fill="#CB1F40"/>
<path fill-rule="evenodd" clip-rule="evenodd" d="M172.652 25.8251H172.562C171.165 25.8251 170.684 26.0804 170.684 26.9968C170.684 27.5976 171.06 28.0032 171.571 28.0032C171.947 28.0032 172.322 27.8081 172.623 27.4773L172.652 25.8249L172.652 25.8251ZM173.088 17.7881L173.914 19.2606L170.714 20.6877L170.128 19.636L173.087 17.7881H173.088ZM168.701 22.4151C169.197 22.0998 169.407 22.0095 169.948 21.7841C170.699 21.4839 171.346 21.3335 172.051 21.3335C173.343 21.3335 174.229 21.8141 174.53 22.6703C174.635 22.9857 174.68 23.2261 174.665 24.0525L174.62 26.6362C174.62 26.6812 174.62 26.7264 174.62 26.7715C174.62 27.5976 174.756 27.9132 175.341 28.3487L174.275 29.5807C173.809 29.3853 173.389 29.0398 173.193 28.6492C172.908 28.9196 172.878 28.9498 172.728 29.0549C172.352 29.3252 171.811 29.4753 171.18 29.4753C169.468 29.4753 168.536 28.604 168.536 27.0717C168.536 25.2691 169.783 24.4277 172.232 24.4277C172.382 24.4277 172.472 24.4277 172.683 24.4428V24.1274C172.683 23.2711 172.517 22.9857 171.781 22.9857C171.135 22.9857 170.384 23.301 169.558 23.8571L168.702 22.4148L168.701 22.4151Z" fill="#CB1F40"/>
<path fill-rule="evenodd" clip-rule="evenodd" d="M59.0576 39.0482H64.7661V40.4303L61.3712 45.2977H64.9014L64.4206 46.6949H58.7573V45.4481L62.3779 40.4608H59.0576V39.0482Z" fill="#01ACE4"/>
<path fill-rule="evenodd" clip-rule="evenodd" d="M70.3103 41.0313C69.9344 40.7009 69.574 40.5351 69.2134 40.5351C68.3121 40.5351 67.9215 41.2863 67.9215 42.9991C67.9215 44.6511 68.2671 45.1923 69.3188 45.1923C69.6945 45.1923 70.1149 44.9373 70.3106 44.6966V41.0311L70.3103 41.0313ZM72.2782 35.8936V43.8856C72.2782 45.7785 72.4286 46.3944 72.5636 46.6949H70.7607C70.7006 46.5744 70.6704 46.4545 70.6408 46.244C70.1449 46.6798 69.5589 46.89 68.8679 46.89C66.9146 46.89 65.6829 45.3729 65.6829 42.9843C65.6829 40.5804 67.02 38.9282 68.9727 38.9282C69.5287 38.9282 69.9646 39.0635 70.3397 39.3638C70.3101 39.1988 70.2799 38.673 70.2799 38.2223V35.5783L72.2779 35.8939L72.2782 35.8936Z" fill="#01ACE4"/>
<path fill-rule="evenodd" clip-rule="evenodd" d="M74.1267 39.3037L75.9293 38.8232C76.1094 39.1385 76.2147 39.484 76.2447 39.9196C76.5301 39.5293 77.0106 39.1237 77.3866 38.9431C77.5518 38.8684 77.8225 38.8232 78.0475 38.8232C78.348 38.8232 78.4833 38.8531 78.7987 38.9881L78.2432 40.7611C78.0478 40.6559 77.8826 40.6109 77.657 40.6109C77.2063 40.6109 76.8009 40.8212 76.4252 41.2567V46.695H74.4121V41.5572C74.4121 40.5204 74.2919 39.7396 74.1267 39.3037Z" fill="#01ACE4"/>
<path fill-rule="evenodd" clip-rule="evenodd" d="M83.05 43.3298H82.9603C81.563 43.3298 81.0822 43.5851 81.0822 44.5014C81.0822 45.1022 81.4574 45.5081 81.9687 45.5081C82.3444 45.5081 82.7196 45.3125 83.0201 44.982L83.05 43.3298ZM79.0996 39.9195C79.595 39.6042 79.8055 39.5139 80.3464 39.2885C81.0976 38.988 81.7434 38.8379 82.4492 38.8379C83.7411 38.8379 84.6276 39.3185 84.9278 40.1753C85.0332 40.4906 85.0782 40.7308 85.0634 41.5571L85.0181 44.1411C85.0181 44.1861 85.0181 44.2314 85.0181 44.2764C85.0181 45.1025 85.1537 45.4181 85.7394 45.8539L84.6728 47.0857C84.2071 46.89 83.7864 46.5445 83.5912 46.1542C83.3058 46.4248 83.2759 46.4547 83.1255 46.5595C82.7498 46.8301 82.2091 46.9803 81.5781 46.9803C79.8656 46.9803 78.9341 46.1092 78.9341 44.5769C78.9341 42.774 80.1809 41.9329 82.6298 41.9329C82.7799 41.9329 82.87 41.9329 83.0805 41.9479V41.6323C83.0805 40.7761 82.9152 40.4909 82.1794 40.4909C81.5334 40.4909 80.7825 40.8062 79.9558 41.3623L79.0998 39.9198L79.0996 39.9195Z" fill="#01ACE4"/>
<path fill-rule="evenodd" clip-rule="evenodd" d="M85.9204 39.1235L87.9788 38.868L89.0903 42.3385C89.2555 42.8489 89.4808 43.6899 89.586 44.1861C89.6463 43.7354 89.8116 42.9996 90.0517 42.2331L91.0883 39.0031H93.1912L90.3821 46.6948H88.7143L85.9204 39.1235Z" fill="#01ACE4"/>
<path fill-rule="evenodd" clip-rule="evenodd" d="M97.0674 40.3403C96.5868 40.3403 96.196 40.6408 96.0306 41.1217C95.8958 41.5273 95.8206 42.068 95.8206 42.834C95.8206 43.7205 95.9109 44.3813 96.0756 44.7721C96.2564 45.1929 96.7065 45.4031 97.0973 45.4031C97.9687 45.4031 98.3442 44.622 98.3442 42.8041C98.3442 41.7675 98.2091 41.0918 97.9385 40.7462C97.7434 40.491 97.4278 40.3403 97.0672 40.3403H97.0674ZM97.0372 38.8531C98.1342 38.8531 98.9905 39.2288 99.6514 40.0096C100.267 40.7309 100.538 41.5721 100.538 42.8192C100.538 44.1409 100.237 45.0422 99.5764 45.7936C98.9905 46.4545 98.2242 46.8602 97.0372 46.8602C94.9495 46.8602 93.5819 45.2977 93.5819 42.879C93.5819 40.4608 94.9643 38.8531 97.0372 38.8531Z" fill="#01ACE4"/>
<path fill-rule="evenodd" clip-rule="evenodd" d="M105.767 38.988L105.256 40.3251H103.964V44.2465C103.964 45.223 104.144 45.4782 104.835 45.4782C105.015 45.4782 105.196 45.4332 105.556 45.3278L105.812 46.5299C105.226 46.77 104.7 46.8752 104.174 46.8752C103.153 46.8752 102.327 46.425 102.101 45.7488C101.981 45.4184 101.966 45.268 101.966 44.5618V40.3254H101.2V39.0187H101.966C101.966 38.2676 101.966 37.7568 102.041 37.1859L104.084 36.6749C104.009 37.3811 103.964 38.2075 103.964 38.9883H105.767V38.988Z" fill="#01ACE4"/>
<path fill-rule="evenodd" clip-rule="evenodd" d="M106.608 39.3185L108.395 38.808C108.576 39.1236 108.681 39.454 108.681 39.7694C109.146 39.4389 109.237 39.3786 109.567 39.1985C109.973 38.9878 110.499 38.8681 110.949 38.8681C111.806 38.8681 112.557 39.3185 112.797 39.9796C112.902 40.265 112.947 40.5955 112.947 41.0763V46.6946H110.964V41.6919C110.964 40.8205 110.815 40.5653 110.288 40.5653C109.883 40.5653 109.357 40.8354 108.891 41.2561V46.6943H106.878V41.1211C106.878 40.4602 106.788 39.8292 106.608 39.3179V39.3185Z" fill="#01ACE4"/>
<path fill-rule="evenodd" clip-rule="evenodd" d="M114.765 39.1383L116.779 38.823V46.6948H114.765V39.1383ZM117.274 35.2925L118.1 36.7649L114.901 38.1923L114.315 37.1406L117.274 35.2927L117.274 35.2925Z" fill="#01ACE4"/>
<path fill-rule="evenodd" clip-rule="evenodd" d="M125.657 44.8171C125.928 45.0422 126.363 45.2678 126.769 45.2678C127.761 45.2678 128.151 44.5921 128.151 42.8339C128.151 42.0979 128.091 41.5122 127.956 41.1367C127.806 40.7157 127.49 40.4907 126.995 40.4907C126.499 40.4907 126.018 40.7009 125.657 41.0766V44.8171ZM123.584 39.1689L125.372 38.8533C125.447 39.1239 125.492 39.3339 125.507 39.574C125.852 39.1538 126.619 38.8533 127.4 38.8533C127.941 38.8533 128.496 39.0334 128.917 39.3188C129.743 39.8748 130.344 40.8661 130.344 42.6391C130.344 44.2918 130.089 45.1478 129.277 45.9893C128.752 46.5448 128.061 46.8607 127.22 46.8607C126.619 46.8607 126.048 46.7105 125.612 46.455C125.642 46.6351 125.642 47.086 125.642 47.086V49.4894L123.704 50.0001V41.1066C123.704 40.1001 123.689 39.8147 123.584 39.1689H123.584Z" fill="#01ACE4"/>
<path fill-rule="evenodd" clip-rule="evenodd" d="M134.882 40.3403C134.401 40.3403 134.01 40.6408 133.845 41.1217C133.71 41.5273 133.635 42.068 133.635 42.834C133.635 43.7205 133.725 44.3813 133.89 44.7721C134.071 45.1929 134.521 45.4031 134.912 45.4031C135.783 45.4031 136.159 44.622 136.159 42.8041C136.159 41.7675 136.024 41.0918 135.753 40.7462C135.558 40.491 135.242 40.3403 134.882 40.3403ZM134.852 38.8531C135.949 38.8531 136.805 39.2288 137.466 40.0096C138.082 40.7309 138.353 41.5721 138.353 42.8192C138.353 44.1409 138.052 45.0422 137.391 45.7936C136.805 46.4545 136.039 46.8602 134.852 46.8602C132.764 46.8602 131.397 45.2977 131.397 42.879C131.397 40.4608 132.779 38.8531 134.852 38.8531H134.852Z" fill="#01ACE4"/>
<path fill-rule="evenodd" clip-rule="evenodd" d="M140.681 35.4726C141.357 35.4726 141.928 36.0289 141.928 36.7047C141.928 37.3955 141.357 37.9668 140.666 37.9668C139.975 37.9668 139.434 37.4105 139.434 36.7346C139.434 36.044 139.99 35.4726 140.681 35.4726H140.681ZM139.66 39.3185L141.658 38.8379V46.4844C141.658 47.9415 141.357 48.5274 141.087 48.8732C140.726 49.339 140.215 49.7141 139.524 49.9998L138.683 48.888C138.999 48.6331 139.269 48.3024 139.419 48.0167C139.584 47.6862 139.66 47.2655 139.66 46.5442V39.3183V39.3185Z" fill="#01ACE4"/>
<path fill-rule="evenodd" clip-rule="evenodd" d="M143.536 39.1386L145.549 38.8232V46.695H143.536V39.1386ZM144.572 35.4878C145.248 35.4878 145.789 36.0441 145.789 36.7347C145.789 37.426 145.234 37.9815 144.542 37.9815C143.866 37.9815 143.311 37.426 143.311 36.7347C143.311 36.0441 143.882 35.4878 144.572 35.4878Z" fill="#01ACE4"/>
<path fill-rule="evenodd" clip-rule="evenodd" d="M152.204 36.3745L149.771 38.1922L147.277 36.3745L147.893 35.3829L149.771 36.4195L151.589 35.3829L152.204 36.3745ZM152.67 39.5139L152.009 40.8659C151.243 40.4753 150.687 40.3104 150.116 40.3104C149.53 40.3104 149.14 40.6109 149.14 41.0616C149.14 41.4524 149.395 41.6626 150.101 41.8426L151.033 42.0833C151.979 42.3235 152.295 42.6089 152.565 42.9547C152.85 43.3151 152.986 43.7506 152.986 44.2619C152.986 45.8543 151.664 46.9356 149.696 46.9356C148.75 46.9356 147.713 46.6351 146.586 46.0491L147.307 44.5772C147.923 44.9524 148.99 45.4486 149.861 45.4486C150.432 45.4486 150.882 45.0729 150.882 44.5772C150.882 44.0514 150.507 43.7811 149.696 43.6309L148.795 43.4655C148.284 43.3752 147.653 43.0151 147.382 42.6844C147.112 42.3539 146.947 41.7979 146.947 41.3022C146.947 39.7999 148.133 38.7935 149.921 38.7935C151.153 38.7935 151.965 39.1695 152.67 39.5147L152.67 39.5139Z" fill="#01ACE4"/>
<path fill-rule="evenodd" clip-rule="evenodd" d="M157.433 38.6427L156.802 37.967C157.313 37.8314 157.658 37.5611 157.658 37.2759C157.658 37.1104 157.598 37.0204 157.358 36.8851C157.027 36.69 156.877 36.4342 156.877 36.0288C156.877 35.4577 157.343 34.992 157.928 34.992C158.635 34.992 159.145 35.6081 159.145 36.449C159.145 37.5007 158.469 38.3872 157.433 38.6424V38.6427ZM158.229 38.988L157.718 40.3251H156.426V44.2464C156.426 45.2229 156.606 45.4781 157.297 45.4781C157.477 45.4781 157.658 45.4331 158.019 45.3278L158.274 46.5298C157.688 46.77 157.162 46.8751 156.636 46.8751C155.615 46.8751 154.789 46.425 154.563 45.7487C154.443 45.4183 154.428 45.2679 154.428 44.5618V40.3253H153.662V39.0187H154.428C154.428 38.2675 154.428 37.7568 154.503 37.1859L156.546 36.6749C156.471 37.381 156.426 38.2074 156.426 38.9882H158.228L158.229 38.988Z" fill="#01ACE4"/>
<path fill-rule="evenodd" clip-rule="evenodd" d="M162.57 40.3403C162.09 40.3403 161.699 40.6408 161.534 41.1217C161.398 41.5273 161.323 42.068 161.323 42.834C161.323 43.7205 161.414 44.3813 161.578 44.7721C161.759 45.1929 162.209 45.4031 162.6 45.4031C163.472 45.4031 163.847 44.622 163.847 42.8041C163.847 41.7675 163.712 41.0918 163.442 40.7462C163.247 40.491 162.931 40.3403 162.57 40.3403ZM162.54 38.8531C163.637 38.8531 164.493 39.2288 165.154 40.0096C165.77 40.7309 166.041 41.5721 166.041 42.8192C166.041 44.1409 165.74 45.0422 165.079 45.7936C164.493 46.4545 163.727 46.8602 162.54 46.8602C160.452 46.8602 159.085 45.2977 159.085 42.879C159.085 40.4608 160.467 38.8531 162.54 38.8531H162.54Z" fill="#01ACE4"/>
<path fill-rule="evenodd" clip-rule="evenodd" d="M166.417 39.1235L168.475 38.868L169.587 42.3385C169.752 42.8489 169.978 43.6899 170.083 44.1861C170.143 43.7354 170.308 42.9996 170.548 42.2331L171.585 39.0031H173.688L170.879 46.6948H169.211L166.417 39.1235Z" fill="#01ACE4"/>
<path fill-rule="evenodd" clip-rule="evenodd" d="M174.379 39.3185L176.167 38.808C176.347 39.1236 176.452 39.454 176.452 39.7694C176.918 39.4389 177.008 39.3786 177.339 39.1985C177.744 38.9878 178.27 38.8681 178.721 38.8681C179.577 38.8681 180.328 39.3185 180.569 39.9796C180.674 40.265 180.719 40.5955 180.719 41.0763V46.6946H178.736V41.6919C178.736 40.8205 178.586 40.5653 178.059 40.5653C177.654 40.5653 177.128 40.8354 176.663 41.2561V46.6943H174.649V41.1211C174.649 40.4602 174.559 39.8292 174.379 39.3179V39.3185Z" fill="#01ACE4"/>
<path fill-rule="evenodd" clip-rule="evenodd" d="M186.263 43.3298H186.173C184.775 43.3298 184.294 43.5851 184.294 44.5014C184.294 45.1022 184.67 45.5081 185.181 45.5081C185.557 45.5081 185.932 45.3125 186.233 44.982L186.263 43.3298H186.263ZM182.312 39.9195C182.807 39.6042 183.018 39.5139 183.559 39.2885C184.31 38.988 184.956 38.8379 185.662 38.8379C186.954 38.8379 187.841 39.3185 188.141 40.1753C188.246 40.4906 188.291 40.7308 188.276 41.5571L188.231 44.1411C188.231 44.1861 188.231 44.2314 188.231 44.2764C188.231 45.1025 188.366 45.4181 188.952 45.8539L187.885 47.0857C187.42 46.89 186.999 46.5445 186.804 46.1542C186.518 46.4248 186.488 46.4547 186.338 46.5595C185.963 46.8301 185.422 46.9803 184.791 46.9803C183.078 46.9803 182.147 46.1092 182.147 44.5769C182.147 42.774 183.394 41.9329 185.842 41.9329C185.992 41.9329 186.082 41.9329 186.293 41.9479V41.6323C186.293 40.7761 186.128 40.4909 185.391 40.4909C184.746 40.4909 183.995 40.8062 183.168 41.3623L182.312 39.9198L182.312 39.9195Z" fill="#01ACE4"/>
<path d="M202.167 49.1655C200.777 49.1655 199.548 48.6324 198.482 47.5661C197.462 46.4534 196.952 45.2017 196.952 43.8108C196.952 42.9764 197.021 42.1882 197.16 41.4465C197.299 40.7047 197.531 39.9861 197.856 39.2907C198.227 38.5953 198.713 37.9694 199.316 37.4131C200.939 35.7441 202.747 34.2374 204.74 32.8929C206.734 31.5021 208.704 30.204 210.651 28.9986C212.645 27.7469 214.453 26.5183 216.076 25.3129C217.745 24.0612 219.066 22.7399 220.039 21.3491C221.059 19.9119 221.569 18.3588 221.569 16.6898C221.569 15.7626 221.361 14.8354 220.943 13.9082C220.573 12.9346 219.877 12.1465 218.857 11.5438C217.837 10.8948 216.423 10.5702 214.615 10.5702C213.41 10.5702 212.344 10.7325 211.416 11.057C210.535 11.3815 209.794 11.8683 209.191 12.5174C208.635 13.1201 208.217 13.885 207.939 14.8122C207.661 15.7395 207.522 16.8058 207.522 18.0111C207.522 18.892 207.429 19.7265 207.244 20.5146C207.105 21.2564 206.664 21.8591 205.923 22.3227C205.181 22.7863 203.929 23.0181 202.167 23.0181C200.452 23.0181 199.223 22.7631 198.482 22.2531C197.74 21.6968 197.299 21.0014 197.16 20.1669C197.021 19.286 196.952 18.4052 196.952 17.5243C196.952 15.299 197.346 13.1433 198.134 11.057C198.922 8.92443 200.081 7.04683 201.611 5.4242C203.141 3.75522 204.972 2.43394 207.105 1.46036C209.284 0.486788 211.764 0 214.546 0C217.93 0 220.943 0.764952 223.586 2.29486C226.229 3.7784 228.315 5.84145 229.845 8.48401C231.421 11.1266 232.209 14.1632 232.209 17.5939C232.209 19.6338 231.885 21.5114 231.236 23.2267C230.586 24.9421 229.706 26.5183 228.593 27.9555C227.527 29.3463 226.321 30.5981 224.977 31.7107C223.679 32.8234 222.357 33.7969 221.013 34.6314C219.669 35.4659 218.417 36.2077 217.258 36.8568C216.099 37.4594 215.125 37.9694 214.337 38.3867L213.363 38.5257H228.732C229.659 38.5257 230.517 38.6185 231.305 38.8039C232.14 38.9893 232.789 39.4529 233.252 40.1947C233.762 40.9365 234.017 42.1882 234.017 43.9499C234.017 45.5726 233.762 46.7779 233.252 47.5661C232.742 48.3078 232.07 48.7483 231.236 48.8873C230.401 49.0728 229.52 49.1655 228.593 49.1655H202.167Z" fill="#01ACE4"/>
<path d="M255.516 50C252.502 50 249.929 49.49 247.797 48.4701C245.664 47.4502 243.902 46.0825 242.511 44.3672C241.121 42.6055 240.008 40.6583 239.174 38.5257C238.385 36.3468 237.829 34.0983 237.505 31.7803C237.18 29.4159 237.018 27.1442 237.018 24.9652C237.018 22.9254 237.18 20.7696 237.505 18.4979C237.829 16.1799 238.385 13.9314 239.174 11.7524C239.962 9.57348 241.028 7.60316 242.372 5.84145C243.763 4.03338 245.525 2.61938 247.658 1.59944C249.836 0.533148 252.409 0 255.377 0C258.251 0 260.731 0.533148 262.817 1.59944C264.95 2.61938 266.689 4.0102 268.033 5.77191C269.377 7.48725 270.444 9.4344 271.232 11.6134C272.066 13.7923 272.646 16.0408 272.97 18.3588C273.295 20.6769 273.457 22.9022 273.457 25.0348C273.457 27.2137 273.272 29.4622 272.901 31.7803C272.576 34.0983 272.02 36.3468 271.232 38.5257C270.444 40.7047 269.354 42.6518 267.963 44.3672C266.619 46.0825 264.927 47.4502 262.887 48.4701C260.847 49.49 258.39 50 255.516 50ZM255.237 39.3602C256.767 39.3602 257.996 39.0125 258.923 38.3171C259.897 37.5753 260.639 36.6481 261.148 35.5355C261.705 34.4228 262.099 33.2406 262.331 31.9889C262.609 30.6908 262.771 29.4622 262.817 28.3032C262.864 27.0978 262.887 26.1011 262.887 25.3129V24.9652C262.887 21.8591 262.609 19.2397 262.053 17.1071C261.496 14.9745 260.662 13.3519 259.549 12.2392C258.436 11.1266 257.022 10.5702 255.307 10.5702C253.545 10.5702 252.085 11.1266 250.926 12.2392C249.813 13.3055 248.979 14.9281 248.422 17.1071C247.866 19.2397 247.588 21.8822 247.588 25.0348C247.588 28.0946 247.866 30.6908 248.422 32.8234C249.025 34.956 249.883 36.5786 250.995 37.6912C252.154 38.8039 253.568 39.3602 255.237 39.3602Z" fill="#01ACE4"/>
<path d="M291.974 50C289.98 50 288.195 49.7914 286.619 49.3741C285.089 48.9569 283.768 48.4701 282.655 47.9138C281.589 47.3111 280.708 46.7779 280.013 46.3143C279.364 45.8044 278.923 45.4567 278.691 45.2712C278.042 44.7612 277.486 44.2281 277.022 43.6718C276.605 43.1154 276.396 42.4664 276.396 41.7246C276.396 41.1219 276.559 40.4961 276.883 39.847C277.208 39.198 277.741 38.5026 278.483 37.7608C279.085 37.0654 279.688 36.5554 280.291 36.2309C280.893 35.86 281.496 35.6746 282.099 35.6746C282.655 35.6746 283.235 35.8136 283.837 36.0918C284.44 36.37 285.182 36.8799 286.063 37.6217C286.248 37.7608 286.526 37.9694 286.897 38.2476C287.314 38.5257 287.871 38.7807 288.566 39.0125C289.308 39.2443 290.281 39.3602 291.487 39.3602C292.785 39.3602 293.874 39.1284 294.755 38.6648C295.682 38.2012 296.401 37.5522 296.911 36.7177C297.421 35.8368 297.676 34.7937 297.676 33.5883C297.676 32.4757 297.398 31.4789 296.841 30.5981C296.332 29.7172 295.636 29.045 294.755 28.5814C293.874 28.0714 292.878 27.8164 291.765 27.8164C291.116 27.8164 290.536 27.886 290.026 28.025C289.517 28.1641 289.076 28.3496 288.705 28.5814C288.381 28.8132 288.126 29.0218 287.94 29.2072C287.523 29.5781 287.059 29.9258 286.549 30.2504C286.086 30.5285 285.483 30.6676 284.741 30.6676C284.139 30.714 283.513 30.6676 282.864 30.5285C282.215 30.3431 281.496 30.0417 280.708 29.6245C279.456 28.9754 278.575 28.3959 278.065 27.886C277.555 27.376 277.3 26.7733 277.3 26.0779L280.013 5.84145C280.105 5.1924 280.268 4.45063 280.499 3.61614C280.731 2.78164 281.195 2.06305 281.89 1.46036C282.632 0.811314 283.768 0.486789 285.298 0.486789L301.918 0.556329C302.845 0.556329 303.703 0.649051 304.491 0.834494C305.279 1.01994 305.905 1.48354 306.369 2.22531C306.879 2.96709 307.134 4.21882 307.134 5.98053C307.134 7.60316 306.902 8.78535 306.438 9.52712C305.975 10.2225 305.349 10.6398 304.561 10.7789C303.819 10.9179 303.031 10.9875 302.196 10.9875H289.957L288.983 18.0111C289.262 17.8257 289.563 17.6866 289.887 17.5939C290.212 17.5012 290.536 17.4316 290.861 17.3853C291.185 17.2925 291.51 17.2462 291.835 17.2462H292.252C294.338 17.2462 296.332 17.6634 298.232 18.4979C300.179 19.3324 301.895 20.4914 303.378 21.975C304.908 23.4585 306.114 25.1507 306.994 27.0515C307.875 28.9522 308.316 30.9689 308.316 33.1015C308.316 36.3004 307.597 39.1748 306.16 41.7246C304.723 44.2745 302.752 46.2912 300.249 47.7747C297.792 49.2582 295.033 50 291.974 50Z" fill="#01ACE4"/>
</svg>
