<svg width="227" height="64" viewBox="0 0 227 64" fill="none" xmlns="http://www.w3.org/2000/svg">
<g filter="url(#filter0_d_299_774)">
<path d="M63.3876 38V41L54.8105 52.208C48.3243 57.8691 39.2452 58.9929 30.5459 59H5.0957C5.83787 59 4.34149 58.6093 4.33789 57L3 55V38H63.3876Z" fill="white"/>
</g>
<path d="M209.729 13.2158C209.729 13.6886 209.637 14.0078 209.459 14.177C209.281 14.3463 208.954 14.4341 208.472 14.4341C207.999 14.4341 207.675 14.3501 207.502 14.186C207.329 14.0207 207.241 13.7054 207.241 13.2403C207.241 12.7674 207.332 12.4483 207.511 12.2791C207.689 12.1098 208.016 12.022 208.497 12.022C208.969 12.022 209.292 12.1047 209.467 12.27C209.641 12.4354 209.728 12.7507 209.728 13.2158H209.729Z" fill="#5ECAC0"/>
<path d="M209.869 31.2583C209.869 31.3487 209.847 31.4211 209.802 31.4831C209.757 31.5399 209.689 31.5955 209.589 31.6407C209.488 31.6795 209.352 31.7143 209.173 31.7363C208.998 31.7583 208.773 31.7699 208.498 31.7699C208.228 31.7699 208.01 31.7583 207.835 31.7363C207.656 31.7143 207.515 31.6807 207.414 31.6407C207.307 31.5955 207.235 31.5399 207.195 31.4831C207.156 31.4211 207.138 31.3487 207.138 31.2583V16.4366C207.138 16.3578 207.154 16.2854 207.195 16.2234C207.233 16.1562 207.307 16.0994 207.414 16.0555C207.515 16.0167 207.656 15.9818 207.835 15.9599C208.01 15.9379 208.228 15.9263 208.498 15.9263C208.773 15.9263 208.998 15.9379 209.173 15.9599C209.352 15.9818 209.488 16.0154 209.589 16.0555C209.689 16.1007 209.757 16.1562 209.802 16.2234C209.847 16.2854 209.869 16.3578 209.869 16.4366V31.2583Z" fill="#5ECAC0"/>
<path fill-rule="evenodd" clip-rule="evenodd" d="M208.446 0.0620728C211.307 0.0620728 213.625 2.40186 213.625 5.28945C213.625 8.17574 211.307 10.5168 208.446 10.5168C205.586 10.5168 203.268 8.17704 203.268 5.28945C203.268 2.40315 205.586 0.0620728 208.446 0.0620728Z" fill="white"/>
<path d="M213.946 5.28939H213.303L213.297 5.02066L213.277 4.7558L213.245 4.49482L213.2 4.23771L213.141 3.98578L213.072 3.73901L212.99 3.49741L212.897 3.26097L212.794 3.02971L212.68 2.8049L212.556 2.58656L212.422 2.37596L212.278 2.17183L212.125 1.97545L211.963 1.78682L211.793 1.60594L211.614 1.4341L211.428 1.27131L211.235 1.11757L211.033 0.972865L210.826 0.838499L210.613 0.714468L210.393 0.600774L210.17 0.498707L209.943 0.408268L209.713 0.329457L209.483 0.263565L209.255 0.210594L209.034 0.170542L208.825 0.143411L208.631 0.127907L208.448 0.122739V0L208.798 0.00904386L209.13 0.0348837L209.439 0.0749352L209.728 0.126615L210.002 0.189922L210.263 0.264857L210.515 0.350128L210.758 0.447027L210.993 0.554262L211.22 0.671833L211.44 0.79974L211.653 0.93669L211.859 1.08398L212.056 1.24031L212.245 1.40568L212.426 1.5801L212.598 1.76227L212.762 1.95348L212.917 2.15116L213.061 2.35658L213.197 2.56976L213.322 2.7894L213.437 3.0155L213.542 3.24805L213.635 3.48578L213.716 3.72867L213.786 3.97673L213.844 4.22996L213.89 4.48836L213.923 4.75063L213.943 5.01678L213.949 5.28681L213.946 5.28939ZM208.446 10.5775V10.4548L208.63 10.4496L208.824 10.4341L209.033 10.4069L209.254 10.3669L209.481 10.3139L209.711 10.248L209.941 10.1692L210.169 10.0788L210.392 9.97672L210.612 9.86302L210.825 9.73899L211.032 9.60462L211.233 9.45992L211.427 9.30617L211.613 9.14338L211.791 8.97155L211.962 8.79067L212.123 8.60204L212.277 8.40566L212.421 8.20153L212.555 7.99093L212.679 7.77259L212.793 7.54778L212.896 7.31652L212.989 7.08008L213.07 6.83848L213.14 6.59171L213.198 6.33978L213.244 6.08267L213.276 5.82169L213.295 5.55683L213.302 5.2881H213.945L213.939 5.55812L213.919 5.82427L213.886 6.08655L213.84 6.34494L213.782 6.59817L213.713 6.84623L213.631 7.08913L213.538 7.32685L213.433 7.55941L213.319 7.78551L213.193 8.00515L213.058 8.21832L212.913 8.42375L212.758 8.62142L212.594 8.81264L212.422 8.99481L212.241 9.16922L212.052 9.3346L211.855 9.49093L211.649 9.63822L211.436 9.77517L211.216 9.90307L210.989 10.0206L210.754 10.1279L210.511 10.2248L210.259 10.31L209.998 10.385L209.724 10.4483L209.435 10.5L209.126 10.54L208.794 10.5659L208.444 10.5749L208.446 10.5775ZM202.946 5.28939H203.59L203.596 5.55812L203.616 5.82298L203.648 6.08396L203.693 6.34107L203.751 6.593L203.821 6.83977L203.903 7.08137L203.996 7.31781L204.099 7.54907L204.213 7.77388L204.337 7.99223L204.471 8.20282L204.614 8.40695L204.768 8.60334L204.93 8.79196L205.1 8.97284L205.278 9.14468L205.465 9.30747L205.658 9.46121L205.86 9.60592L206.067 9.74028L206.28 9.86431L206.499 9.97801L206.723 10.0801L206.95 10.1705L207.18 10.2493L207.41 10.3152L207.638 10.3682L207.859 10.4082L208.068 10.4354L208.262 10.4509L208.445 10.456V10.5788L208.095 10.5697L207.763 10.5439L207.454 10.5038L207.165 10.4522L206.891 10.3889L206.63 10.3139L206.378 10.2287L206.135 10.1318L205.9 10.0245L205.673 9.90695L205.453 9.77904L205.24 9.64209L205.034 9.4948L204.837 9.33847L204.648 9.1731L204.467 8.99868L204.295 8.81651L204.131 8.6253L203.976 8.42762L203.831 8.2222L203.696 8.00902L203.57 7.78938L203.455 7.56329L203.351 7.33073L203.258 7.093L203.176 6.85011L203.107 6.60205L203.049 6.34882L203.003 6.09042L202.97 5.82815L202.95 5.562L202.944 5.29197L202.946 5.28939ZM208.446 0.00129202V0.124031L208.263 0.129199L208.069 0.144703L207.86 0.171834L207.639 0.211886L207.412 0.264857L207.182 0.330749L206.952 0.40956L206.724 0.499998L206.501 0.602065L206.281 0.71576L206.068 0.839791L205.861 0.974158L205.66 1.11886L205.466 1.27261L205.28 1.4354L205.101 1.60723L204.931 1.78811L204.769 1.97674L204.616 2.17312L204.472 2.37725L204.338 2.58785L204.214 2.80619L204.1 3.031L203.997 3.26226L203.904 3.4987L203.822 3.7403L203.753 3.98707L203.694 4.23901L203.649 4.49611L203.617 4.75709L203.598 5.02195L203.591 5.29068H202.948L202.954 5.02066L202.974 4.75451L203.007 4.49224L203.052 4.23384L203.111 3.98061L203.18 3.73255L203.262 3.48965L203.355 3.25193L203.459 3.01937L203.574 2.79327L203.7 2.57364L203.835 2.36046L203.98 2.15503L204.135 1.95736L204.299 1.76615L204.471 1.58398L204.652 1.40956L204.84 1.24418L205.038 1.08785L205.244 0.940566L205.457 0.803615L205.676 0.675709L205.904 0.558138L206.139 0.450903L206.382 0.354004L206.634 0.268733L206.895 0.193798L207.169 0.130491L207.458 0.0788112L207.767 0.0387597L208.099 0.0129199L208.449 0.00387605L208.446 0.00129202Z" fill="#2C3E43"/>
<path d="M208.446 8.90836C210.426 8.90836 212.031 7.28814 212.031 5.28951C212.031 3.29087 210.426 1.67065 208.446 1.67065C206.466 1.67065 204.861 3.29087 204.861 5.28951C204.861 7.28814 206.466 8.90836 208.446 8.90836Z" fill="#5ECAC0"/>
<path fill-rule="evenodd" clip-rule="evenodd" d="M208.446 2.3501C209.596 2.3501 210.59 3.02322 211.064 3.99996C210.533 3.28162 209.684 2.81521 208.728 2.81521C207.119 2.81521 205.816 4.13045 205.816 5.75448C205.816 6.21701 205.922 6.6537 206.11 7.04388C205.749 6.55422 205.534 5.94699 205.534 5.28937C205.534 3.66663 206.838 2.3501 208.446 2.3501Z" fill="white"/>
<path fill-rule="evenodd" clip-rule="evenodd" d="M11.4922 2.30361V36.7712C11.4909 38.7027 11.6446 40.3927 11.7144 42.0051C12.1614 52.4288 21.9198 56.7621 26.9121 48.2621C27.9431 46.5076 28.3914 44.3384 29.0787 42.7027C29.717 41.1846 30.5051 39.8746 32.4392 39.8771C34.6394 39.8797 35.3875 42.3461 35.6988 44.403C36.1601 47.4559 36.0464 51.6691 39.7609 52.005C42.6329 52.266 44.4805 50.62 46.4843 48.9327C46.7957 48.6704 47.1807 48.2208 47.4546 47.9353L48.8332 46.4999C50.713 44.465 52.6135 41.1691 53.66 38.5451C56.297 31.9392 57.1019 21.8049 54.5631 14.8333C53.465 11.8191 51.9171 9.24933 49.9882 7.38887L48.4533 5.91859C43.7957 1.81912 37.2764 1.00517 31.0296 1L12.7544 1.00001C12.5188 1.00001 11.4948 1.13824 11.4922 2.30361ZM15.3076 5.67957C15.3076 6.1051 15.5191 24.0037 15.5178 33.3991C15.5178 36.5683 15.2906 41.9844 16.4741 45.4702C17.9004 49.6743 22.3423 50.0231 24.0025 45.5787C25.1614 42.4753 26.173 38.1885 29.4805 36.5374C34.0477 34.2583 38.2441 37.8797 39.1407 42.6536C39.3939 43.9973 39.5645 46.4663 39.9727 47.5464C40.9236 50.0619 45.7324 44.2596 46.1639 43.7311C47.8991 41.6058 49.182 39.3371 50.2311 36.4366C52.1781 31.0503 52.6872 22.2816 50.8603 16.5658C49.1239 11.1343 44.8577 7.11497 38.9908 5.7067C34.1355 4.54133 16.5842 5.04127 16.1587 5.04127C15.7332 5.04127 15.3076 5.25403 15.3076 5.67957Z" fill="#2C3E43"/>
<path d="M68.0401 32.2759C66.4921 32.2759 65.159 31.9452 64.0407 31.2838C62.9292 30.6155 62.07 29.6779 61.4631 28.4709C60.863 27.2571 60.563 25.8353 60.563 24.2056C60.563 22.5963 60.863 21.1779 61.4631 19.9505C62.07 18.7231 62.9156 17.765 63.9998 17.0763C65.0908 16.3876 66.366 16.0432 67.8253 16.0432C68.7117 16.0432 69.5709 16.1898 70.4029 16.483C71.2348 16.7762 71.9815 17.2365 72.6429 17.8639C73.3044 18.4912 73.826 19.3061 74.2079 20.3085C74.5898 21.3041 74.7807 22.5145 74.7807 23.9397V25.0239H62.2916V22.7327H71.7837C71.7837 21.928 71.6201 21.2154 71.2928 20.5949C70.9654 19.9676 70.5052 19.4732 69.9119 19.1118C69.3255 18.7504 68.6367 18.5697 67.8457 18.5697C66.9865 18.5697 66.2364 18.781 65.5954 19.2038C64.9613 19.6198 64.4703 20.1653 64.1225 20.8404C63.7816 21.5087 63.6111 22.2349 63.6111 23.0191V24.8091C63.6111 25.8592 63.7952 26.7525 64.1634 27.489C64.5385 28.2254 65.0601 28.788 65.7284 29.1767C66.3967 29.5585 67.1775 29.7495 68.0708 29.7495C68.6504 29.7495 69.1789 29.6677 69.6562 29.504C70.1335 29.3335 70.5461 29.0812 70.8938 28.7471C71.2416 28.4129 71.5076 28.0004 71.6917 27.5094L74.5864 28.0311C74.3545 28.8835 73.9385 29.6301 73.3385 30.2711C72.7452 30.9053 71.9985 31.3997 71.0984 31.7543C70.2051 32.1021 69.1857 32.2759 68.0401 32.2759Z" fill="#2C3E43"/>
<path d="M81.2324 22.6304V31.9589H78.174V16.2478H81.1096V18.8049H81.304C81.6654 17.973 82.2314 17.3047 83.0019 16.8001C83.7793 16.2955 84.7578 16.0432 85.9375 16.0432C87.0081 16.0432 87.9457 16.2682 88.7504 16.7183C89.555 17.1615 90.179 17.823 90.6222 18.7026C91.0654 19.5823 91.2871 20.6699 91.2871 21.9655V31.9589H88.2287V22.3338C88.2287 21.195 87.9321 20.3051 87.3388 19.6641C86.7456 19.0163 85.9307 18.6924 84.8942 18.6924C84.185 18.6924 83.5543 18.8458 83.0019 19.1527C82.4564 19.4595 82.0234 19.9096 81.7029 20.5029C81.3892 21.0893 81.2324 21.7985 81.2324 22.6304Z" fill="#2C3E43"/>
<path d="M102.723 16.2478V18.7026H94.1408V16.2478H102.723ZM96.4423 12.4837H99.5006V27.3458C99.5006 27.939 99.5892 28.3857 99.7665 28.6857C99.9438 28.9789 100.172 29.1801 100.452 29.2892C100.738 29.3915 101.049 29.4426 101.383 29.4426C101.628 29.4426 101.843 29.4256 102.027 29.3915C102.211 29.3574 102.354 29.3301 102.457 29.3097L103.009 31.8361C102.832 31.9043 102.579 31.9725 102.252 32.0407C101.925 32.1157 101.516 32.1566 101.025 32.1634C100.22 32.1771 99.4699 32.0339 98.7744 31.7338C98.0788 31.4338 97.5163 30.9701 97.0867 30.3427C96.6571 29.7154 96.4423 28.9278 96.4423 27.9799V12.4837Z" fill="#2C3E43"/>
<path d="M110.678 32.3066C109.682 32.3066 108.782 32.1225 107.978 31.7543C107.173 31.3792 106.535 30.8371 106.065 30.1279C105.601 29.4188 105.369 28.5493 105.369 27.5197C105.369 26.6332 105.54 25.9035 105.881 25.3307C106.222 24.7579 106.682 24.3045 107.262 23.9703C107.841 23.6362 108.489 23.3839 109.205 23.2134C109.921 23.0429 110.651 22.9134 111.394 22.8247C112.335 22.7156 113.099 22.627 113.685 22.5588C114.271 22.4838 114.698 22.3645 114.964 22.2008C115.23 22.0371 115.363 21.7712 115.363 21.403V21.3314C115.363 20.4381 115.11 19.7459 114.606 19.255C114.108 18.764 113.365 18.5185 112.376 18.5185C111.346 18.5185 110.535 18.7469 109.941 19.2038C109.355 19.6539 108.949 20.1551 108.724 20.7074L105.85 20.0528C106.191 19.0981 106.689 18.3276 107.343 17.7411C108.005 17.1479 108.765 16.7183 109.624 16.4523C110.484 16.1796 111.387 16.0432 112.335 16.0432C112.962 16.0432 113.627 16.1182 114.329 16.2682C115.039 16.4114 115.7 16.6774 116.314 17.0661C116.934 17.4547 117.442 18.0105 117.838 18.7333C118.233 19.4493 118.431 20.3801 118.431 21.5257V31.9589H115.444V29.8109H115.322C115.124 30.2064 114.827 30.595 114.432 30.9769C114.036 31.3588 113.528 31.6759 112.908 31.9282C112.287 32.1805 111.544 32.3066 110.678 32.3066ZM111.343 29.8518C112.188 29.8518 112.911 29.6847 113.511 29.3506C114.118 29.0164 114.578 28.58 114.892 28.0413C115.213 27.4958 115.373 26.9128 115.373 26.2922V24.267C115.264 24.3761 115.052 24.4784 114.739 24.5738C114.432 24.6625 114.081 24.7409 113.685 24.8091C113.29 24.8705 112.904 24.9284 112.529 24.983C112.154 25.0307 111.841 25.0716 111.588 25.1057C110.995 25.1807 110.453 25.3069 109.962 25.4842C109.478 25.6615 109.089 25.9172 108.796 26.2513C108.509 26.5786 108.366 27.015 108.366 27.5606C108.366 28.3175 108.646 28.8903 109.205 29.279C109.764 29.6608 110.477 29.8518 111.343 29.8518Z" fill="#2C3E43"/>
<path d="M125.563 11.0107V31.9589H122.505V11.0107H125.563Z" fill="#2C3E43"/>
<path d="M138.563 31.5778V11.7529H150.992V14.3278H141.554V20.3682H150.344V22.9334H141.554V29.0029H151.108V31.5778H138.563Z" fill="#2C3E43"/>
<path d="M165.897 20.3392L163.274 20.8038C163.164 20.4682 162.99 20.1488 162.751 19.8455C162.519 19.5422 162.203 19.2937 161.802 19.1001C161.402 18.9065 160.902 18.8097 160.302 18.8097C159.482 18.8097 158.798 18.9936 158.25 19.3615C157.701 19.7229 157.427 20.1908 157.427 20.7651C157.427 21.262 157.611 21.6621 157.979 21.9654C158.347 22.2687 158.94 22.5172 159.76 22.7108L162.122 23.2529C163.49 23.5691 164.51 24.0563 165.181 24.7146C165.852 25.3728 166.188 26.2279 166.188 27.2798C166.188 28.1704 165.929 28.9642 165.413 29.6611C164.903 30.3516 164.19 30.8937 163.274 31.2874C162.364 31.681 161.309 31.8779 160.108 31.8779C158.443 31.8779 157.085 31.5229 156.033 30.8131C154.981 30.0967 154.336 29.0803 154.097 27.7638L156.895 27.3379C157.069 28.0671 157.427 28.6189 157.969 28.9932C158.511 29.361 159.218 29.545 160.089 29.545C161.038 29.545 161.796 29.3481 162.364 28.9545C162.932 28.5544 163.216 28.0671 163.216 27.4928C163.216 27.0281 163.042 26.6377 162.693 26.3215C162.351 26.0053 161.825 25.7665 161.115 25.6052L158.598 25.0534C157.211 24.7372 156.185 24.2338 155.52 23.5433C154.862 22.8528 154.533 21.9783 154.533 20.92C154.533 20.0423 154.778 19.2744 155.268 18.6161C155.759 17.9579 156.436 17.4448 157.301 17.077C158.166 16.7027 159.157 16.5155 160.273 16.5155C161.88 16.5155 163.145 16.864 164.068 17.561C164.99 18.2515 165.6 19.1776 165.897 20.3392Z" fill="#2C3E43"/>
<path d="M176.311 16.7091V19.0324H168.189V16.7091H176.311ZM170.367 13.1469H173.261V27.2121C173.261 27.7735 173.345 28.1962 173.513 28.4801C173.681 28.7576 173.897 28.948 174.162 29.0513C174.433 29.1481 174.726 29.1965 175.042 29.1965C175.275 29.1965 175.478 29.1803 175.652 29.1481C175.827 29.1158 175.962 29.09 176.059 29.0706L176.582 31.4616C176.414 31.5262 176.175 31.5907 175.865 31.6552C175.556 31.7262 175.168 31.7649 174.704 31.7714C173.942 31.7843 173.232 31.6488 172.574 31.3648C171.916 31.0809 171.383 30.642 170.977 30.0483C170.57 29.4546 170.367 28.7092 170.367 27.8122V13.1469Z" fill="#2C3E43"/>
<path d="M185.761 31.8779C184.296 31.8779 183.034 31.5649 181.976 30.9389C180.924 30.3065 180.111 29.4191 179.536 28.2769C178.969 27.1282 178.685 25.7826 178.685 24.2403C178.685 22.7173 178.969 21.375 179.536 20.2133C180.111 19.0517 180.911 18.145 181.937 17.4932C182.97 16.8414 184.176 16.5155 185.557 16.5155C186.396 16.5155 187.21 16.6543 187.997 16.9318C188.784 17.2093 189.491 17.6449 190.117 18.2386C190.743 18.8323 191.236 19.6035 191.598 20.5521C191.959 21.4943 192.14 22.6398 192.14 23.9886V25.0147H180.321V22.8463H189.304C189.304 22.0848 189.149 21.4104 188.839 20.8232C188.529 20.2295 188.094 19.7616 187.532 19.4196C186.977 19.0775 186.325 18.9065 185.577 18.9065C184.764 18.9065 184.054 19.1066 183.447 19.5067C182.847 19.9003 182.382 20.4166 182.053 21.0555C181.731 21.6879 181.569 22.3752 181.569 23.1174V24.8114C181.569 25.8052 181.744 26.6506 182.092 27.3476C182.447 28.0445 182.941 28.5769 183.573 28.9448C184.205 29.3062 184.944 29.4869 185.79 29.4869C186.338 29.4869 186.838 29.4094 187.29 29.2546C187.742 29.0932 188.132 28.8544 188.461 28.5382C188.791 28.222 189.042 27.8316 189.217 27.3669L191.956 27.8606C191.737 28.6673 191.343 29.3739 190.775 29.9806C190.214 30.5807 189.507 31.0486 188.655 31.3842C187.81 31.7133 186.845 31.8779 185.761 31.8779Z" fill="#2C3E43"/>
<path d="M202.292 16.7091V19.0324H194.17V16.7091H202.292ZM196.348 13.1469H199.243V27.2121C199.243 27.7735 199.327 28.1962 199.494 28.4801C199.662 28.7576 199.878 28.948 200.143 29.0513C200.414 29.1481 200.708 29.1965 201.024 29.1965C201.256 29.1965 201.459 29.1803 201.634 29.1481C201.808 29.1158 201.943 29.09 202.04 29.0706L202.563 31.4616C202.395 31.5262 202.156 31.5907 201.847 31.6552C201.537 31.7262 201.15 31.7649 200.685 31.7714C199.924 31.7843 199.214 31.6488 198.555 31.3648C197.897 31.0809 197.365 30.642 196.958 30.0483C196.552 29.4546 196.348 28.7092 196.348 27.8122V13.1469Z" fill="#2C3E43"/>
<path d="M216.265 27.0123L216.245 23.4265H216.756L222.768 17.0407H226.285L219.428 24.3107H218.966L216.265 27.0123ZM213.563 32.1307V12.0107H216.5V32.1307H213.563ZM223.092 32.1307L217.689 24.9591L219.713 22.9058L226.698 32.1307H223.092Z" fill="#2C3E43"/>
<path d="M63.3887 43L63.3848 43.0088C61.9483 46.1193 60.1056 48.8454 57.8887 50.9668L57.8857 50.9688L55.792 52.957L55.7695 52.9795L55.7451 53C48.9786 58.9081 39.6198 59.9922 31.0566 60H6.14062C5.80317 59.9999 5.09107 59.9184 4.40918 59.4951L4.40625 59.4932C3.62569 59.0048 3 58.1229 3 56.8193V41.0039H5V56.8193C5 57.1307 5.07012 57.3351 5.14746 57.4707C5.2258 57.608 5.33456 57.7144 5.46387 57.7959C5.59308 57.8761 5.73644 57.9296 5.87109 57.9619C6.00743 57.9946 6.11061 57.9999 6.14062 58H31.0547C39.5474 57.9923 48.2379 56.8892 54.415 51.5059L56.5088 49.5186C58.5094 47.6033 60.2161 45.0989 61.5684 42.1709L61.8408 41.5811L62.1084 41H63.3887V43Z" fill="#5ECAC0"/>
<defs>
<filter id="filter0_d_299_774" x="0" y="37" width="66.3876" height="27" filterUnits="userSpaceOnUse" color-interpolation-filters="sRGB">
<feFlood flood-opacity="0" result="BackgroundImageFix"/>
<feColorMatrix in="SourceAlpha" type="matrix" values="0 0 0 0 0 0 0 0 0 0 0 0 0 0 0 0 0 0 127 0" result="hardAlpha"/>
<feOffset dy="2"/>
<feGaussianBlur stdDeviation="1.5"/>
<feComposite in2="hardAlpha" operator="out"/>
<feColorMatrix type="matrix" values="0 0 0 0 0.207843 0 0 0 0 0.294118 0 0 0 0 0.313726 0 0 0 0.3 0"/>
<feBlend mode="normal" in2="BackgroundImageFix" result="effect1_dropShadow_299_774"/>
<feBlend mode="normal" in="SourceGraphic" in2="effect1_dropShadow_299_774" result="shape"/>
</filter>
</defs>
</svg>
