<svg width="226" height="64" viewBox="0 0 226 64" fill="none" xmlns="http://www.w3.org/2000/svg">
<g filter="url(#filter0_d_299_774)">
<path d="M61.8916 41C60.3978 44.6868 58.3939 47.8387 55.9482 50.1777L53.8105 52.208C47.3243 57.8691 38.2452 58.9929 29.5459 59H4.0957C4.83787 59 3.34149 58.6093 3.33789 57L3 41H61.8916Z" fill="white"/>
</g>
<path d="M208.729 13.2158C208.729 13.6886 208.637 14.0078 208.459 14.177C208.281 14.3463 207.954 14.4341 207.472 14.4341C206.999 14.4341 206.675 14.3501 206.502 14.186C206.329 14.0207 206.241 13.7054 206.241 13.2403C206.241 12.7674 206.332 12.4483 206.511 12.2791C206.689 12.1098 207.016 12.022 207.497 12.022C207.969 12.022 208.292 12.1047 208.467 12.27C208.641 12.4354 208.728 12.7507 208.728 13.2158H208.729Z" fill="#5ECAC0"/>
<path d="M208.869 31.2583C208.869 31.3487 208.847 31.4211 208.802 31.4831C208.757 31.5399 208.689 31.5955 208.589 31.6407C208.488 31.6795 208.352 31.7143 208.173 31.7363C207.998 31.7583 207.773 31.7699 207.498 31.7699C207.228 31.7699 207.01 31.7583 206.835 31.7363C206.656 31.7143 206.515 31.6807 206.414 31.6407C206.307 31.5955 206.235 31.5399 206.195 31.4831C206.156 31.4211 206.138 31.3487 206.138 31.2583V16.4366C206.138 16.3578 206.154 16.2854 206.195 16.2234C206.233 16.1562 206.307 16.0994 206.414 16.0555C206.515 16.0167 206.656 15.9818 206.835 15.9599C207.01 15.9379 207.228 15.9263 207.498 15.9263C207.773 15.9263 207.998 15.9379 208.173 15.9599C208.352 15.9818 208.488 16.0154 208.589 16.0555C208.689 16.1007 208.757 16.1562 208.802 16.2234C208.847 16.2854 208.869 16.3578 208.869 16.4366V31.2583Z" fill="#5ECAC0"/>
<path fill-rule="evenodd" clip-rule="evenodd" d="M207.446 0.0620728C210.307 0.0620728 212.625 2.40186 212.625 5.28945C212.625 8.17574 210.307 10.5168 207.446 10.5168C204.586 10.5168 202.268 8.17704 202.268 5.28945C202.268 2.40315 204.586 0.0620728 207.446 0.0620728Z" fill="white"/>
<path d="M212.946 5.28939H212.303L212.297 5.02066L212.277 4.7558L212.245 4.49482L212.2 4.23771L212.141 3.98578L212.072 3.73901L211.99 3.49741L211.897 3.26097L211.794 3.02971L211.68 2.8049L211.556 2.58656L211.422 2.37596L211.278 2.17183L211.125 1.97545L210.963 1.78682L210.793 1.60594L210.614 1.4341L210.428 1.27131L210.235 1.11757L210.033 0.972865L209.826 0.838499L209.613 0.714468L209.393 0.600774L209.17 0.498707L208.943 0.408268L208.713 0.329457L208.483 0.263565L208.255 0.210594L208.034 0.170542L207.825 0.143411L207.631 0.127907L207.448 0.122739V0L207.798 0.00904386L208.13 0.0348837L208.439 0.0749352L208.728 0.126615L209.002 0.189922L209.263 0.264857L209.515 0.350128L209.758 0.447027L209.993 0.554262L210.22 0.671833L210.44 0.79974L210.653 0.93669L210.859 1.08398L211.056 1.24031L211.245 1.40568L211.426 1.5801L211.598 1.76227L211.762 1.95348L211.917 2.15116L212.061 2.35658L212.197 2.56976L212.322 2.7894L212.437 3.0155L212.542 3.24805L212.635 3.48578L212.716 3.72867L212.786 3.97673L212.844 4.22996L212.89 4.48836L212.923 4.75063L212.943 5.01678L212.949 5.28681L212.946 5.28939ZM207.446 10.5775V10.4548L207.63 10.4496L207.824 10.4341L208.033 10.4069L208.254 10.3669L208.481 10.3139L208.711 10.248L208.941 10.1692L209.169 10.0788L209.392 9.97672L209.612 9.86302L209.825 9.73899L210.032 9.60462L210.233 9.45992L210.427 9.30617L210.613 9.14339L210.791 8.97155L210.962 8.79067L211.123 8.60204L211.277 8.40566L211.421 8.20153L211.555 7.99093L211.679 7.77259L211.793 7.54778L211.896 7.31652L211.989 7.08008L212.07 6.83848L212.14 6.59171L212.198 6.33978L212.244 6.08267L212.276 5.82169L212.295 5.55683L212.302 5.2881H212.945L212.939 5.55812L212.919 5.82427L212.886 6.08655L212.84 6.34494L212.782 6.59817L212.713 6.84623L212.631 7.08913L212.538 7.32685L212.433 7.55941L212.319 7.78551L212.193 8.00514L212.058 8.21832L211.913 8.42375L211.758 8.62142L211.594 8.81264L211.422 8.99481L211.241 9.16922L211.052 9.3346L210.855 9.49093L210.649 9.63822L210.436 9.77517L210.216 9.90307L209.989 10.0206L209.754 10.1279L209.511 10.2248L209.259 10.31L208.998 10.385L208.724 10.4483L208.435 10.5L208.126 10.54L207.794 10.5659L207.444 10.5749L207.446 10.5775ZM201.946 5.28939H202.59L202.596 5.55812L202.616 5.82298L202.648 6.08396L202.693 6.34107L202.751 6.593L202.821 6.83977L202.903 7.08137L202.996 7.31781L203.099 7.54907L203.213 7.77388L203.337 7.99223L203.471 8.20282L203.614 8.40695L203.768 8.60334L203.93 8.79196L204.1 8.97284L204.278 9.14468L204.465 9.30747L204.658 9.46121L204.86 9.60592L205.067 9.74028L205.28 9.86431L205.499 9.97801L205.723 10.0801L205.95 10.1705L206.18 10.2493L206.41 10.3152L206.638 10.3682L206.859 10.4082L207.068 10.4354L207.262 10.4509L207.445 10.456V10.5788L207.095 10.5697L206.763 10.5439L206.454 10.5038L206.165 10.4522L205.891 10.3889L205.63 10.3139L205.378 10.2287L205.135 10.1318L204.9 10.0245L204.673 9.90695L204.453 9.77904L204.24 9.64209L204.034 9.4948L203.837 9.33847L203.648 9.1731L203.467 8.99868L203.295 8.81651L203.131 8.6253L202.976 8.42762L202.831 8.2222L202.696 8.00902L202.57 7.78938L202.455 7.56329L202.351 7.33073L202.258 7.093L202.176 6.85011L202.107 6.60205L202.049 6.34882L202.003 6.09042L201.97 5.82815L201.95 5.562L201.944 5.29197L201.946 5.28939ZM207.446 0.00129202V0.124031L207.263 0.129199L207.069 0.144703L206.86 0.171834L206.639 0.211886L206.412 0.264857L206.182 0.330749L205.952 0.40956L205.724 0.499998L205.501 0.602065L205.281 0.71576L205.068 0.839791L204.861 0.974158L204.66 1.11886L204.466 1.27261L204.28 1.4354L204.101 1.60723L203.931 1.78811L203.769 1.97674L203.616 2.17312L203.472 2.37725L203.338 2.58785L203.214 2.80619L203.1 3.031L202.997 3.26226L202.904 3.4987L202.822 3.7403L202.753 3.98707L202.694 4.23901L202.649 4.49611L202.617 4.75709L202.598 5.02195L202.591 5.29068H201.948L201.954 5.02066L201.974 4.75451L202.007 4.49224L202.052 4.23384L202.111 3.98061L202.18 3.73255L202.262 3.48965L202.355 3.25193L202.459 3.01937L202.574 2.79327L202.7 2.57364L202.835 2.36046L202.98 2.15503L203.135 1.95736L203.299 1.76615L203.471 1.58398L203.652 1.40956L203.84 1.24418L204.038 1.08785L204.244 0.940566L204.457 0.803615L204.676 0.675709L204.904 0.558138L205.139 0.450903L205.382 0.354004L205.634 0.268733L205.895 0.193798L206.169 0.130491L206.458 0.0788112L206.767 0.0387597L207.099 0.0129199L207.449 0.00387605L207.446 0.00129202Z" fill="#2C3E43"/>
<path d="M207.446 8.90836C209.426 8.90836 211.031 7.28814 211.031 5.28951C211.031 3.29087 209.426 1.67065 207.446 1.67065C205.466 1.67065 203.861 3.29087 203.861 5.28951C203.861 7.28814 205.466 8.90836 207.446 8.90836Z" fill="#5ECAC0"/>
<path fill-rule="evenodd" clip-rule="evenodd" d="M207.446 2.3501C208.596 2.3501 209.59 3.02322 210.064 3.99996C209.533 3.28162 208.684 2.81521 207.728 2.81521C206.119 2.81521 204.816 4.13045 204.816 5.75448C204.816 6.21701 204.922 6.6537 205.11 7.04388C204.749 6.55422 204.534 5.94699 204.534 5.28937C204.534 3.66663 205.838 2.3501 207.446 2.3501Z" fill="white"/>
<path fill-rule="evenodd" clip-rule="evenodd" d="M10.4922 2.30361V36.7712C10.4909 38.7027 10.6446 40.3927 10.7144 42.0051C11.1614 52.4288 20.9198 56.7621 25.9121 48.2621C26.9431 46.5076 27.3914 44.3384 28.0787 42.7027C28.717 41.1846 29.5051 39.8746 31.4392 39.8771C33.6394 39.8797 34.3875 42.3461 34.6988 44.403C35.1601 47.4559 35.0464 51.6691 38.7609 52.005C41.6329 52.266 43.4805 50.62 45.4843 48.9327C45.7957 48.6704 46.1807 48.2208 46.4546 47.9353L47.8332 46.4999C49.713 44.465 51.6135 41.1691 52.66 38.5451C55.297 31.9392 56.1019 21.8049 53.5631 14.8333C52.465 11.8191 50.9171 9.24933 48.9882 7.38887L47.4533 5.91859C42.7957 1.81912 36.2764 1.00517 30.0296 1L11.7544 1.00001C11.5188 1.00001 10.4948 1.13824 10.4922 2.30361ZM14.3076 5.67957C14.3076 6.1051 14.5191 24.0037 14.5178 33.3991C14.5178 36.5683 14.2906 41.9844 15.4741 45.4702C16.9004 49.6743 21.3423 50.0231 23.0025 45.5787C24.1614 42.4753 25.173 38.1885 28.4805 36.5374C33.0477 34.2583 37.2441 37.8797 38.1407 42.6536C38.3939 43.9973 38.5645 46.4663 38.9727 47.5464C39.9236 50.0619 44.7324 44.2596 45.1639 43.7311C46.8991 41.6058 48.182 39.3371 49.2311 36.4366C51.1781 31.0503 51.6872 22.2816 49.8603 16.5658C48.1239 11.1343 43.8577 7.11497 37.9908 5.7067C33.1355 4.54133 15.5842 5.04127 15.1587 5.04127C14.7332 5.04127 14.3076 5.25403 14.3076 5.67957Z" fill="#2C3E43"/>
<path d="M67.0401 32.2759C65.4921 32.2759 64.159 31.9452 63.0407 31.2838C61.9292 30.6155 61.07 29.6779 60.4631 28.4709C59.863 27.2571 59.563 25.8353 59.563 24.2056C59.563 22.5963 59.863 21.1779 60.4631 19.9505C61.07 18.7231 61.9156 17.765 62.9998 17.0763C64.0908 16.3876 65.366 16.0432 66.8253 16.0432C67.7117 16.0432 68.5709 16.1898 69.4029 16.483C70.2348 16.7762 70.9815 17.2365 71.6429 17.8639C72.3044 18.4912 72.826 19.3061 73.2079 20.3085C73.5898 21.3041 73.7807 22.5145 73.7807 23.9397V25.0239H61.2916V22.7327H70.7837C70.7837 21.928 70.6201 21.2154 70.2928 20.5949C69.9654 19.9676 69.5052 19.4732 68.9119 19.1118C68.3255 18.7504 67.6367 18.5697 66.8457 18.5697C65.9865 18.5697 65.2364 18.781 64.5954 19.2038C63.9613 19.6198 63.4703 20.1653 63.1225 20.8404C62.7816 21.5087 62.6111 22.2349 62.6111 23.0191V24.8091C62.6111 25.8592 62.7952 26.7525 63.1634 27.489C63.5385 28.2254 64.0601 28.788 64.7284 29.1767C65.3967 29.5585 66.1775 29.7495 67.0708 29.7495C67.6504 29.7495 68.1789 29.6677 68.6562 29.504C69.1335 29.3335 69.5461 29.0812 69.8938 28.7471C70.2416 28.4129 70.5076 28.0004 70.6917 27.5094L73.5864 28.0311C73.3545 28.8835 72.9385 29.6301 72.3385 30.2711C71.7452 30.9053 70.9985 31.3997 70.0984 31.7543C69.2051 32.1021 68.1857 32.2759 67.0401 32.2759Z" fill="#2C3E43"/>
<path d="M80.2324 22.6304V31.9589H77.174V16.2478H80.1096V18.8049H80.304C80.6654 17.973 81.2314 17.3047 82.0019 16.8001C82.7793 16.2955 83.7578 16.0432 84.9375 16.0432C86.0081 16.0432 86.9457 16.2682 87.7504 16.7183C88.555 17.1615 89.179 17.823 89.6222 18.7026C90.0654 19.5823 90.2871 20.6699 90.2871 21.9655V31.9589H87.2287V22.3338C87.2287 21.195 86.9321 20.3051 86.3388 19.6641C85.7456 19.0163 84.9307 18.6924 83.8942 18.6924C83.185 18.6924 82.5543 18.8458 82.0019 19.1527C81.4564 19.4595 81.0234 19.9096 80.7029 20.5029C80.3892 21.0893 80.2324 21.7985 80.2324 22.6304Z" fill="#2C3E43"/>
<path d="M101.723 16.2478V18.7026H93.1408V16.2478H101.723ZM95.4423 12.4837H98.5006V27.3458C98.5006 27.939 98.5892 28.3857 98.7665 28.6857C98.9438 28.9789 99.1723 29.1801 99.4519 29.2892C99.7383 29.3915 100.049 29.4426 100.383 29.4426C100.628 29.4426 100.843 29.4256 101.027 29.3915C101.211 29.3574 101.354 29.3301 101.457 29.3097L102.009 31.8361C101.832 31.9043 101.579 31.9725 101.252 32.0407C100.925 32.1157 100.516 32.1566 100.025 32.1634C99.22 32.1771 98.4699 32.0339 97.7744 31.7338C97.0788 31.4338 96.5163 30.9701 96.0867 30.3427C95.6571 29.7154 95.4423 28.9278 95.4423 27.9799V12.4837Z" fill="#2C3E43"/>
<path d="M109.678 32.3066C108.682 32.3066 107.782 32.1225 106.978 31.7543C106.173 31.3792 105.535 30.8371 105.065 30.1279C104.601 29.4188 104.369 28.5493 104.369 27.5197C104.369 26.6332 104.54 25.9035 104.881 25.3307C105.222 24.7579 105.682 24.3045 106.262 23.9703C106.841 23.6362 107.489 23.3839 108.205 23.2134C108.921 23.0429 109.651 22.9134 110.394 22.8247C111.335 22.7156 112.099 22.627 112.685 22.5588C113.272 22.4838 113.698 22.3645 113.964 22.2008C114.23 22.0371 114.363 21.7712 114.363 21.403V21.3314C114.363 20.4381 114.11 19.7459 113.606 19.255C113.108 18.764 112.365 18.5185 111.376 18.5185C110.346 18.5185 109.535 18.7469 108.941 19.2038C108.355 19.6539 107.949 20.1551 107.724 20.7074L104.85 20.0528C105.191 19.0981 105.689 18.3276 106.343 17.7411C107.005 17.1479 107.765 16.7183 108.624 16.4523C109.484 16.1796 110.387 16.0432 111.335 16.0432C111.962 16.0432 112.627 16.1182 113.329 16.2682C114.039 16.4114 114.7 16.6774 115.314 17.0661C115.934 17.4547 116.442 18.0105 116.838 18.7333C117.233 19.4493 117.431 20.3801 117.431 21.5257V31.9589H114.444V29.8109H114.322C114.124 30.2064 113.827 30.595 113.432 30.9769C113.036 31.3588 112.528 31.6759 111.908 31.9282C111.287 32.1805 110.544 32.3066 109.678 32.3066ZM110.343 29.8518C111.188 29.8518 111.911 29.6847 112.511 29.3506C113.118 29.0164 113.578 28.58 113.892 28.0413C114.213 27.4958 114.373 26.9128 114.373 26.2922V24.267C114.264 24.3761 114.052 24.4784 113.739 24.5738C113.432 24.6625 113.081 24.7409 112.685 24.8091C112.29 24.8705 111.904 24.9284 111.529 24.983C111.154 25.0307 110.841 25.0716 110.588 25.1057C109.995 25.1807 109.453 25.3069 108.962 25.4842C108.478 25.6615 108.089 25.9172 107.796 26.2513C107.509 26.5786 107.366 27.015 107.366 27.5606C107.366 28.3175 107.646 28.8903 108.205 29.279C108.764 29.6608 109.477 29.8518 110.343 29.8518Z" fill="#2C3E43"/>
<path d="M124.563 11.0107V31.9589H121.505V11.0107H124.563Z" fill="#2C3E43"/>
<path d="M137.563 31.5778V11.7529H149.992V14.3278H140.554V20.3682H149.344V22.9334H140.554V29.0029H150.108V31.5778H137.563Z" fill="#2C3E43"/>
<path d="M164.897 20.3392L162.274 20.8038C162.164 20.4682 161.99 20.1488 161.751 19.8455C161.519 19.5422 161.203 19.2937 160.802 19.1001C160.402 18.9065 159.902 18.8097 159.302 18.8097C158.482 18.8097 157.798 18.9936 157.25 19.3615C156.701 19.7229 156.427 20.1908 156.427 20.7651C156.427 21.262 156.611 21.6621 156.979 21.9654C157.347 22.2687 157.94 22.5172 158.76 22.7108L161.122 23.2529C162.49 23.5691 163.51 24.0563 164.181 24.7146C164.852 25.3728 165.188 26.2279 165.188 27.2798C165.188 28.1704 164.929 28.9642 164.413 29.6611C163.903 30.3516 163.19 30.8937 162.274 31.2874C161.364 31.681 160.309 31.8779 159.108 31.8779C157.443 31.8779 156.085 31.5229 155.033 30.8131C153.981 30.0967 153.336 29.0803 153.097 27.7638L155.895 27.3379C156.069 28.0671 156.427 28.6189 156.969 28.9932C157.511 29.361 158.218 29.545 159.089 29.545C160.038 29.545 160.796 29.3481 161.364 28.9545C161.932 28.5544 162.216 28.0671 162.216 27.4928C162.216 27.0281 162.042 26.6377 161.693 26.3215C161.351 26.0053 160.825 25.7665 160.115 25.6052L157.598 25.0534C156.211 24.7372 155.185 24.2338 154.52 23.5433C153.862 22.8528 153.533 21.9783 153.533 20.92C153.533 20.0423 153.778 19.2744 154.268 18.6161C154.759 17.9579 155.436 17.4448 156.301 17.077C157.166 16.7027 158.157 16.5155 159.273 16.5155C160.88 16.5155 162.145 16.864 163.068 17.561C163.99 18.2515 164.6 19.1776 164.897 20.3392Z" fill="#2C3E43"/>
<path d="M175.311 16.7091V19.0324H167.189V16.7091H175.311ZM169.367 13.1469H172.261V27.2121C172.261 27.7735 172.345 28.1962 172.513 28.4801C172.681 28.7576 172.897 28.948 173.162 29.0513C173.433 29.1481 173.726 29.1965 174.042 29.1965C174.275 29.1965 174.478 29.1803 174.652 29.1481C174.827 29.1158 174.962 29.09 175.059 29.0706L175.582 31.4616C175.414 31.5262 175.175 31.5907 174.865 31.6552C174.555 31.7262 174.168 31.7649 173.704 31.7714C172.942 31.7843 172.232 31.6488 171.574 31.3648C170.916 31.0809 170.383 30.642 169.977 30.0483C169.57 29.4546 169.367 28.7092 169.367 27.8122V13.1469Z" fill="#2C3E43"/>
<path d="M184.761 31.8779C183.296 31.8779 182.034 31.5649 180.976 30.9389C179.924 30.3065 179.111 29.4191 178.536 28.2769C177.969 27.1282 177.685 25.7826 177.685 24.2403C177.685 22.7173 177.969 21.375 178.536 20.2133C179.111 19.0517 179.911 18.145 180.937 17.4932C181.97 16.8414 183.176 16.5155 184.557 16.5155C185.396 16.5155 186.21 16.6543 186.997 16.9318C187.784 17.2093 188.491 17.6449 189.117 18.2386C189.743 18.8323 190.236 19.6035 190.598 20.5521C190.959 21.4943 191.14 22.6398 191.14 23.9886V25.0147H179.321V22.8463H188.304C188.304 22.0848 188.149 21.4104 187.839 20.8232C187.529 20.2295 187.094 19.7616 186.532 19.4196C185.977 19.0775 185.325 18.9065 184.577 18.9065C183.764 18.9065 183.054 19.1066 182.447 19.5067C181.847 19.9003 181.382 20.4166 181.053 21.0555C180.731 21.6879 180.569 22.3752 180.569 23.1174V24.8114C180.569 25.8052 180.744 26.6506 181.092 27.3476C181.447 28.0445 181.941 28.5769 182.573 28.9448C183.205 29.3062 183.944 29.4869 184.79 29.4869C185.338 29.4869 185.838 29.4094 186.29 29.2546C186.742 29.0932 187.132 28.8544 187.461 28.5382C187.791 28.222 188.042 27.8316 188.217 27.3669L190.956 27.8606C190.737 28.6673 190.343 29.3739 189.775 29.9806C189.214 30.5807 188.507 31.0486 187.655 31.3842C186.81 31.7133 185.845 31.8779 184.761 31.8779Z" fill="#2C3E43"/>
<path d="M201.292 16.7091V19.0324H193.17V16.7091H201.292ZM195.348 13.1469H198.243V27.2121C198.243 27.7735 198.327 28.1962 198.494 28.4801C198.662 28.7576 198.878 28.948 199.143 29.0513C199.414 29.1481 199.708 29.1965 200.024 29.1965C200.256 29.1965 200.459 29.1803 200.634 29.1481C200.808 29.1158 200.943 29.09 201.04 29.0706L201.563 31.4616C201.395 31.5262 201.156 31.5907 200.847 31.6552C200.537 31.7262 200.15 31.7649 199.685 31.7714C198.924 31.7843 198.214 31.6488 197.555 31.3648C196.897 31.0809 196.365 30.642 195.958 30.0483C195.552 29.4546 195.348 28.7092 195.348 27.8122V13.1469Z" fill="#2C3E43"/>
<path d="M215.265 27.0123L215.245 23.4265H215.756L221.768 17.0407H225.285L218.428 24.3107H217.966L215.265 27.0123ZM212.563 32.1307V12.0107H215.5V32.1307H212.563ZM222.092 32.1307L216.689 24.9591L218.713 22.9058L225.698 32.1307H222.092Z" fill="#2C3E43"/>
<path d="M62.3887 43L62.3848 43.0088C60.9483 46.1193 59.1056 48.8454 56.8887 50.9668L56.8857 50.9688L54.792 52.957L54.7695 52.9795L54.7451 53C47.9786 58.9081 38.6198 59.9922 30.0566 60H5.14062C4.80318 59.9999 4.09107 59.9184 3.40918 59.4951L3.40625 59.4932C2.62569 59.0048 2 58.1229 2 56.8193V41.0039H4V56.8193C4 57.1307 4.07012 57.3351 4.14746 57.4707C4.2258 57.608 4.33456 57.7144 4.46387 57.7959C4.59308 57.8761 4.73644 57.9296 4.87109 57.9619C5.00743 57.9946 5.11061 57.9999 5.14062 58H30.0547C38.5474 57.9923 47.2379 56.8892 53.415 51.5059L55.5088 49.5186C57.5094 47.6033 59.2161 45.0989 60.5684 42.1709L60.8408 41.5811L61.1084 41H62.3887V43Z" fill="#5ECAC0"/>
<defs>
<filter id="filter0_d_299_774" x="0" y="40" width="64.8916" height="24" filterUnits="userSpaceOnUse" color-interpolation-filters="sRGB">
<feFlood flood-opacity="0" result="BackgroundImageFix"/>
<feColorMatrix in="SourceAlpha" type="matrix" values="0 0 0 0 0 0 0 0 0 0 0 0 0 0 0 0 0 0 127 0" result="hardAlpha"/>
<feOffset dy="2"/>
<feGaussianBlur stdDeviation="1.5"/>
<feComposite in2="hardAlpha" operator="out"/>
<feColorMatrix type="matrix" values="0 0 0 0 0.207843 0 0 0 0 0.294118 0 0 0 0 0.313726 0 0 0 0.3 0"/>
<feBlend mode="normal" in2="BackgroundImageFix" result="effect1_dropShadow_299_774"/>
<feBlend mode="normal" in="SourceGraphic" in2="effect1_dropShadow_299_774" result="shape"/>
</filter>
</defs>
</svg>
