<svg width="258" height="75" viewBox="0 0 258 75" fill="none" xmlns="http://www.w3.org/2000/svg">
<g filter="url(#filter0_d_118_423)">
<mask id="path-1-inside-1_118_423" fill="white">
<path d="M4 15C4 8.37258 9.37258 3 16 3H242C248.627 3 254 8.37258 254 15V41C254 47.6274 248.627 53 242 53H16C9.37258 53 4 47.6274 4 41V15Z"/>
</mask>
<path d="M4 15C4 8.37258 9.37258 3 16 3H242C248.627 3 254 8.37258 254 15V41C254 47.6274 248.627 53 242 53H16C9.37258 53 4 47.6274 4 41V15Z" fill="white" shape-rendering="crispEdges"/>
<path d="M4 3H254H4ZM254 41C254 48.732 247.732 55 240 55H18C10.268 55 4 48.732 4 41C4 46.5228 9.37258 51 16 51H242C248.627 51 254 46.5228 254 41ZM4 53V3V53ZM254 3V53V3Z" fill="#5ECAC0" mask="url(#path-1-inside-1_118_423)"/>
<path fill-rule="evenodd" clip-rule="evenodd" d="M15.8301 67.1998V19.6019C15.8283 16.9346 16.0424 14.6009 16.1396 12.3743C16.7621 -2.02037 25.0002 6.16716 37.304 3.73356C38.7398 6.15645 39.3641 9.15206 40.3213 11.4108C41.2101 13.5072 42.3076 15.3163 45.0011 15.3128C48.0652 15.3092 49.107 11.9032 49.5406 9.06285C50.1829 4.84688 51.8274 4.64883 57.0002 4.18495C60.9999 3.82455 60.2096 2.66988 63.0002 5C63.0002 8.35958 64.5606 6.16716 65.9118 4.18495L67.8316 6.16716C70.4495 8.97721 73.0962 13.5286 74.5536 17.1523C78.2258 26.2747 79.3467 40.2696 75.8112 49.897C74.2819 54.0594 72.1264 57.6081 69.4401 60.1773L67.3026 62.2077C60.8164 67.8688 51.7374 68.9929 43.0381 69L17.5879 69C17.2597 69 15.8337 68.8091 15.8301 67.1998Z" fill="white"/>
<g filter="url(#filter1_d_118_423)">
<path d="M77 52H74.3738L74.1018 52.5894C72.7071 55.6096 70.9317 58.2252 68.8222 60.2438L66.7282 62.2316L66.7204 62.2393L66.7126 62.247C60.2403 67.8983 51.2117 68.9923 42.6803 69H17.7661C17.5524 69 17.0396 68.9422 16.5618 68.6456C16.0567 68.3297 15.6255 67.7596 15.6255 66.8196V52.4199V52.0039H15" stroke="#5ECAC0" stroke-width="2" stroke-miterlimit="22.9256" shape-rendering="crispEdges"/>
</g>
<path d="M225.166 23.2158C225.166 23.6886 225.074 24.0078 224.896 24.177C224.718 24.3463 224.391 24.4341 223.909 24.4341C223.436 24.4341 223.112 24.3501 222.939 24.186C222.766 24.0207 222.678 23.7054 222.678 23.2403C222.678 22.7674 222.769 22.4483 222.948 22.2791C223.126 22.1098 223.453 22.022 223.934 22.022C224.406 22.022 224.729 22.1047 224.904 22.27C225.078 22.4354 225.165 22.7507 225.165 23.2158H225.166Z" fill="#5ECAC0"/>
<path d="M225.306 41.2583C225.306 41.3487 225.284 41.4211 225.239 41.4831C225.194 41.5399 225.126 41.5955 225.026 41.6407C224.925 41.6795 224.789 41.7143 224.61 41.7363C224.435 41.7583 224.21 41.7699 223.935 41.7699C223.665 41.7699 223.447 41.7583 223.272 41.7363C223.093 41.7143 222.952 41.6807 222.851 41.6407C222.744 41.5955 222.672 41.5399 222.632 41.4831C222.593 41.4211 222.575 41.3487 222.575 41.2583V26.4366C222.575 26.3578 222.591 26.2854 222.632 26.2234C222.67 26.1562 222.744 26.0994 222.851 26.0555C222.952 26.0167 223.093 25.9818 223.272 25.9599C223.447 25.9379 223.665 25.9263 223.935 25.9263C224.21 25.9263 224.435 25.9379 224.61 25.9599C224.789 25.9818 224.925 26.0154 225.026 26.0555C225.126 26.1007 225.194 26.1562 225.239 26.2234C225.284 26.2854 225.306 26.3578 225.306 26.4366V41.2583Z" fill="#5ECAC0"/>
<path fill-rule="evenodd" clip-rule="evenodd" d="M223.883 10.062C226.744 10.062 229.062 12.4018 229.062 15.2894C229.062 18.1757 226.744 20.5168 223.883 20.5168C221.023 20.5168 218.705 18.177 218.705 15.2894C218.705 12.4031 221.023 10.062 223.883 10.062Z" fill="white"/>
<path d="M229.383 15.2894H228.74L228.734 15.0207L228.714 14.7558L228.682 14.4948L228.637 14.2377L228.579 13.9858L228.509 13.739L228.427 13.4974L228.334 13.261L228.231 13.0297L228.117 12.8049L227.993 12.5866L227.859 12.376L227.715 12.1718L227.562 11.9754L227.4 11.7868L227.23 11.6059L227.051 11.4341L226.865 11.2713L226.672 11.1176L226.47 10.9729L226.263 10.8385L226.05 10.7145L225.83 10.6008L225.607 10.4987L225.38 10.4083L225.15 10.3295L224.92 10.2636L224.692 10.2106L224.471 10.1705L224.262 10.1434L224.068 10.1279L223.885 10.1227V10L224.235 10.009L224.567 10.0349L224.876 10.0749L225.165 10.1266L225.439 10.1899L225.7 10.2649L225.952 10.3501L226.195 10.447L226.43 10.5543L226.657 10.6718L226.877 10.7997L227.09 10.9367L227.296 11.084L227.493 11.2403L227.682 11.4057L227.863 11.5801L228.035 11.7623L228.199 11.9535L228.354 12.1512L228.498 12.3566L228.634 12.5698L228.759 12.7894L228.874 13.0155L228.979 13.2481L229.072 13.4858L229.153 13.7287L229.223 13.9767L229.281 14.23L229.327 14.4884L229.36 14.7506L229.38 15.0168L229.386 15.2868L229.383 15.2894ZM223.883 20.5775V20.4548L224.067 20.4496L224.261 20.4341L224.47 20.4069L224.691 20.3669L224.918 20.3139L225.148 20.248L225.378 20.1692L225.606 20.0788L225.829 19.9767L226.049 19.863L226.262 19.739L226.469 19.6046L226.67 19.4599L226.864 19.3062L227.05 19.1434L227.228 18.9716L227.399 18.7907L227.56 18.602L227.714 18.4057L227.858 18.2015L227.992 17.9909L228.116 17.7726L228.23 17.5478L228.333 17.3165L228.426 17.0801L228.507 16.8385L228.577 16.5917L228.635 16.3398L228.681 16.0827L228.713 15.8217L228.732 15.5568L228.739 15.2881H229.382L229.376 15.5581L229.356 15.8243L229.323 16.0865L229.277 16.3449L229.219 16.5982L229.15 16.8462L229.068 17.0891L228.975 17.3269L228.871 17.5594L228.756 17.7855L228.63 18.0051L228.495 18.2183L228.35 18.4237L228.195 18.6214L228.031 18.8126L227.859 18.9948L227.678 19.1692L227.489 19.3346L227.292 19.4909L227.086 19.6382L226.873 19.7752L226.653 19.9031L226.426 20.0206L226.191 20.1279L225.948 20.2248L225.696 20.31L225.435 20.385L225.161 20.4483L224.872 20.5L224.563 20.54L224.231 20.5659L223.881 20.5749L223.883 20.5775ZM218.383 15.2894H219.027L219.033 15.5581L219.053 15.823L219.085 16.084L219.13 16.3411L219.188 16.593L219.258 16.8398L219.34 17.0814L219.433 17.3178L219.536 17.5491L219.65 17.7739L219.774 17.9922L219.908 18.2028L220.051 18.407L220.205 18.6033L220.367 18.792L220.537 18.9728L220.715 19.1447L220.902 19.3075L221.095 19.4612L221.297 19.6059L221.504 19.7403L221.717 19.8643L221.936 19.978L222.16 20.0801L222.387 20.1705L222.617 20.2493L222.847 20.3152L223.075 20.3682L223.296 20.4082L223.505 20.4354L223.699 20.4509L223.882 20.456V20.5788L223.532 20.5697L223.2 20.5439L222.891 20.5038L222.602 20.4522L222.328 20.3889L222.067 20.3139L221.815 20.2287L221.572 20.1318L221.337 20.0245L221.11 19.9069L220.89 19.779L220.677 19.6421L220.471 19.4948L220.274 19.3385L220.085 19.1731L219.904 18.9987L219.732 18.8165L219.568 18.6253L219.413 18.4276L219.268 18.2222L219.133 18.009L219.007 17.7894L218.892 17.5633L218.788 17.3307L218.695 17.093L218.613 16.8501L218.544 16.602L218.486 16.3488L218.44 16.0904L218.407 15.8281L218.387 15.562L218.381 15.292L218.383 15.2894ZM223.883 10.0013V10.124L223.7 10.1292L223.506 10.1447L223.297 10.1718L223.076 10.2119L222.849 10.2649L222.619 10.3307L222.389 10.4096L222.161 10.5L221.938 10.6021L221.718 10.7158L221.505 10.8398L221.298 10.9742L221.097 11.1189L220.903 11.2726L220.717 11.4354L220.538 11.6072L220.368 11.7881L220.206 11.9767L220.053 12.1731L219.909 12.3773L219.775 12.5878L219.651 12.8062L219.537 13.031L219.434 13.2623L219.341 13.4987L219.259 13.7403L219.19 13.9871L219.132 14.239L219.086 14.4961L219.054 14.7571L219.035 15.0219L219.028 15.2907H218.385L218.391 15.0207L218.411 14.7545L218.444 14.4922L218.489 14.2338L218.548 13.9806L218.617 13.7325L218.699 13.4897L218.792 13.2519L218.896 13.0194L219.011 12.7933L219.137 12.5736L219.272 12.3605L219.417 12.155L219.572 11.9574L219.736 11.7661L219.908 11.584L220.089 11.4096L220.278 11.2442L220.475 11.0879L220.681 10.9406L220.894 10.8036L221.113 10.6757L221.341 10.5581L221.576 10.4509L221.819 10.354L222.071 10.2687L222.332 10.1938L222.606 10.1305L222.895 10.0788L223.204 10.0388L223.536 10.0129L223.886 10.0039L223.883 10.0013Z" fill="#2C3E43"/>
<path d="M223.883 18.9084C225.863 18.9084 227.468 17.2881 227.468 15.2895C227.468 13.2909 225.863 11.6707 223.883 11.6707C221.903 11.6707 220.298 13.2909 220.298 15.2895C220.298 17.2881 221.903 18.9084 223.883 18.9084Z" fill="#5ECAC0"/>
<path fill-rule="evenodd" clip-rule="evenodd" d="M223.883 12.3501C225.033 12.3501 226.027 13.0232 226.501 14C225.97 13.2816 225.121 12.8152 224.165 12.8152C222.556 12.8152 221.253 14.1305 221.253 15.7545C221.253 16.217 221.359 16.6537 221.547 17.0439C221.186 16.5542 220.971 15.947 220.971 15.2894C220.971 13.6666 222.275 12.3501 223.883 12.3501Z" fill="white"/>
<path fill-rule="evenodd" clip-rule="evenodd" d="M23.9292 12.3036V46.7712C23.9279 48.7027 24.0817 50.3927 24.1514 52.0051C24.5985 62.4288 34.3568 66.7621 39.3491 58.2621C40.3801 56.5076 40.8284 54.3384 41.5157 52.7027C42.154 51.1846 42.9421 49.8746 44.8762 49.8771C47.0764 49.8797 47.8245 52.3461 48.1359 54.403C48.5971 57.4559 48.4834 61.6691 52.1979 62.005C55.0699 62.266 56.9175 60.62 58.9214 58.9327C59.2327 58.6704 59.6177 58.2208 59.8916 57.9353L61.2702 56.4999C63.15 54.465 65.0505 51.1691 66.0971 48.5451C68.734 41.9392 69.5389 31.8049 67.0001 24.8333C65.902 21.8191 64.3542 19.2493 62.4252 17.3889L60.8903 15.9186C56.2327 11.8191 49.7134 11.0052 43.4666 11L25.1915 11C24.9558 11 23.9318 11.1382 23.9292 12.3036ZM27.7447 15.6796C27.7447 16.1051 27.9561 34.0037 27.9548 43.3991C27.9548 46.5683 27.7276 51.9844 28.9111 55.4702C30.3375 59.6743 34.7793 60.0231 36.4395 55.5787C37.5984 52.4753 38.61 48.1885 41.9175 46.5374C46.4847 44.2583 50.6811 47.8797 51.5777 52.6536C51.8309 53.9973 52.0015 56.4663 52.4097 57.5464C53.3607 60.0619 58.1694 54.2596 58.6009 53.7311C60.3361 51.6058 61.619 49.3371 62.6681 46.4366C64.6151 41.0503 65.1242 32.2816 63.2973 26.5658C61.5609 21.1343 57.2948 17.115 51.4278 15.7067C46.5726 14.5413 29.0212 15.0413 28.5957 15.0413C28.1702 15.0413 27.7447 15.254 27.7447 15.6796Z" fill="#2C3E43"/>
<path d="M83.4771 42.2759C81.9292 42.2759 80.596 41.9452 79.4777 41.2838C78.3662 40.6155 77.507 39.6779 76.9001 38.4709C76.3 37.2571 76 35.8353 76 34.2056C76 32.5963 76.3 31.1779 76.9001 29.9505C77.507 28.7231 78.3526 27.765 79.4368 27.0763C80.5278 26.3876 81.803 26.0432 83.2623 26.0432C84.1488 26.0432 85.008 26.1898 85.8399 26.483C86.6718 26.7762 87.4185 27.2365 88.0799 27.8639C88.7414 28.4912 89.263 29.3061 89.6449 30.3085C90.0268 31.3041 90.2177 32.5145 90.2177 33.9397V35.0239H77.7286V32.7327H87.2207C87.2207 31.928 87.0571 31.2154 86.7298 30.5949C86.4025 29.9676 85.9422 29.4732 85.3489 29.1118C84.7625 28.7504 84.0738 28.5697 83.2827 28.5697C82.4235 28.5697 81.6734 28.781 81.0325 29.2038C80.3983 29.6198 79.9073 30.1653 79.5595 30.8404C79.2186 31.5087 79.0481 32.2349 79.0481 33.0191V34.8091C79.0481 35.8592 79.2322 36.7525 79.6005 37.489C79.9755 38.2254 80.4972 38.788 81.1654 39.1767C81.8337 39.5585 82.6145 39.7495 83.5078 39.7495C84.0874 39.7495 84.6159 39.6677 85.0932 39.504C85.5705 39.3335 85.9831 39.0812 86.3309 38.7471C86.6786 38.4129 86.9446 38.0004 87.1287 37.5094L90.0234 38.0311C89.7915 38.8835 89.3756 39.6301 88.7755 40.2711C88.1822 40.9053 87.4355 41.3997 86.5354 41.7543C85.6421 42.1021 84.6227 42.2759 83.4771 42.2759Z" fill="#2C3E43"/>
<path d="M96.6694 32.6304V41.9589H93.611V26.2478H96.5466V28.8049H96.741C97.1024 27.973 97.6684 27.3047 98.4389 26.8001C99.2163 26.2955 100.195 26.0432 101.375 26.0432C102.445 26.0432 103.383 26.2682 104.187 26.7183C104.992 27.1615 105.616 27.823 106.059 28.7026C106.502 29.5823 106.724 30.6699 106.724 31.9655V41.9589H103.666V32.3338C103.666 31.195 103.369 30.3051 102.776 29.6641C102.183 29.0163 101.368 28.6924 100.331 28.6924C99.622 28.6924 98.9913 28.8458 98.4389 29.1527C97.8934 29.4595 97.4604 29.9096 97.1399 30.5029C96.8262 31.0893 96.6694 31.7985 96.6694 32.6304Z" fill="#2C3E43"/>
<path d="M118.16 26.2478V28.7026H109.578V26.2478H118.16ZM111.879 22.4837H114.938V37.3458C114.938 37.939 115.026 38.3857 115.204 38.6857C115.381 38.9789 115.609 39.1801 115.889 39.2892C116.175 39.3915 116.486 39.4426 116.82 39.4426C117.065 39.4426 117.28 39.4256 117.464 39.3915C117.648 39.3574 117.791 39.3301 117.894 39.3097L118.446 41.8361C118.269 41.9043 118.016 41.9725 117.689 42.0407C117.362 42.1157 116.953 42.1566 116.462 42.1634C115.657 42.1771 114.907 42.0339 114.211 41.7338C113.516 41.4338 112.953 40.9701 112.524 40.3427C112.094 39.7154 111.879 38.9278 111.879 37.9799V22.4837Z" fill="#2C3E43"/>
<path d="M126.115 42.3066C125.119 42.3066 124.219 42.1225 123.415 41.7543C122.61 41.3792 121.972 40.8371 121.502 40.1279C121.038 39.4188 120.806 38.5493 120.806 37.5197C120.806 36.6332 120.977 35.9035 121.318 35.3307C121.659 34.7579 122.119 34.3045 122.699 33.9703C123.278 33.6362 123.926 33.3839 124.642 33.2134C125.358 33.0429 126.088 32.9134 126.831 32.8247C127.772 32.7156 128.536 32.627 129.122 32.5588C129.709 32.4838 130.135 32.3645 130.401 32.2008C130.667 32.0371 130.8 31.7712 130.8 31.403V31.3314C130.8 30.4381 130.547 29.7459 130.043 29.255C129.545 28.764 128.802 28.5185 127.813 28.5185C126.783 28.5185 125.972 28.7469 125.378 29.2038C124.792 29.6539 124.386 30.1551 124.161 30.7074L121.287 30.0528C121.628 29.0981 122.126 28.3276 122.78 27.7411C123.442 27.1479 124.202 26.7183 125.061 26.4523C125.921 26.1796 126.824 26.0432 127.772 26.0432C128.399 26.0432 129.064 26.1182 129.766 26.2682C130.476 26.4114 131.137 26.6774 131.751 27.0661C132.371 27.4547 132.879 28.0105 133.275 28.7333C133.67 29.4493 133.868 30.3801 133.868 31.5257V41.9589H130.881V39.8109H130.759C130.561 40.2064 130.264 40.595 129.869 40.9769C129.473 41.3588 128.965 41.6759 128.345 41.9282C127.724 42.1805 126.981 42.3066 126.115 42.3066ZM126.78 39.8518C127.625 39.8518 128.348 39.6847 128.948 39.3506C129.555 39.0164 130.015 38.58 130.329 38.0413C130.65 37.4958 130.81 36.9128 130.81 36.2922V34.267C130.701 34.3761 130.489 34.4784 130.176 34.5738C129.869 34.6625 129.518 34.7409 129.122 34.8091C128.727 34.8705 128.341 34.9284 127.966 34.983C127.591 35.0307 127.278 35.0716 127.025 35.1057C126.432 35.1807 125.89 35.3069 125.399 35.4842C124.915 35.6615 124.526 35.9172 124.233 36.2513C123.946 36.5786 123.803 37.015 123.803 37.5606C123.803 38.3175 124.083 38.8903 124.642 39.279C125.201 39.6608 125.914 39.8518 126.78 39.8518Z" fill="#2C3E43"/>
<path d="M141 21.0107V41.9589H137.942V21.0107H141Z" fill="#2C3E43"/>
<path d="M154 41.5778V21.7529H166.429V24.3278H156.991V30.3682H165.781V32.9334H156.991V39.0029H166.545V41.5778H154Z" fill="#2C3E43"/>
<path d="M181.334 30.3392L178.711 30.8038C178.601 30.4682 178.427 30.1488 178.188 29.8455C177.956 29.5422 177.64 29.2937 177.24 29.1001C176.839 28.9065 176.339 28.8097 175.739 28.8097C174.92 28.8097 174.235 28.9936 173.687 29.3615C173.138 29.7229 172.864 30.1908 172.864 30.7651C172.864 31.262 173.048 31.6621 173.416 31.9654C173.784 32.2687 174.377 32.5172 175.197 32.7108L177.559 33.2529C178.927 33.5691 179.947 34.0563 180.618 34.7146C181.289 35.3728 181.625 36.2279 181.625 37.2798C181.625 38.1704 181.366 38.9642 180.85 39.6611C180.34 40.3516 179.627 40.8937 178.711 41.2874C177.801 41.681 176.746 41.8779 175.545 41.8779C173.881 41.8779 172.522 41.5229 171.47 40.8131C170.418 40.0967 169.773 39.0803 169.534 37.7638L172.332 37.3379C172.506 38.0671 172.864 38.6189 173.406 38.9932C173.948 39.361 174.655 39.545 175.526 39.545C176.475 39.545 177.233 39.3481 177.801 38.9545C178.369 38.5544 178.653 38.0671 178.653 37.4928C178.653 37.0281 178.479 36.6377 178.13 36.3215C177.788 36.0053 177.262 35.7665 176.552 35.6052L174.035 35.0534C172.648 34.7372 171.622 34.2338 170.957 33.5433C170.299 32.8528 169.97 31.9783 169.97 30.92C169.97 30.0423 170.215 29.2744 170.705 28.6161C171.196 27.9579 171.874 27.4448 172.738 27.077C173.603 26.7027 174.594 26.5155 175.71 26.5155C177.317 26.5155 178.582 26.864 179.505 27.561C180.427 28.2515 181.037 29.1776 181.334 30.3392Z" fill="#2C3E43"/>
<path d="M191.748 26.7091V29.0324H183.626V26.7091H191.748ZM185.804 23.1469H188.698V37.2121C188.698 37.7735 188.782 38.1962 188.95 38.4801C189.118 38.7576 189.334 38.948 189.599 39.0513C189.87 39.1481 190.163 39.1965 190.479 39.1965C190.712 39.1965 190.915 39.1803 191.089 39.1481C191.264 39.1158 191.399 39.09 191.496 39.0706L192.019 41.4616C191.851 41.5262 191.612 41.5907 191.302 41.6552C190.993 41.7262 190.605 41.7649 190.141 41.7714C189.379 41.7843 188.669 41.6488 188.011 41.3648C187.353 41.0809 186.82 40.642 186.414 40.0483C186.007 39.4546 185.804 38.7092 185.804 37.8122V23.1469Z" fill="#2C3E43"/>
<path d="M201.198 41.8779C199.733 41.8779 198.471 41.5649 197.413 40.9389C196.361 40.3065 195.548 39.4191 194.973 38.2769C194.406 37.1282 194.122 35.7826 194.122 34.2403C194.122 32.7173 194.406 31.375 194.973 30.2133C195.548 29.0517 196.348 28.145 197.374 27.4932C198.407 26.8414 199.613 26.5155 200.994 26.5155C201.833 26.5155 202.647 26.6543 203.434 26.9318C204.221 27.2093 204.928 27.6449 205.554 28.2386C206.18 28.8323 206.673 29.6035 207.035 30.5521C207.396 31.4943 207.577 32.6398 207.577 33.9886V35.0147H195.758V32.8463H204.741C204.741 32.0848 204.586 31.4104 204.276 30.8232C203.966 30.2295 203.531 29.7616 202.969 29.4196C202.414 29.0775 201.762 28.9065 201.014 28.9065C200.201 28.9065 199.491 29.1066 198.884 29.5067C198.284 29.9003 197.819 30.4166 197.49 31.0555C197.168 31.6879 197.006 32.3752 197.006 33.1174V34.8114C197.006 35.8052 197.181 36.6506 197.529 37.3476C197.884 38.0445 198.378 38.5769 199.01 38.9448C199.642 39.3062 200.381 39.4869 201.227 39.4869C201.775 39.4869 202.275 39.4094 202.727 39.2546C203.179 39.0932 203.569 38.8544 203.899 38.5382C204.228 38.222 204.479 37.8316 204.654 37.3669L207.393 37.8606C207.174 38.6673 206.78 39.3739 206.212 39.9806C205.651 40.5807 204.944 41.0486 204.092 41.3842C203.247 41.7133 202.282 41.8779 201.198 41.8779Z" fill="#2C3E43"/>
<path d="M217.729 26.7091V29.0324H209.607V26.7091H217.729ZM211.785 23.1469H214.68V37.2121C214.68 37.7735 214.764 38.1962 214.931 38.4801C215.099 38.7576 215.315 38.948 215.58 39.0513C215.851 39.1481 216.145 39.1965 216.461 39.1965C216.693 39.1965 216.896 39.1803 217.071 39.1481C217.245 39.1158 217.38 39.09 217.477 39.0706L218 41.4616C217.832 41.5262 217.593 41.5907 217.284 41.6552C216.974 41.7262 216.587 41.7649 216.122 41.7714C215.361 41.7843 214.651 41.6488 213.992 41.3648C213.334 41.0809 212.802 40.642 212.395 40.0483C211.989 39.4546 211.785 38.7092 211.785 37.8122V23.1469Z" fill="#2C3E43"/>
<path d="M231.702 37.0123L231.682 33.4265H232.193L238.205 27.0407H241.722L234.865 34.3107H234.403L231.702 37.0123ZM229 42.1307V22.0107H231.937V42.1307H229ZM238.529 42.1307L233.126 34.9591L235.15 32.9058L242.135 42.1307H238.529Z" fill="#2C3E43"/>
</g>
<defs>
<filter id="filter0_d_118_423" x="0" y="0" width="258" height="75" filterUnits="userSpaceOnUse" color-interpolation-filters="sRGB">
<feFlood flood-opacity="0" result="BackgroundImageFix"/>
<feColorMatrix in="SourceAlpha" type="matrix" values="0 0 0 0 0 0 0 0 0 0 0 0 0 0 0 0 0 0 127 0" result="hardAlpha"/>
<feOffset dy="1"/>
<feGaussianBlur stdDeviation="2"/>
<feComposite in2="hardAlpha" operator="out"/>
<feColorMatrix type="matrix" values="0 0 0 0 0.207843 0 0 0 0 0.294118 0 0 0 0 0.313726 0 0 0 0.4 0"/>
<feBlend mode="normal" in2="BackgroundImageFix" result="effect1_dropShadow_118_423"/>
<feBlend mode="normal" in="SourceGraphic" in2="effect1_dropShadow_118_423" result="shape"/>
</filter>
<filter id="filter1_d_118_423" x="10.6255" y="48" width="70.3745" height="27" filterUnits="userSpaceOnUse" color-interpolation-filters="sRGB">
<feFlood flood-opacity="0" result="BackgroundImageFix"/>
<feColorMatrix in="SourceAlpha" type="matrix" values="0 0 0 0 0 0 0 0 0 0 0 0 0 0 0 0 0 0 127 0" result="hardAlpha"/>
<feOffset dy="1"/>
<feGaussianBlur stdDeviation="2"/>
<feComposite in2="hardAlpha" operator="out"/>
<feColorMatrix type="matrix" values="0 0 0 0 0.207843 0 0 0 0 0.294118 0 0 0 0 0.313726 0 0 0 0.4 0"/>
<feBlend mode="normal" in2="BackgroundImageFix" result="effect1_dropShadow_118_423"/>
<feBlend mode="normal" in="SourceGraphic" in2="effect1_dropShadow_118_423" result="shape"/>
</filter>
</defs>
</svg>
