<?xml version="1.0" encoding="UTF-8"?>
<!DOCTYPE svg PUBLIC "-//W3C//DTD SVG 1.1//EN" "http://www.w3.org/Graphics/SVG/1.1/DTD/svg11.dtd">
<!-- Creator: CorelDRAW 2017 -->
<svg xmlns="http://www.w3.org/2000/svg" xml:space="preserve" width="409.466mm" height="84.335mm" version="1.1" style="shape-rendering:geometricPrecision; text-rendering:geometricPrecision; image-rendering:optimizeQuality; fill-rule:evenodd; clip-rule:evenodd"
viewBox="0 0 14169.17 2918.33"
 xmlns:xlink="http://www.w3.org/1999/xlink">
 <defs>
  <style type="text/css">
   <![CDATA[
    .fil0 {fill:#6D2F82;fill-rule:nonzero}
   ]]>
  </style>
 </defs>
 <g id="Layer_x0020_1">
  <metadata id="CorelCorpID_0Corel-Layer"/>
  <g id="_1761112410624">
   <polygon class="fil0" points="4141.89,333.02 2313.33,333.02 2313.33,896.28 3178.23,896.28 2543.69,2022.79 2226.29,2586.04 4059.62,2586.04 4059.62,2022.79 3190.07,2022.79 3824.62,896.28 "/>
   <g>
    <path class="fil0" d="M5601.06 333.02l-1297.42 0 0 2253.02 563.26 0 0 -607.33 734.16 0c454.49,0 822.91,-368.42 822.91,-822.91 0,-454.49 -368.42,-822.91 -822.91,-822.91l0 0.12zm259.53 822.79c0,143.44 -116.21,259.65 -259.65,259.65l-734.16 0 0 -519.31 734.16 0c143.44,0 259.65,116.21 259.65,259.65z"/>
   </g>
   <path class="fil0" d="M2279.39 1463.93c0,-629.42 -510.27,-1139.69 -1139.69,-1139.69 -629.42,0 -1139.69,510.27 -1139.69,1139.69 0,629.42 510.27,1139.69 1139.69,1139.69 629.42,0 1139.69,-510.27 1139.69,-1139.69zm-563.25 0c0,318.37 -258.07,576.44 -576.44,576.44 -318.37,0 -576.44,-258.07 -576.44,-576.44 0,-318.37 258.07,-576.44 576.44,-576.44 318.37,0 576.44,258.07 576.44,576.44z"/>
   <polygon class="fil0" points="7542.67,1072.92 7059.74,1072.92 7540.96,446.55 7541.08,364.76 6955.98,364.76 6955.98,448.87 7430.85,448.99 6949.02,1076.58 6951.1,1158.86 7542.67,1158.86 "/>
   <g>
    <path class="fil0" d="M8050.63 1178.27c145.88,0 254.41,-68.12 312.75,-179.94l3.18 160.41 93.99 0 0 -1158.74 -97.17 0 0 525.05c-60.06,-110.23 -168.58,-179.94 -312.75,-179.94 -233.41,0 -393.81,179.94 -393.81,416.52 0,236.58 160.41,416.52 393.81,416.52l0 0.12zm11.35 -740.51c178.23,0 303.11,132.82 303.11,327.41 0,194.59 -124.76,320.94 -303.11,320.94 -178.35,0 -311.17,-129.64 -311.17,-324.11 0,-194.47 129.64,-324.11 311.17,-324.11l0 -0.12z"/>
   </g>
   <path class="fil0" d="M8802.13 656.52c0,-84.35 35.65,-220.47 184.7,-220.47 39.67,0 56.64,8.18 56.64,8.18l29.3 -77.4c0,0 -32.35,-21.49 -87.65,-21.49 -98.88,0 -153.94,58.35 -184.7,131.23l-3.3 -111.82 -92.41 0 0 794.1 97.29 0 0 -502.34 0.12 0z"/>
   <path class="fil0" d="M9872.85 998.45l3.3 160.41 93.99 0 0 -794.1 -93.99 0 -3.3 163.7c-58.35,-110.23 -166.88,-183.11 -312.76,-183.11 -233.28,0 -393.81,179.94 -393.81,416.52 0,236.58 160.41,416.52 393.81,416.52 145.88,0 254.53,-68.12 312.76,-179.94zm-301.53 87.53c-181.4,0 -311.17,-129.64 -311.17,-324.11 0,-194.47 129.64,-324.11 311.17,-324.11 181.53,0 303.11,132.82 303.11,327.41 0,194.59 -124.76,320.94 -303.11,320.94l0 -0.12z"/>
   <path class="fil0" d="M14075.17 1802.2l-3.29 163.7c-58.35,-110.23 -166.88,-183.11 -312.76,-183.11 -233.29,0 -393.81,179.82 -393.81,416.52 0,236.71 160.41,416.52 393.81,416.52 145.88,0 254.53,-68.12 312.76,-179.94l3.29 160.41 94 0 0 -794.1 -94 0zm-304.7 721.22c-181.4,0 -311.17,-129.64 -311.17,-324.11 0,-194.46 129.64,-324.11 311.17,-324.11 181.53,0 303.11,132.94 303.11,327.41 0,194.46 -124.76,320.94 -303.11,320.94l0 -0.12z"/>
   <polygon class="fil0" points="10555,1158.86 10869.23,364.76 10768.27,364.76 10504.71,1051.92 10242.25,364.76 10137.99,364.76 10454.17,1158.86 "/>
   <path class="fil0" d="M11372.79 345.35c-230.11,0 -405.17,179.94 -405.17,416.52 0,236.58 175.05,416.52 405.17,416.52 230.11,0 403.46,-179.94 403.46,-416.52 0,-236.58 -173.35,-416.52 -403.46,-416.52zm0 740.63c-178.23,0 -309.58,-134.53 -309.58,-324.11 0,-189.58 131.23,-325.82 309.58,-325.82 178.35,0 309.59,136.12 309.59,325.82 0,189.71 -132.82,324.11 -309.59,324.11z"/>
   <path class="fil0" d="M12553.38 672.63c0,-145.88 105.35,-236.58 243.05,-236.58 137.7,0 217.17,90.83 217.17,236.58l0 486.11 97.3 0 0 -490.99c0,-210.7 -116.71,-322.52 -290.05,-322.52 -134.53,0 -222.06,66.41 -267.35,147.47l-4.88 -128.06 -92.41 0 0 794.1 97.29 0 0 -486.11 -0.12 0z"/>
   <path class="fil0" d="M12914.97 1780.59c-134.53,0 -222.06,66.41 -267.35,147.47l-4.88 -128.06 -92.41 0 0 794.1 97.29 0 0 -486.23c0,-145.88 105.35,-236.58 243.05,-236.58 137.7,0 217.17,90.83 217.17,236.58l0 486.23 97.3 0 0 -491.11c0,-210.7 -116.71,-322.52 -290.05,-322.52l-0.12 0.12z"/>
   <polygon class="fil0" points="13432.32,24.41 13319.77,256.11 13414.01,256.11 13527.91,24.41 "/>
   <polygon class="fil0" points="13319.04,364.76 13416.33,364.76 13416.33,1158.86 13319.04,1158.86 "/>
   <path class="fil0" d="M8354.11 1780.59c-230.11,0 -405.17,179.94 -405.17,416.52 0,236.58 175.06,416.52 405.17,416.52 230.11,0 403.46,-179.94 403.46,-416.52 0,-236.58 -173.35,-416.52 -403.46,-416.52zm0 740.51c-178.23,0 -309.58,-134.53 -309.58,-324.11 0,-189.58 131.23,-325.82 309.58,-325.82 178.35,0 309.59,136.11 309.59,325.82 0,189.71 -132.82,324.11 -309.59,324.11z"/>
   <path class="fil0" d="M8965.34 2692.98c0,76.17 -17.82,134.53 -111.82,134.53 -38.94,0 -71.17,-10.13 -71.17,-10.13l0 85.45c0,0 38.09,15.5 84.11,15.5 131.35,0 196.05,-73 196.05,-201.06l0 -917.27 -97.17 0 0 892.98z"/>
   <path class="fil0" d="M9015.51 1453.19c-35.65,0 -64.82,29.17 -64.82,64.82 0,35.65 29.17,64.82 64.82,64.82 35.65,0 61.53,-29.18 61.53,-64.82 0,-35.65 -27.47,-64.82 -61.53,-64.82z"/>
   <path class="fil0" d="M9355.61 1453.19c-35.65,0 -64.82,29.17 -64.82,64.82 0,35.65 29.17,64.82 64.82,64.82 35.65,0 63.24,-29.18 63.24,-64.82 0,-35.65 -27.59,-64.82 -63.24,-64.82z"/>
   <polygon class="fil0" points="9307.03,1800 9402.61,1800 9402.61,2594.1 9307.03,2594.1 "/>
   <path class="fil0" d="M9944.26 2163.05l-72.88 -30.76c-87.53,-35.65 -145.88,-64.82 -145.88,-147.47 0,-82.64 71.29,-119.88 145.88,-119.88 61.53,0 114.99,24.29 165.29,79.47l58.35 -56.76c-55.06,-69.7 -137.7,-106.94 -226.82,-106.94 -128.06,0 -236.58,79.35 -236.58,207.41 0,114.99 84.35,171.76 179.94,212.29l92.41 38.94c77.76,32.47 132.82,69.71 132.82,150.77 0,90.82 -71.29,136.11 -171.76,136.11 -90.82,0 -150.76,-40.53 -197.76,-92.41l-51.88 63.24c0,0 123.17,116.7 251.23,116.7 141,0 265.76,-79.35 265.76,-225.23 0,-123.17 -84.35,-183.11 -188,-225.23l-0.12 -0.24z"/>
   <polygon class="fil0" points="9740.03,1459.78 9641.39,1459.9 9809.37,1660.59 9909.23,1660.59 10075.13,1459.65 9977.34,1459.65 9859.91,1605.53 "/>
   <path class="fil0" d="M11221.54 1780.59c-230.11,0 -405.17,179.94 -405.17,416.52 0,236.58 175.05,416.52 405.17,416.52 230.11,0 403.46,-179.94 403.46,-416.52 0,-236.58 -173.35,-416.52 -403.46,-416.52zm0 740.51c-178.23,0 -309.59,-134.53 -309.59,-324.11 0,-189.58 131.23,-325.82 309.59,-325.82 178.35,0 309.58,136.11 309.58,325.82 0,189.71 -132.82,324.11 -309.58,324.11z"/>
   <path class="fil0" d="M12013.32 1006.51c0,106.94 50.29,162.12 155.65,162.12 29.3,0 80.33,-9.64 99,-21.12l-27.22 -76.66c0,0 -20.02,10.37 -57.25,10.37 -50.17,0 -73,-22.71 -73,-89.12l0 -544.46 158.82 0 0 -82.64 -158.82 0 0 -210.7 -97.3 0 0 210.7 -126.35 0 0 82.64 126.35 0 0 559.11 0.12 -0.25z"/>
   <path class="fil0" d="M7395.2 1778.15c-145.88,0 -254.41,72.88 -314.34,183.11l-3.3 -163.7 -92.41 0 0 1102.1 97.3 0 0 -465.11c58.35,108.53 166.87,176.64 312.75,176.64 233.41,0 393.81,-178.23 393.81,-416.52 0,-238.29 -160.41,-416.52 -393.81,-416.52zm-11.35 740.63c-178.23,0 -302.99,-128.06 -302.99,-320.94 0,-192.88 124.76,-327.41 302.99,-327.41 178.23,0 309.59,131.23 309.59,324.11 0,192.88 -129.64,324.11 -309.59,324.11l0 0.12z"/>
   <path class="fil0" d="M10521.8 1589.06l-97.3 0 0 210.7 -126.35 0 0 82.64 126.35 0 0 559.1c0,106.94 50.3,162.12 155.52,162.12 29.3,0 80.45,-9.64 99.13,-21.12l-27.22 -76.66c0,0 -20.02,10.37 -57.26,10.37 -50.17,0 -72.88,-22.7 -72.88,-89.11l0 -544.46 158.82 0 0 -82.64 -158.82 0 0 -210.7 0 -0.24z"/>
   <polygon class="fil0" points="10587.23,1735.3 10681.35,1735.3 10795.25,1503.48 10699.66,1503.48 "/>
   <polygon class="fil0" points="12046.76,2487.16 11784.3,1800 11680.05,1800 11996.35,2594.1 12097.06,2594.1 12411.4,1800 12310.45,1800 "/>
  </g>
 </g>
</svg>
