<?xml version="1.0" encoding="utf-8"?>
<!-- Generator: Adobe Illustrator 25.1.0, SVG Export Plug-In . SVG Version: 6.00 Build 0)  -->
<svg version="1.1" id="Vrstva_1" xmlns="http://www.w3.org/2000/svg" xmlns:xlink="http://www.w3.org/1999/xlink" x="0px" y="0px"
	 viewBox="0 0 200.21 33.63" style="enable-background:new 0 0 200.21 33.63;" xml:space="preserve">
<style type="text/css">
	.st0{fill:#166937;}
</style>
<g>
	<polygon class="st0" points="127.89,1.97 130.2,1.97 131.81,7.34 133.4,1.97 135.65,1.97 132.99,9.43 130.59,9.43 	"/>
	<path class="st0" d="M138.55,5.72c0,0.75,0.13,1.29,0.4,1.62c0.27,0.33,0.63,0.49,1.1,0.49c0.48,0,0.84-0.16,1.1-0.48
		c0.26-0.32,0.39-0.9,0.39-1.73c0-0.7-0.14-1.22-0.41-1.54c-0.27-0.32-0.64-0.49-1.11-0.49c-0.45,0-0.8,0.16-1.07,0.49
		C138.69,4.41,138.55,4.96,138.55,5.72 M136.34,5.71c0-1.22,0.33-2.16,0.98-2.84c0.65-0.68,1.56-1.02,2.72-1.02
		c1.19,0,2.11,0.33,2.75,1c0.64,0.67,0.97,1.6,0.97,2.8c0,0.87-0.14,1.58-0.42,2.14c-0.28,0.56-0.69,0.99-1.22,1.3
		c-0.53,0.31-1.2,0.47-1.99,0.47c-0.81,0-1.48-0.13-2-0.4s-0.96-0.69-1.29-1.27C136.51,7.3,136.34,6.58,136.34,5.71"/>
	<path class="st0" d="M148.18,1.97h2.22v4.05c0,0.85-0.07,1.5-0.22,1.94c-0.15,0.44-0.44,0.82-0.88,1.13
		c-0.44,0.31-1,0.46-1.68,0.46c-0.72,0-1.28-0.1-1.68-0.31c-0.4-0.2-0.7-0.5-0.92-0.89c-0.22-0.39-0.34-0.88-0.38-1.45l2.11-0.3
		c0,0.33,0.03,0.57,0.08,0.73c0.05,0.16,0.14,0.29,0.26,0.39c0.08,0.06,0.2,0.1,0.36,0.1c0.25,0,0.43-0.1,0.55-0.29
		c0.11-0.19,0.17-0.51,0.17-0.97V1.97z"/>
	<polygon class="st0" points="152.11,1.97 158.04,1.97 158.04,3.57 154.33,3.57 154.33,4.75 157.77,4.75 157.77,6.27 154.33,6.27 
		154.33,7.74 158.15,7.74 158.15,9.43 152.11,9.43 	"/>
	<polygon class="st0" points="159.61,1.97 161.67,1.97 164.37,6.1 164.37,1.97 166.45,1.97 166.45,9.43 164.37,9.43 161.69,5.34 
		161.69,9.43 159.61,9.43 	"/>
	<path class="st0" d="M167.79,6.96l2.1-0.14c0.05,0.36,0.14,0.63,0.28,0.81c0.23,0.3,0.55,0.45,0.98,0.45
		c0.32,0,0.56-0.08,0.73-0.23c0.17-0.15,0.26-0.33,0.26-0.54c0-0.19-0.08-0.37-0.24-0.52c-0.16-0.15-0.54-0.3-1.13-0.43
		c-0.97-0.23-1.66-0.53-2.07-0.9c-0.42-0.38-0.63-0.86-0.63-1.44c0-0.38,0.11-0.75,0.32-1.09c0.21-0.34,0.53-0.61,0.96-0.8
		c0.43-0.19,1.02-0.29,1.76-0.29c0.92,0,1.61,0.18,2.09,0.53c0.48,0.35,0.76,0.92,0.86,1.69l-2.09,0.13
		c-0.05-0.34-0.17-0.58-0.35-0.73c-0.18-0.15-0.42-0.23-0.73-0.23c-0.26,0-0.45,0.06-0.58,0.17c-0.13,0.11-0.2,0.25-0.2,0.41
		c0,0.12,0.05,0.22,0.16,0.32c0.1,0.1,0.35,0.19,0.74,0.28c0.97,0.22,1.66,0.44,2.08,0.66c0.42,0.22,0.72,0.5,0.91,0.83
		c0.19,0.33,0.29,0.7,0.29,1.1c0,0.48-0.13,0.92-0.38,1.32c-0.25,0.4-0.61,0.71-1.06,0.92c-0.46,0.21-1.03,0.31-1.72,0.31
		c-1.22,0-2.06-0.24-2.53-0.73C168.11,8.34,167.85,7.72,167.79,6.96"/>
	<polygon class="st0" points="175.65,1.97 177.86,1.97 177.86,4.79 180.18,1.97 183.12,1.97 180.51,4.79 183.24,9.43 180.52,9.43 
		179.01,6.36 177.86,7.61 177.86,9.43 175.65,9.43 	"/>
	<path class="st0" d="M188.16,6.59l-0.79-2.68l-0.78,2.68H188.16z M187.33,0h1.71l-1.58,1.52h-0.95L187.33,0z M188.62,8.2h-2.51
		l-0.35,1.23h-2.26l2.69-7.46h2.41l2.69,7.46h-2.32L188.62,8.2z"/>
	<polygon class="st0" points="128.41,13.97 134.67,13.97 134.67,15.46 130.65,19.83 134.82,19.83 134.82,21.43 128.02,21.43 
		128.02,19.88 132,15.57 128.41,15.57 	"/>
	<path class="st0" d="M138,15.66v4.07h0.54c0.46,0,0.79-0.05,0.99-0.16c0.2-0.11,0.35-0.29,0.46-0.56c0.11-0.27,0.17-0.7,0.17-1.3
		c0-0.79-0.12-1.33-0.37-1.62c-0.25-0.29-0.66-0.44-1.23-0.44H138z M135.79,13.97h3.29c0.65,0,1.17,0.09,1.57,0.27
		c0.4,0.18,0.73,0.45,0.99,0.79c0.26,0.34,0.45,0.74,0.57,1.19s0.18,0.93,0.18,1.44c0,0.8-0.09,1.42-0.26,1.86
		c-0.17,0.44-0.42,0.81-0.72,1.1c-0.31,0.3-0.64,0.49-1,0.59c-0.48,0.14-0.92,0.2-1.32,0.2h-3.29V13.97z"/>
	<path class="st0" d="M145.74,16.99h0.93c0.1,0,0.3-0.03,0.59-0.1c0.15-0.03,0.27-0.11,0.36-0.23c0.09-0.13,0.14-0.27,0.14-0.43
		c0-0.24-0.07-0.43-0.22-0.56c-0.15-0.13-0.42-0.19-0.83-0.19h-0.97V16.99z M143.52,21.43v-7.46h3.69c0.68,0,1.21,0.06,1.57,0.18
		s0.65,0.35,0.87,0.68c0.22,0.33,0.33,0.73,0.33,1.21c0,0.41-0.08,0.77-0.25,1.07c-0.17,0.3-0.4,0.54-0.7,0.73
		c-0.19,0.12-0.45,0.22-0.78,0.3c0.26,0.09,0.46,0.18,0.58,0.27c0.08,0.06,0.2,0.19,0.35,0.39c0.15,0.2,0.26,0.35,0.31,0.46
		l1.07,2.16h-2.5l-1.18-2.28c-0.15-0.29-0.28-0.49-0.4-0.58c-0.16-0.11-0.34-0.17-0.54-0.17h-0.2v3.03H143.52z"/>
	<path class="st0" d="M155.16,18.59l-0.79-2.68l-0.78,2.68H155.16z M155.62,20.2h-2.51l-0.35,1.23h-2.26l2.69-7.46h2.41l2.69,7.46
		h-2.32L155.62,20.2z"/>
	<polygon class="st0" points="158.24,13.97 160.56,13.97 162.17,19.34 163.76,13.97 166,13.97 163.35,21.43 160.95,21.43 	"/>
	<path class="st0" d="M168.61,17.72c0,0.75,0.13,1.29,0.4,1.62c0.27,0.33,0.63,0.49,1.1,0.49c0.48,0,0.84-0.16,1.1-0.48
		c0.26-0.32,0.39-0.9,0.39-1.73c0-0.7-0.14-1.22-0.41-1.54c-0.27-0.32-0.64-0.49-1.11-0.49c-0.45,0-0.8,0.16-1.07,0.49
		C168.74,16.41,168.61,16.96,168.61,17.72 M166.4,17.71c0-1.22,0.33-2.16,0.98-2.84c0.65-0.68,1.56-1.02,2.72-1.02
		c1.19,0,2.11,0.33,2.75,1c0.64,0.67,0.97,1.6,0.97,2.8c0,0.87-0.14,1.58-0.42,2.14c-0.28,0.56-0.69,0.99-1.22,1.3
		c-0.53,0.31-1.2,0.47-1.99,0.47c-0.81,0-1.48-0.13-2-0.4s-0.96-0.69-1.29-1.27C166.56,19.3,166.4,18.58,166.4,17.71"/>
	<polygon class="st0" points="174.45,13.97 181.18,13.97 181.18,15.81 178.92,15.81 178.92,21.43 176.71,21.43 176.71,15.81 
		174.45,15.81 	"/>
	<polygon class="st0" points="182.14,13.97 184.21,13.97 186.9,18.1 186.9,13.97 188.99,13.97 188.99,21.43 186.9,21.43 
		184.22,17.34 184.22,21.43 182.14,21.43 	"/>
	<path class="st0" d="M191.57,12h1.71l-1.58,1.52h-0.95L191.57,12z M190.5,13.97h2.22v7.46h-2.22V13.97z"/>
	<path class="st0" d="M130.8,29.15h0.54c0.43,0,0.73-0.08,0.9-0.23c0.17-0.15,0.26-0.35,0.26-0.59c0-0.23-0.08-0.43-0.23-0.59
		c-0.15-0.16-0.43-0.24-0.85-0.24h-0.63V29.15z M128.58,25.97h3.68c0.8,0,1.4,0.2,1.8,0.6c0.4,0.4,0.6,0.96,0.6,1.69
		c0,0.75-0.22,1.34-0.65,1.77c-0.43,0.42-1.1,0.64-1.99,0.64h-1.21v2.77h-2.22V25.97z"/>
	<path class="st0" d="M137.7,29.72c0,0.75,0.13,1.29,0.4,1.62c0.27,0.33,0.63,0.49,1.1,0.49c0.48,0,0.84-0.16,1.1-0.48
		c0.26-0.32,0.39-0.9,0.39-1.73c0-0.7-0.14-1.22-0.41-1.54c-0.27-0.32-0.64-0.49-1.11-0.49c-0.45,0-0.8,0.16-1.07,0.49
		C137.83,28.41,137.7,28.96,137.7,29.72 M135.48,29.71c0-1.22,0.33-2.16,0.98-2.84c0.65-0.68,1.56-1.02,2.72-1.02
		c1.19,0,2.11,0.33,2.75,1c0.64,0.67,0.97,1.6,0.97,2.8c0,0.87-0.14,1.58-0.42,2.14c-0.28,0.56-0.69,0.99-1.22,1.3
		c-0.53,0.31-1.19,0.47-1.99,0.47c-0.81,0-1.48-0.13-2-0.4s-0.96-0.69-1.29-1.27C135.65,31.3,135.48,30.58,135.48,29.71"/>
	<path class="st0" d="M147.02,25.97h2.22v4.05c0,0.85-0.07,1.5-0.22,1.94c-0.15,0.44-0.44,0.82-0.88,1.13
		c-0.44,0.31-1,0.46-1.68,0.46c-0.72,0-1.28-0.1-1.68-0.31c-0.4-0.2-0.7-0.5-0.92-0.89c-0.22-0.39-0.34-0.88-0.38-1.45l2.11-0.3
		c0,0.33,0.03,0.57,0.08,0.73c0.05,0.16,0.14,0.29,0.26,0.39c0.08,0.06,0.2,0.1,0.36,0.1c0.25,0,0.43-0.1,0.55-0.29
		c0.12-0.19,0.17-0.51,0.17-0.97V25.97z"/>
	<rect x="150.75" y="25.97" class="st0" width="2.22" height="7.46"/>
	<path class="st0" d="M158.07,25.52h-1.41l-1.08-1.46h1.21l0.6,0.78l0.6-0.78h1.22L158.07,25.52z M154.12,30.96l2.1-0.14
		c0.05,0.36,0.14,0.63,0.28,0.81c0.23,0.3,0.55,0.45,0.98,0.45c0.32,0,0.56-0.08,0.73-0.23c0.17-0.15,0.26-0.33,0.26-0.54
		c0-0.19-0.08-0.37-0.24-0.52c-0.16-0.15-0.54-0.3-1.13-0.43c-0.97-0.23-1.66-0.53-2.08-0.9c-0.42-0.38-0.62-0.86-0.62-1.44
		c0-0.38,0.11-0.75,0.32-1.09c0.21-0.34,0.53-0.61,0.96-0.8c0.43-0.19,1.02-0.29,1.76-0.29c0.91,0,1.61,0.18,2.09,0.53
		c0.48,0.35,0.76,0.92,0.86,1.69l-2.09,0.13c-0.05-0.34-0.17-0.58-0.35-0.73c-0.18-0.15-0.42-0.23-0.73-0.23
		c-0.26,0-0.45,0.06-0.58,0.17c-0.13,0.11-0.2,0.25-0.2,0.41c0,0.12,0.05,0.22,0.16,0.32c0.1,0.1,0.35,0.19,0.74,0.28
		c0.97,0.22,1.66,0.44,2.08,0.66c0.42,0.22,0.72,0.5,0.91,0.83c0.19,0.33,0.29,0.7,0.29,1.1c0,0.48-0.13,0.92-0.38,1.32
		c-0.25,0.4-0.61,0.71-1.06,0.92c-0.46,0.21-1.03,0.31-1.72,0.31c-1.22,0-2.06-0.24-2.53-0.73
		C154.45,32.34,154.18,31.72,154.12,30.96"/>
	<path class="st0" d="M165.26,25.49h-1.41l-1.08-1.45h1.21l0.6,0.78l0.6-0.78h1.22L165.26,25.49z M161.17,25.97h6.72v1.84h-2.26
		v5.61h-2.21v-5.61h-2.26V25.97z"/>
	<path class="st0" d="M170.78,29.72c0,0.75,0.13,1.29,0.4,1.62c0.27,0.33,0.63,0.49,1.1,0.49c0.47,0,0.84-0.16,1.1-0.48
		c0.26-0.32,0.39-0.9,0.39-1.73c0-0.7-0.14-1.22-0.41-1.54c-0.27-0.32-0.64-0.49-1.11-0.49c-0.45,0-0.8,0.16-1.07,0.49
		C170.92,28.41,170.78,28.96,170.78,29.72 M168.57,29.71c0-1.22,0.33-2.16,0.98-2.84c0.65-0.68,1.56-1.02,2.72-1.02
		c1.19,0,2.11,0.33,2.75,1c0.64,0.67,0.97,1.6,0.97,2.8c0,0.87-0.14,1.58-0.42,2.14c-0.28,0.56-0.69,0.99-1.22,1.3
		c-0.53,0.31-1.2,0.47-1.99,0.47c-0.81,0-1.48-0.13-2-0.4c-0.53-0.27-0.96-0.69-1.29-1.27C168.73,31.3,168.57,30.58,168.57,29.71"/>
	<polygon class="st0" points="176.42,25.97 178.74,25.97 180.35,31.34 181.94,25.97 184.18,25.97 181.53,33.43 179.13,33.43 	"/>
	<polygon class="st0" points="184.87,25.97 186.94,25.97 189.63,30.1 189.63,25.97 191.72,25.97 191.72,33.43 189.63,33.43 
		186.95,29.34 186.95,33.43 184.87,33.43 	"/>
	<path class="st0" d="M197.08,30.59l-0.79-2.68l-0.78,2.68H197.08z M197.54,32.2h-2.51l-0.35,1.23h-2.26l2.69-7.46h2.41l2.69,7.46
		h-2.32L197.54,32.2z"/>
	<path class="st0" d="M79.32,16.07c1.16-0.04,1.98-0.17,2.46-0.34c0.65-0.27,1.16-0.65,1.52-1.18c0.36-0.55,0.55-1.17,0.55-1.89
		c0-0.87-0.27-1.6-0.78-2.17c-0.5-0.55-1.17-0.92-1.95-1.05c-0.36-0.08-0.97-0.13-1.8-0.15V5.2c2.34,0.04,3.91,0.15,4.68,0.36
		c1.37,0.36,2.53,1.15,3.47,2.36c0.93,1.2,1.39,2.76,1.39,4.69c0,1.47-0.27,2.72-0.8,3.73c-0.55,0.99-1.22,1.79-2.06,2.36
		c-0.82,0.57-1.65,0.98-2.51,1.14c-0.99,0.22-2.4,0.33-4.17,0.34V16.07z M74.79,9.28v6.82h3.14c0.51,0,0.97,0,1.39-0.02v4.11h-0.88
		h-3.65v9.08h-4.9h-0.48h-22.7v-5.29L59.68,9.6H23.53l-7.41,19.67h-4.93L0,5.2h5.7l7.65,16.82L19.41,5.2h3.73h1.85h41.85v4.43
		L53.32,24.36l16.1,0.02V5.2h8.8h1.11v4.1c-0.5-0.02-1.05-0.02-1.7-0.02H74.79z"/>
	<path class="st0" d="M34.52,11.44c5.51,0,9.96,4.17,9.96,9.32c0,5.14-4.45,9.32-9.96,9.32v-4.4c2.64,0,4.78-2.19,4.78-4.91
		c0-2.72-2.14-4.92-4.78-4.92V11.44z M34.52,11.44L34.52,11.44v4.4c-2.63,0-4.78,2.19-4.78,4.92c0,2.72,2.15,4.91,4.78,4.91v4.4
		c-5.49,0-9.96-4.17-9.96-9.32C24.56,15.61,29.04,11.44,34.52,11.44"/>
	<rect x="107.24" y="2.78" class="st0" width="2.77" height="30.85"/>
</g>
</svg>
