<?xml version="1.0" encoding="UTF-8"?>
<!DOCTYPE svg PUBLIC "-//W3C//DTD SVG 1.1//EN" "http://www.w3.org/Graphics/SVG/1.1/DTD/svg11.dtd">
<!-- Creator: CorelDRAW 2017 -->
<svg xmlns="http://www.w3.org/2000/svg" xml:space="preserve" width="45.9818mm" height="9.4998mm" version="1.1" style="shape-rendering:geometricPrecision; text-rendering:geometricPrecision; image-rendering:optimizeQuality; fill-rule:evenodd; clip-rule:evenodd"
viewBox="0 0 432.68 89.39"
 xmlns:xlink="http://www.w3.org/1999/xlink">
 <defs>
  <style type="text/css">
   <![CDATA[
    .fil0 {fill:#E53A24}
   ]]>
  </style>
 </defs>
 <g id="Layer_x0020_1">
  <metadata id="CorelCorpID_0Corel-Layer"/>
  <g id="_1761304014592">
   <path class="fil0" d="M346.51 74.67c-0.32,0.77 -0.63,1.61 -0.98,2.48 -0.37,-1.13 -0.52,-1.58 -0.92,-2.56l-1.61 -3.9 -4.86 0 -0.79 0 -5.07 0 -4.06 8.49 4.62 9.89 6.22 0 -5.75 -9.97 4.42 -7.7 5.29 10 0 7.68 4.82 0 0 -7.78 5.89 -10.61 -5.62 0 -1.61 3.98z"/>
   <path class="fil0" d="M257.64 78.79l-1.37 0 0 -4.22 1.64 0c1.13,0 1.9,0.29 1.9,1.82 0,2.01 -0.68,2.4 -2.16,2.4zm-0.11 -8.1l-5.98 0 0 18.39 4.72 0 0 -6.54 1.48 0c6.02,0 7.2,-3.4 7.2,-6.12 0,-4.19 -2.74,-5.72 -7.41,-5.72z"/>
   <path class="fil0" d="M146.37 85.51c-0.98,0 -1.74,-0.45 -2.35,-1.16 -0.77,-0.9 -0.9,-2.35 -0.9,-5.39 0,-2.17 0.29,-3.12 1.19,-4.04 0.47,-0.5 1.24,-0.72 2.06,-0.72 1,0 1.93,0.35 2.75,0.98l2 -3.48c-0.84,-0.82 -2.82,-1.34 -4.7,-1.34 -3.22,0 -5.88,1.29 -7.44,4.17 -0.89,1.66 -1.26,3.4 -1.26,5.7 0,2.61 0.66,5.02 2.11,6.62 1.69,1.85 3.75,2.53 6.02,2.53 2.69,0 4.56,-0.79 5.72,-1.87l-2.03 -3.22c-1.03,0.92 -1.98,1.21 -3.17,1.21z"/>
   <polygon class="fil0" points="146.14,66.25 142.47,64.41 140.99,66.86 145.98,70 151.02,66.86 149.7,64.41 "/>
   <polygon class="fil0" points="242.47,81.39 247.06,81.39 247.06,77.65 242.47,77.65 242.47,74.56 248.09,74.56 248.43,70.69 237.75,70.69 237.75,89.07 248.77,89.07 248.77,85.14 242.47,85.14 "/>
   <polygon class="fil0" points="209.25,64.83 203.5,68.02 204.95,70.34 211.04,67.81 "/>
   <path class="fil0" d="M227.16 78.31l-1.34 0 0 -3.75 1.32 0c1.48,0 2.19,0.42 2.19,1.74 0,1.24 -0.55,2.01 -2.17,2.01zm3.59 2.77c2.16,-0.37 3.83,-1.97 3.83,-5.15 0,-3.06 -1.74,-5.25 -7.15,-5.25l-6.33 0 0 18.39 4.72 0 0 -7.28c1.03,0 1.45,0.24 2.16,2.14l1.93 5.14 5.46 0c-0.61,-1.37 -2.16,-4.77 -2.77,-6.02 -0.45,-0.95 -1.21,-1.79 -1.84,-1.98z"/>
   <polygon class="fil0" points="206.08,81.39 210.68,81.39 210.68,77.65 206.08,77.65 206.08,74.56 211.7,74.56 212.05,70.69 201.36,70.69 201.36,89.07 212.39,89.07 212.39,85.14 206.08,85.14 "/>
   <path class="fil0" d="M176.03 77.57l-1.87 -0.48c-1.37,-0.34 -1.8,-0.95 -1.8,-1.56 0,-0.74 0.66,-1.32 1.87,-1.32 1.26,0 2.9,0.48 4.14,1.3l2.27 -3.35c-1.63,-1.14 -4.01,-1.79 -6.57,-1.79 -4.12,0 -7.12,2.42 -7.12,6.06 0,3.17 1.82,4.65 4.48,5.33l2.17 0.55c1.26,0.32 1.84,0.69 1.84,1.51 0,1 -0.74,1.69 -2.59,1.69 -1.87,0 -3.85,-0.71 -5.17,-1.48l-1.66 3.7c1.84,0.97 4.01,1.66 6.78,1.66 4.78,0 8.05,-2.32 8.05,-6.73 0,-3.69 -2.85,-4.59 -4.83,-5.09z"/>
   <polygon class="fil0" points="314.79,89.07 319.62,89.07 319.62,70.69 314.79,70.69 "/>
   <path class="fil0" d="M291.36 85.14l-1.8 0 0 -3.64 1.74 0c1.46,0 1.75,0.82 1.75,1.74 0,1.13 -0.5,1.9 -1.69,1.9zm-1.8 -10.58l1.82 0c1.11,0 1.59,0.5 1.59,1.45 0,0.95 -0.4,1.75 -1.53,1.75l-1.88 0 0 -3.2zm5.54 4.7c2.03,-0.66 2.71,-2.4 2.71,-4.07 0,-3.37 -2.16,-4.51 -4.82,-4.51l-8.15 0 0 18.39 7.46 0c4.19,0 6.17,-2.32 6.17,-5.67 0,-2.22 -1.58,-3.67 -3.38,-4.14z"/>
   <polygon class="fil0" points="183.9,89.07 188.62,89.07 188.62,70.69 183.9,70.69 "/>
   <polygon class="fil0" points="158.14,81.39 162.73,81.39 162.73,77.65 158.14,77.65 158.14,74.56 163.76,74.56 164.1,70.69 153.42,70.69 153.42,89.07 164.45,89.07 164.45,85.14 158.14,85.14 "/>
   <polygon class="fil0" points="323.45,89.07 328.17,89.07 328.17,70.69 323.45,70.69 "/>
   <polygon class="fil0" points="198.59,70.69 192.73,70.69 188.67,79.18 193.28,89.07 199.51,89.07 193.76,79.1 "/>
   <path class="fil0" d="M276.43 82.77c0,1.79 -0.48,2.74 -2.17,2.74 -1.66,0 -2.19,-1.13 -2.19,-2.82l0 -12.01 -4.74 0 0 12.51c0,2.45 0.18,2.93 0.9,3.91 1.08,1.53 3.11,2.29 6.01,2.29 3.64,0 5.67,-1.42 6.46,-2.95 0.37,-0.74 0.45,-1.45 0.45,-3.03l0 -12.72 -4.72 0 0 12.09z"/>
   <polygon class="fil0" points="306.3,70.69 301.52,70.69 301.52,89.07 311.65,89.07 312.55,85.17 306.3,85.17 "/>
   <path class="fil0" d="M423.29 49.91l0.74 -3.01c0.27,-1.19 0.45,-2.14 0.51,-2.82 0.03,0.68 0.16,1.71 0.34,2.48l0.8 3.35 -2.38 0zm3.83 -11.21l-4.9 0 -5.92 18.39 4.96 0 1 -3.54 4.35 0 0.95 3.54 5.12 0 -5.57 -18.39z"/>
   <path class="fil0" d="M137.45 53.86l0 3.22 12.56 0 0.37 -3.93 -5.28 0c-0.68,0 -1.58,0.05 -2,0.16 0.18,-0.16 0.61,-0.58 0.85,-0.97l6.33 -10.35 0 -3.3 -11.93 0 -0.34 3.88 4.78 0c0.61,0 1.42,-0.03 1.82,-0.13 -0.26,0.24 -0.71,0.98 -1.06,1.56l-6.09 9.87z"/>
   <path class="fil0" d="M341.15 53.52c-1.88,0 -3.85,-0.71 -5.18,-1.48l-1.66 3.69c1.85,0.98 4.01,1.66 6.78,1.66 4.77,0 8.05,-2.32 8.05,-6.72 0,-3.7 -2.85,-4.6 -4.83,-5.1l-1.87 -0.48c-1.37,-0.34 -1.8,-0.95 -1.8,-1.56 0,-0.74 0.66,-1.32 1.88,-1.32 1.26,0 2.9,0.48 4.14,1.3l2.27 -3.35c-1.63,-1.14 -4.01,-1.79 -6.57,-1.79 -4.12,0 -7.12,2.42 -7.12,6.07 0,3.16 1.82,4.65 4.48,5.33l2.16 0.56c1.26,0.32 1.85,0.69 1.85,1.5 0,1 -0.74,1.69 -2.59,1.69z"/>
   <polygon class="fil0" points="346.64,34.44 345.18,31.99 341.62,33.84 337.96,31.99 336.61,34.44 341.7,38.01 "/>
   <polygon class="fil0" points="362.65,34.86 361.34,32.41 357.77,34.26 354.11,32.41 352.63,34.86 357.61,38.01 "/>
   <polygon class="fil0" points="331.28,38.69 326.45,38.69 326.45,57.08 331.28,57.08 "/>
   <path class="fil0" d="M174.92 42.57l1.32 0c1.48,0 2.19,0.42 2.19,1.74 0,1.24 -0.55,2 -2.17,2l-1.35 0 0 -3.75zm0 7.23c1.03,0 1.45,0.24 2.17,2.14l1.93 5.15 5.46 0c-0.61,-1.37 -2.17,-4.78 -2.77,-6.02 -0.45,-0.95 -1.22,-1.79 -1.84,-1.98 2.16,-0.37 3.82,-1.97 3.82,-5.14 0,-3.06 -1.74,-5.25 -7.14,-5.25l-6.33 0 0 18.39 4.72 0 0 -7.28z"/>
   <path class="fil0" d="M391.31 46.13c-0.35,0.95 -0.69,2.11 -0.98,3.59l-0.03 0c-0.29,-1.64 -0.53,-2.32 -0.87,-3.46l-2.32 -7.57 -5.2 0 6.26 18.39 4.25 0 6.49 -18.39 -4.99 0 -2.61 7.44z"/>
   <path class="fil0" d="M409.88 44.39c0,1.21 0.02,3.03 0.16,4.12 -0.45,-1.24 -1,-2.53 -1.53,-3.51l-3.36 -6.31 -4.53 0 0 18.39 4.48 0 0 -5.17c0,-2.27 -0.16,-3.96 -0.27,-4.67 0.4,1.19 0.95,2.51 1.43,3.46l3.24 6.38 4.85 0 0 -18.39 -4.49 0 0 5.7z"/>
   <polygon class="fil0" points="268.48,57.08 273.31,57.08 273.31,38.69 268.48,38.69 "/>
   <polygon class="fil0" points="272.97,32.84 267.22,36.03 268.67,38.35 274.77,35.81 "/>
   <path class="fil0" d="M255.26 51.91c0,-2.27 -0.16,-3.96 -0.27,-4.67 0.4,1.19 0.95,2.51 1.43,3.46l3.24 6.38 4.86 0 0 -18.39 -4.49 0 0 5.7c0,1.21 0.03,3.03 0.16,4.12 -0.45,-1.24 -1,-2.53 -1.53,-3.51l-3.36 -6.31 -4.54 0 0 18.39 4.48 0 0 -5.17z"/>
   <polygon class="fil0" points="235.19,42.6 239.46,42.6 239.46,57.08 244.24,57.08 244.24,42.6 248.51,42.6 249.07,38.69 235.19,38.69 "/>
   <path class="fil0" d="M287.8 42.57l1.63 0c1.14,0 1.91,0.29 1.91,1.82 0,2.01 -0.69,2.4 -2.17,2.4l-1.37 0 0 -4.23zm0 7.97l1.48 0c6.01,0 7.2,-3.4 7.2,-6.12 0,-4.19 -2.74,-5.72 -7.41,-5.72l-5.99 0 0 18.39 4.72 0 0 -6.54z"/>
   <path class="fil0" d="M306.56 53.68c-1.96,0 -3.09,-1.16 -3.09,-5.86 0,-3.51 0.9,-5.75 3.04,-5.75 2.03,0 2.93,1.11 2.93,5.7 0,4.72 -0.88,5.91 -2.88,5.91zm0.07 -15.3c-4.85,0 -8.44,3.42 -8.44,9.97 0,5.52 2.95,9.05 8.29,9.05 6.57,0 8.23,-4.93 8.23,-10.21 0,-4.04 -1.82,-8.81 -8.08,-8.81z"/>
   <path class="fil0" d="M317.8 53.84c0,3.32 -0.16,4.38 -2.42,5.94l2.17 2.33c2.58,-0.93 5.09,-3.06 5.09,-6.25l0 -17.15 -4.83 0 0 15.14z"/>
   <polygon class="fil0" points="350.86,42.6 355.14,42.6 355.14,57.08 359.91,57.08 359.91,42.6 364.18,42.6 364.74,38.69 350.86,38.69 "/>
   <path class="fil0" d="M159.59 53.16l-1.59 0 0 -10.59 1.45 0c1.43,0 2.51,0.56 2.51,4.83 0,5.09 -1.05,5.75 -2.38,5.75zm4.56 -13.33c-1.48,-1.03 -3.11,-1.13 -4.38,-1.13l-6.48 0 0 18.39 6.67 0c2.48,0 3.96,-0.82 5.12,-2.21 1.66,-1.98 2.08,-4.46 2.08,-7.31 0,-3.75 -0.92,-6.28 -3.01,-7.73z"/>
   <path class="fil0" d="M222.76 47.82c0,-3.51 0.9,-5.75 3.04,-5.75 2.03,0 2.92,1.11 2.92,5.7 0,4.72 -0.87,5.91 -2.87,5.91 -1.95,0 -3.09,-1.16 -3.09,-5.86zm11.24 -0.64c0,-4.04 -1.82,-8.81 -8.07,-8.81 -4.86,0 -8.44,3.42 -8.44,9.97 0,5.52 2.95,9.05 8.29,9.05 6.57,0 8.23,-4.93 8.23,-10.21z"/>
   <path class="fil0" d="M191.94 49.91l0.74 -3.01c0.27,-1.19 0.45,-2.14 0.5,-2.82 0.03,0.68 0.16,1.71 0.35,2.48l0.79 3.35 -2.37 0zm-1.08 -11.21l-5.91 18.39 4.96 0 1 -3.54 4.35 0 0.95 3.54 5.12 0 -5.57 -18.39 -4.91 0z"/>
   <path class="fil0" d="M209.49 46.13c-0.34,0.95 -0.68,2.11 -0.97,3.59l-0.03 0c-0.29,-1.64 -0.53,-2.32 -0.87,-3.46l-2.32 -7.57 -5.2 0 6.25 18.39 4.25 0 6.49 -18.39 -4.99 0 -2.61 7.44z"/>
   <path class="fil0" d="M373.37 53.68c-1.96,0 -3.09,-1.16 -3.09,-5.86 0,-3.51 0.9,-5.75 3.04,-5.75 2.03,0 2.93,1.11 2.93,5.7 0,4.72 -0.88,5.91 -2.88,5.91zm0.08 -15.3c-4.86,0 -8.44,3.42 -8.44,9.97 0,5.52 2.95,9.05 8.28,9.05 6.57,0 8.23,-4.93 8.23,-10.21 0,-4.04 -1.82,-8.81 -8.07,-8.81z"/>
   <path class="fil0" d="M241.23 25.41c2.69,0 4.56,-0.79 5.73,-1.87l-2.03 -3.22c-1.03,0.93 -1.98,1.21 -3.16,1.21 -0.98,0 -1.74,-0.45 -2.35,-1.16 -0.76,-0.9 -0.89,-2.35 -0.89,-5.38 0,-2.17 0.29,-3.12 1.19,-4.04 0.48,-0.5 1.24,-0.72 2.06,-0.72 1,0 1.93,0.34 2.74,0.98l2.01 -3.48c-0.84,-0.82 -2.82,-1.34 -4.69,-1.34 -3.22,0 -5.88,1.29 -7.44,4.17 -0.9,1.66 -1.26,3.4 -1.26,5.7 0,2.61 0.66,5.01 2.11,6.62 1.69,1.84 3.74,2.53 6.01,2.53z"/>
   <path class="fil0" d="M145.66 14.14c-0.35,0.95 -0.69,2.11 -0.98,3.59l-0.03 0c-0.29,-1.64 -0.53,-2.32 -0.88,-3.46l-2.32 -7.57 -5.2 0 6.25 18.39 4.25 0 6.49 -18.39 -4.99 0 -2.61 7.44z"/>
   <polygon class="fil0" points="166.51,2.45 165.06,0 161.49,1.84 157.83,0 156.48,2.45 161.57,6.01 "/>
   <polygon class="fil0" points="277.04,3.82 275.24,0.84 269.49,4.04 270.94,6.35 "/>
   <path class="fil0" d="M271.99 17.91l0.74 -3.01c0.23,-1.16 0.45,-2.08 0.5,-2.77 0.03,0.69 0.16,1.69 0.34,2.43l0.79 3.35 -2.37 0zm-1.08 -11.21l-5.91 18.39 4.96 0 1 -3.54 4.35 0 0.95 3.54 5.12 0 -5.57 -18.39 -4.91 0z"/>
   <path class="fil0" d="M192.71 10.07c2.03,0 2.93,1.11 2.93,5.71 0,4.72 -0.87,5.91 -2.88,5.91 -1.96,0 -3.09,-1.16 -3.09,-5.86 0,-3.51 0.9,-5.76 3.04,-5.76zm-0.03 15.33c6.57,0 8.23,-4.93 8.23,-10.21 0,-4.04 -1.82,-8.81 -8.07,-8.81 -4.86,0 -8.44,3.42 -8.44,9.97 0,5.51 2.95,9.05 8.28,9.05z"/>
   <polygon class="fil0" points="182.94,21.16 176.64,21.16 176.64,17.41 181.23,17.41 181.23,13.66 176.64,13.66 176.64,10.57 182.26,10.57 182.6,6.7 171.92,6.7 171.92,25.09 182.94,25.09 "/>
   <path class="fil0" d="M161.02 21.53c-1.87,0 -3.85,-0.71 -5.17,-1.48l-1.66 3.69c1.85,0.98 4.01,1.66 6.78,1.66 4.78,0 8.05,-2.32 8.05,-6.73 0,-3.7 -2.85,-4.59 -4.83,-5.09l-1.87 -0.48c-1.37,-0.34 -1.8,-0.95 -1.8,-1.56 0,-0.74 0.66,-1.32 1.88,-1.32 1.26,0 2.9,0.48 4.14,1.3l2.27 -3.35c-1.63,-1.14 -4.01,-1.79 -6.56,-1.79 -4.12,0 -7.13,2.42 -7.13,6.07 0,3.16 1.82,4.64 4.49,5.33l2.16 0.55c1.26,0.31 1.85,0.69 1.85,1.5 0,1 -0.74,1.69 -2.59,1.69z"/>
   <polygon class="fil0" points="231.65,21.16 225.34,21.16 225.34,17.41 229.94,17.41 229.94,13.66 225.34,13.66 225.34,10.57 230.96,10.57 231.31,6.7 220.62,6.7 220.62,25.09 231.65,25.09 "/>
   <path class="fil0" d="M253.68 19.92c0,-2.27 -0.16,-3.96 -0.27,-4.67 0.4,1.19 0.95,2.51 1.43,3.46l3.25 6.38 4.85 0 0 -18.39 -4.48 0 0 5.7c0,1.21 0.03,3.03 0.16,4.11 -0.45,-1.24 -1.01,-2.53 -1.54,-3.51l-3.35 -6.31 -4.54 0 0 18.39 4.48 0 0 -5.17z"/>
   <path class="fil0" d="M208.67 21.16l0 -3.65 1.74 0c1.45,0 1.75,0.82 1.75,1.74 0,1.13 -0.51,1.9 -1.69,1.9l-1.8 0zm0 -10.59l1.83 0c1.11,0 1.58,0.51 1.58,1.45 0,0.95 -0.4,1.74 -1.53,1.74l-1.88 0 0 -3.2zm8.92 8.84c0,-2.22 -1.59,-3.67 -3.38,-4.14 2.03,-0.66 2.72,-2.4 2.72,-4.07 0,-3.38 -2.16,-4.51 -4.82,-4.51l-8.15 -0 0 18.39 7.47 0c4.19,0 6.17,-2.32 6.17,-5.67z"/>
   <polygon class="fil0" points="66.35,62.06 50.75,62.06 43.08,75.6 50.46,89.39 66.11,89.39 58.77,75.75 "/>
   <polygon class="fil0" points="72.07,62.06 65.81,72.82 91.39,72.82 59.17,19.71 18.44,89.39 31.24,89.39 59.26,41.18 "/>
   <path class="fil0" d="M72.46 12.23c-0.88,-1.12 -3.81,-7.53 -13.3,-7.53 -9.68,0 -12.81,6.65 -13.94,8.41 -1.17,1.76 -45.23,76.23 -45.23,76.23l12.56 0.05c0,0 39.8,-67.38 42.3,-71.24 2.54,-3.91 6.7,-2.54 7.97,-0.53 1.22,2.05 30.56,49.77 33.1,53.88 0.58,0.98 0.88,2.79 -0.15,4.69 -0.98,1.85 -2.74,2.35 -4.01,2.35l-26.06 0 6.36 10.85 20.83 0c2,0 7.97,-0.83 12.57,-6.7 5.57,-7.14 0.49,-15.85 -0.49,-17.31 -1.03,-1.51 -31.68,-52.02 -32.52,-53.15z"/>
  </g>
 </g>
</svg>
