<svg width="229" height="50" viewBox="0 0 229 50" fill="none" xmlns="http://www.w3.org/2000/svg">
<path d="M52.5671 10.1919C52.4961 10.3695 52.4251 10.5471 52.4251 10.7246C52.4251 11.3638 52.8867 11.6834 53.7745 11.6834H57.6097C58.4975 11.6834 58.9591 11.3993 58.9591 10.7956C58.9591 10.1919 58.4975 9.90785 57.6097 9.90785H54.9109L58.2489 5.3624C58.391 5.14933 58.5685 4.93626 58.6751 4.72319C58.7461 4.54563 58.8171 4.36808 58.8171 4.19052C58.8171 3.87092 58.6751 3.62234 58.391 3.48029C58.1069 3.33825 57.7163 3.26722 57.1481 3.26722H53.881C52.9577 3.26722 52.5316 3.55131 52.5316 4.15501C52.5316 4.4391 52.6381 4.68769 52.8512 4.82973C53.0643 4.97178 53.4194 5.04279 53.881 5.04279H56.3313L52.8867 9.58825C52.8157 9.76581 52.6736 9.97887 52.5671 10.1919ZM61.4449 5.0783H62.2972C63.8242 5.0783 64.6055 5.85955 64.6055 7.38654C64.6055 9.09109 63.8597 9.90785 62.3327 9.90785H61.4449V5.0783ZM60.0245 11.5769C60.202 11.6479 60.4861 11.6834 60.8057 11.6834H62.5458C63.185 11.6834 63.7532 11.5769 64.2503 11.3993C64.7475 11.2218 65.1736 10.9022 65.5288 10.5471C65.8839 10.1564 66.168 9.69478 66.3455 9.19762C66.5231 8.66495 66.6296 8.09677 66.6296 7.42206C66.6296 7.03143 66.5941 6.67632 66.4876 6.3212C66.4165 6.0016 66.2745 5.64649 66.1324 5.3624C65.9904 5.07831 65.7773 4.79421 65.5643 4.54563C65.3512 4.29705 65.1026 4.08399 64.8185 3.90643C64.2148 3.51581 63.3626 3.33825 62.3327 3.33825H60.8413C60.4861 3.33825 60.2376 3.37376 60.0245 3.48029C59.8469 3.58683 59.7049 3.72888 59.6339 3.90643C59.5628 4.08399 59.5273 4.36807 59.5273 4.68768V10.5471C59.5273 10.8667 59.5628 11.1152 59.6339 11.2928C59.7404 11.3993 59.8824 11.5414 60.0245 11.5769ZM71.4592 6.81836C71.2461 6.99592 70.962 7.10246 70.5714 7.10246H69.6836V5.0783H70.5714C70.8199 5.0783 71.033 5.11382 71.2106 5.18484C71.3881 5.25587 71.5302 5.3624 71.6012 5.53996C71.7077 5.71751 71.7432 5.89507 71.7432 6.07263C71.7788 6.39223 71.6722 6.6408 71.4592 6.81836ZM73.7674 5.93057C73.7674 5.14932 73.4833 4.51012 72.9151 4.01296C72.3469 3.55132 71.5657 3.30274 70.5359 3.30274H69.0444C68.6893 3.30274 68.4407 3.33824 68.2276 3.44478C68.0501 3.5158 67.908 3.69336 67.837 3.87092C67.766 4.08399 67.7305 4.33257 67.7305 4.65217V10.4405C67.7305 10.9022 67.8015 11.2573 67.979 11.4704C68.1211 11.6834 68.3697 11.7899 68.7248 11.7899C69.364 11.7899 69.6836 11.3283 69.6836 10.4405V8.38087L71.9208 11.1863C72.1339 11.4348 72.2759 11.6124 72.4535 11.7189C72.5955 11.8255 72.7731 11.8965 72.9506 11.8965C73.4478 11.8965 73.8739 11.5059 73.8739 11.0087C73.8739 10.6891 73.6964 10.334 73.3057 9.90785L71.8143 8.23881C72.4535 8.13228 72.9506 7.88371 73.3057 7.45757C73.5898 7.03143 73.7674 6.53427 73.7674 5.93057ZM77.7802 5.25586L78.739 8.38087H76.7148L77.7802 5.25586ZM74.5131 11.7189C74.6552 11.79 74.7972 11.8255 74.9748 11.8255C75.4009 11.8255 75.7205 11.5414 75.8981 10.9732L76.1822 10.1209H79.2717L79.5202 10.9022C79.6268 11.2218 79.7333 11.4348 79.9109 11.6124C80.0884 11.7544 80.3015 11.861 80.5145 11.8255C80.7631 11.8255 81.0117 11.7544 81.1893 11.5769C81.3668 11.3993 81.4734 11.1863 81.4734 10.9377C81.4734 10.7956 81.4378 10.5826 81.3313 10.334L79.2006 4.29706C79.0586 3.94195 78.881 3.65785 78.6324 3.48029C78.3839 3.30274 78.0998 3.19621 77.7802 3.19621C77.4251 3.19621 77.141 3.30274 76.8924 3.51581C76.6438 3.72887 76.4663 4.01297 76.2887 4.4391L74.087 10.3695C74.016 10.5471 73.9805 10.7246 73.9805 10.9022C73.9805 11.0797 74.016 11.2218 74.087 11.3638C74.2645 11.5059 74.3711 11.6124 74.5131 11.7189ZM84.2077 11.5769C84.2788 11.6834 84.3853 11.7544 84.4918 11.7899C84.5984 11.8255 84.7404 11.861 84.8825 11.861C85.0955 11.861 85.3086 11.79 85.4506 11.6834C85.5927 11.5769 85.7347 11.3638 85.8413 11.0797L88.327 4.7587C88.3981 4.54564 88.4691 4.33257 88.4691 4.08399C88.4691 3.7999 88.3981 3.58682 88.2205 3.44478C88.043 3.30273 87.8299 3.19621 87.5458 3.19621C87.2972 3.19621 87.1197 3.26723 86.9776 3.40928C86.8356 3.55132 86.729 3.76439 86.587 4.1195L84.9535 8.807L83.1779 4.04848C83.0714 3.76439 82.9648 3.55132 82.8228 3.40928C82.6807 3.26723 82.5032 3.19621 82.2901 3.23172C82.0415 3.23172 81.7574 3.33825 81.5799 3.51581C81.4023 3.69336 81.2958 3.94194 81.2958 4.19052C81.2958 4.36808 81.3313 4.54563 81.4023 4.72319L83.9592 11.1507C84.0657 11.3283 84.1367 11.4704 84.2077 11.5769ZM91.239 5.57546C91.5941 5.11381 92.1268 4.86523 92.7305 4.86523C93.1211 4.86523 93.4762 4.97178 93.7958 5.18484C94.1154 5.39791 94.3285 5.71751 94.506 6.10813C94.6836 6.49876 94.7546 6.9604 94.7546 7.52859C94.7546 8.06126 94.6836 8.4874 94.506 8.87802C94.364 9.23314 94.1154 9.55274 93.7958 9.80132C93.4762 10.0144 93.1211 10.1209 92.7305 10.1209C92.3398 10.1209 91.9847 10.0144 91.6651 9.80132C91.3455 9.55274 91.0969 9.26865 90.9549 8.87802C90.7773 8.4874 90.7063 8.02575 90.7063 7.52859C90.6708 6.71182 90.8839 6.07262 91.239 5.57546ZM91.0259 11.6124C91.5231 11.8255 92.0913 11.932 92.6949 11.932C93.2986 11.932 93.8668 11.8255 94.364 11.6124C94.8611 11.3993 95.3228 11.0797 95.6779 10.6891C96.033 10.2985 96.3171 9.83683 96.5302 9.26865C96.7077 8.73598 96.8143 8.13229 96.8143 7.45757C96.8143 6.85388 96.7077 6.21467 96.5302 5.64649C96.3526 5.11382 96.0685 4.65217 95.6779 4.22603C95.3228 3.83541 94.8611 3.51581 94.364 3.33825C93.8313 3.12518 93.2631 3.01865 92.6949 3.01865C92.0913 3.01865 91.5231 3.12518 91.0259 3.33825C90.5288 3.55132 90.1026 3.83541 89.712 4.22603C89.3214 4.65217 89.0373 5.11382 88.8597 5.64649C88.6466 6.21467 88.5401 6.85388 88.5401 7.45757C88.5401 8.09677 88.6467 8.70047 88.8242 9.26865C89.0018 9.80132 89.2859 10.2985 89.6765 10.6891C90.1026 11.1152 90.5288 11.4348 91.0259 11.6124ZM99.2646 11.4704C99.4066 11.6834 99.6552 11.7899 99.9748 11.7899C100.614 11.7899 100.934 11.3283 100.934 10.4405V5.0783H101.644C102.567 5.0783 102.993 4.79421 102.993 4.19052C102.993 3.58683 102.532 3.30274 101.644 3.30274H98.3057C97.3824 3.30274 96.9563 3.58683 96.9563 4.19052C96.9563 4.79421 97.418 5.0783 98.3057 5.0783H99.016V10.4405C99.016 10.9022 99.087 11.2573 99.2646 11.4704ZM104.449 11.7899C105.088 11.7899 105.408 11.3283 105.408 10.4405V6.56979L108.853 11.1507C109.208 11.6124 109.563 11.861 109.953 11.861C110.238 11.861 110.486 11.7544 110.628 11.5769C110.77 11.3993 110.841 11.0797 110.841 10.6891V4.58115C110.841 3.65785 110.522 3.23172 109.882 3.23172C109.243 3.23172 108.924 3.69336 108.924 4.58115V8.4874L105.408 3.83541C105.266 3.65785 105.124 3.4803 104.946 3.37376C104.769 3.26723 104.591 3.23172 104.414 3.23172C103.81 3.23172 103.526 3.65785 103.526 4.51012V10.476C103.526 10.9377 103.597 11.2928 103.774 11.5059C103.917 11.6834 104.13 11.7899 104.449 11.7899ZM112.368 10.4405C112.368 10.9022 112.439 11.2573 112.617 11.4704C112.759 11.6834 113.007 11.7899 113.327 11.7899C113.966 11.7899 114.286 11.3283 114.286 10.4405V4.54563C114.286 3.62234 113.966 3.19621 113.327 3.19621C112.688 3.19621 112.368 3.65785 112.368 4.54563V10.4405ZM113.682 2.37944L114.57 1.38512C114.783 1.17206 114.854 0.923479 114.854 0.71041C114.854 0.532854 114.783 0.355294 114.641 0.213248C114.499 0.0712026 114.321 0.000183105 114.108 0.000183105C113.824 0.000183105 113.611 0.142225 113.434 0.390805L112.581 1.56268C112.439 1.74024 112.368 1.91779 112.368 2.09535C112.368 2.27291 112.439 2.45046 112.546 2.55699C112.652 2.69904 112.83 2.73455 113.007 2.73455C113.221 2.73455 113.434 2.62802 113.682 2.37944ZM55.1594 17.7559H55.9762C56.4378 17.7559 56.7575 17.8269 56.9705 18.04C57.1836 18.2175 57.2901 18.5016 57.2901 18.8567C57.2901 19.2118 57.1836 19.4959 56.9705 19.6735C56.7575 19.851 56.4378 19.9576 55.9762 19.9576H55.1594V17.7559ZM54.2006 24.503C54.8398 24.503 55.1594 24.0414 55.1594 23.1536V21.6976H56.4378C57.0415 21.6976 57.5742 21.5911 58.0003 21.3425C58.462 21.0939 58.7816 20.7743 58.9947 20.3482C59.2077 19.9221 59.3498 19.4249 59.3498 18.8212C59.3498 18.253 59.2432 17.7559 58.9947 17.3297C58.7461 16.9036 58.391 16.5485 57.9293 16.3354C57.4677 16.0868 56.8995 15.9803 56.2958 15.9803H54.5557C54.2006 15.9803 53.952 16.0158 53.739 16.1223C53.5614 16.1934 53.4194 16.3709 53.3484 16.5485C53.2773 16.726 53.2418 17.0101 53.2418 17.3297V23.1181C53.2418 23.5797 53.3128 23.9348 53.4904 24.1479C53.6324 24.3965 53.881 24.503 54.2006 24.503ZM62.6523 18.2885C63.0075 17.8269 63.5046 17.5783 64.1438 17.5783C64.5344 17.5783 64.8895 17.6848 65.2092 17.8979C65.5288 18.111 65.7418 18.4306 65.9194 18.8212C66.0969 19.2118 66.168 19.709 66.168 20.2417C66.168 20.7743 66.0969 21.236 65.9194 21.6266C65.7418 22.0172 65.4932 22.3368 65.2092 22.5499C64.8895 22.763 64.5344 22.8695 64.1438 22.8695C63.7532 22.8695 63.3981 22.763 63.0785 22.5499C62.7589 22.3368 62.5103 22.0527 62.3682 21.6266C62.1907 21.236 62.1197 20.7743 62.1197 20.2417C62.0842 19.3894 62.2617 18.7502 62.6523 18.2885ZM62.4393 24.3255C62.9364 24.5385 63.5046 24.6451 64.1083 24.6451C64.712 24.6451 65.2802 24.5385 65.7773 24.3255C66.2745 24.1124 66.7361 23.8283 67.0913 23.4022C67.4464 23.0115 67.7305 22.5499 67.9435 21.9817C68.1566 21.4135 68.2276 20.7743 68.2276 20.1706C68.2276 19.4959 68.1211 18.8922 67.9435 18.3596C67.766 17.8269 67.4819 17.3652 67.0913 16.9391C66.7361 16.5485 66.2745 16.2289 65.7773 16.0513C65.2447 15.8382 64.6765 15.7317 64.1083 15.7317C63.5046 15.7317 62.9364 15.8382 62.4393 16.0513C61.9421 16.2644 61.4805 16.5485 61.1253 16.9746C60.7347 17.4007 60.4506 17.8624 60.2731 18.3951C60.06 18.9632 59.9535 19.6025 59.989 20.2061C59.989 20.8454 60.0955 21.449 60.2731 22.0172C60.4861 22.5499 60.7347 23.0471 61.1253 23.4377C61.4805 23.7928 61.9066 24.1124 62.4393 24.3255ZM69.5415 24.432C69.8611 24.574 70.2518 24.6096 70.6779 24.6096C71.2106 24.6096 71.6722 24.503 72.0273 24.29C72.3824 24.0769 72.6665 23.7573 72.8796 23.3667C73.0572 22.9405 73.1637 22.4434 73.1637 21.8397V17.2587C73.1637 16.3709 72.8441 15.9093 72.2049 15.9093C71.5657 15.9093 71.2461 16.3709 71.2461 17.2587V21.236C71.2461 21.7686 71.2106 22.1593 71.104 22.4079C70.9975 22.6564 70.8555 22.7985 70.6069 22.7985C70.5003 22.7985 70.2873 22.7275 70.0387 22.5854C69.7901 22.4434 69.5771 22.3723 69.3995 22.3723C69.1509 22.3723 68.9378 22.4434 68.7603 22.6209C68.5827 22.7985 68.5117 23.0115 68.5117 23.2601C68.5117 23.5087 68.6182 23.7573 68.7958 23.9348C68.9378 24.1124 69.2219 24.29 69.5415 24.432ZM75.614 24.503C76.2532 24.503 76.5728 24.0414 76.5728 23.1536V17.2587C76.5728 16.3354 76.2532 15.9093 75.614 15.9093C74.9748 15.9093 74.6552 16.3709 74.6552 17.2587V23.1536C74.6552 23.6152 74.7262 23.9704 74.9038 24.1834C75.0458 24.3965 75.2944 24.503 75.614 24.503ZM80.6566 22.834C80.3725 22.834 79.9819 22.763 79.5202 22.6209C79.0586 22.4789 78.7745 22.4079 78.5969 22.4079C78.4194 22.4079 78.2418 22.4434 78.0998 22.5144C77.9577 22.5854 77.8512 22.6919 77.7802 22.7985C77.7092 22.9405 77.6736 23.0826 77.6736 23.2601C77.6736 23.5087 77.7802 23.7218 78.0288 23.8993C78.2773 24.1124 78.5969 24.2544 79.0231 24.3965C79.4492 24.5385 79.9109 24.574 80.408 24.574C81.0472 24.574 81.6509 24.4675 82.1481 24.2189C82.6452 23.9703 83.0359 23.6507 83.2844 23.2246C83.5685 22.7985 83.6751 22.3013 83.6751 21.7686C83.6751 21.3425 83.604 20.9874 83.4265 20.6678C83.2489 20.3482 82.9648 20.0641 82.6452 19.851C82.2546 19.5669 81.793 19.3894 81.3668 19.2473C81.1538 19.1763 80.9407 19.1053 80.7276 19.0343C80.5501 18.9988 80.408 18.9277 80.2305 18.8567C80.1239 18.7857 80.0174 18.7147 79.9464 18.6081C79.8754 18.5016 79.8398 18.3951 79.8398 18.253C79.8398 18.04 79.9109 17.8624 80.0884 17.7204C80.266 17.5783 80.479 17.5073 80.7631 17.5073C80.9407 17.5073 81.1893 17.5428 81.5444 17.6493C81.8995 17.7559 82.1126 17.7914 82.2546 17.7914C82.5387 17.7914 82.7518 17.7204 82.8938 17.5783C83.0359 17.4363 83.1424 17.1877 83.1069 16.9746C83.1069 16.6195 82.8938 16.3354 82.4677 16.0868C82.0415 15.8382 81.5089 15.7317 80.7986 15.7317C80.1949 15.7317 79.6623 15.8382 79.2006 16.0868C78.739 16.3354 78.3839 16.655 78.1353 17.0456C77.8867 17.4718 77.7447 17.8979 77.7447 18.3951C77.7447 19.0343 77.9222 19.5314 78.3128 19.851C78.668 20.2061 79.2717 20.5258 80.1239 20.7743C80.479 20.8809 80.7631 20.9874 80.9407 21.0584C81.1538 21.1294 81.2958 21.2715 81.4023 21.378C81.5089 21.5201 81.5799 21.6976 81.5799 21.9107C81.5799 22.1593 81.4734 22.3723 81.2958 22.5144C81.1538 22.763 80.9052 22.834 80.6566 22.834ZM78.9876 14.1692L80.266 15.1635C80.408 15.2701 80.5856 15.3411 80.7631 15.3411C80.9407 15.3411 81.1182 15.2701 81.2603 15.1635L82.5387 14.1692C82.6452 14.0982 82.7518 13.9917 82.8228 13.8851C82.8938 13.7786 82.8938 13.6721 82.8938 13.53C82.8938 13.3525 82.8583 13.2104 82.7518 13.1039C82.6452 12.9973 82.5032 12.9263 82.3611 12.9263C82.2191 12.9263 82.0415 12.9973 81.8285 13.1039L80.7986 13.7076L79.7688 13.1039C79.5557 12.9618 79.3782 12.9263 79.2361 12.9263C79.0941 12.9263 78.952 12.9973 78.8455 13.1039C78.739 13.2459 78.668 13.388 78.7035 13.5655C78.7035 13.7076 78.739 13.8141 78.7745 13.9206C78.739 13.9561 78.8455 14.0627 78.9876 14.1692ZM83.6395 16.9036C83.6395 17.4718 84.1012 17.7914 84.989 17.7914H85.6992V23.1536C85.6992 23.6152 85.7702 23.9348 85.9478 24.1834C86.1254 24.3965 86.3384 24.503 86.658 24.503C87.2972 24.503 87.6168 24.0414 87.6168 23.1536V17.7914H88.327C89.2148 17.7914 89.6765 17.5073 89.6765 16.9036C89.6765 16.2999 89.2148 16.0158 88.327 16.0158H84.989C84.1012 15.9803 83.6395 16.2999 83.6395 16.9036ZM85.06 14.1692L86.3384 15.1635C86.4805 15.2701 86.658 15.3411 86.8356 15.3411C87.0131 15.3411 87.1907 15.2701 87.3327 15.1635L88.6111 14.1692C88.8597 13.9917 88.9663 13.7786 88.9663 13.53C88.9663 13.3525 88.9307 13.2104 88.8242 13.1039C88.7177 12.9973 88.5756 12.9263 88.4336 12.9263C88.2915 12.9263 88.114 12.9973 87.9009 13.1039L86.8711 13.7076L85.8413 13.1039C85.6282 12.9618 85.4151 12.9263 85.3086 12.9263C85.1665 12.9263 85.0245 12.9973 84.918 13.1039C84.8114 13.2459 84.7404 13.388 84.7404 13.5655C84.7404 13.7076 84.7759 13.8141 84.8114 13.9206C84.8469 13.9561 84.9535 14.0627 85.06 14.1692ZM92.4109 18.2885C92.766 17.8269 93.2631 17.5783 93.9023 17.5783C94.293 17.5783 94.6481 17.6848 94.9677 17.8979C95.2873 18.111 95.5004 18.4306 95.6779 18.8212C95.8555 19.2118 95.9265 19.709 95.9265 20.2417C95.9265 20.7743 95.8555 21.236 95.6779 21.6266C95.5359 21.9817 95.2873 22.3013 94.9677 22.5499C94.6481 22.763 94.293 22.8695 93.9023 22.8695C93.5117 22.8695 93.1566 22.763 92.837 22.5499C92.5174 22.3368 92.2688 22.0172 92.1268 21.6266C91.9492 21.236 91.8782 20.7743 91.8782 20.2417C91.8782 19.3894 92.0557 18.7502 92.4109 18.2885ZM92.2333 24.3255C92.7305 24.5385 93.2986 24.6451 93.9023 24.6451C94.506 24.6451 95.0742 24.5385 95.5714 24.3255C96.0685 24.1124 96.5302 23.8283 96.8853 23.4022C97.2404 23.0115 97.5245 22.5499 97.7376 21.9817C97.9506 21.4135 98.0217 20.7743 98.0217 20.1706C98.0217 19.4959 97.9151 18.8922 97.7376 18.3596C97.56 17.8269 97.2759 17.3652 96.8853 16.9391C96.5302 16.5485 96.0685 16.2289 95.5714 16.0513C95.0387 15.8382 94.4705 15.7317 93.9023 15.7317C93.2986 15.7317 92.7305 15.8382 92.2333 16.0513C91.7361 16.2644 91.2745 16.5485 90.9194 16.9746C90.5643 17.3652 90.2802 17.8269 90.0671 18.3951C89.854 18.9632 89.7475 19.6025 89.783 20.2061C89.783 20.8454 89.8895 21.449 90.0671 22.0172C90.2447 22.5499 90.5288 23.0471 90.9194 23.4377C91.2745 23.7928 91.7361 24.1124 92.2333 24.3255ZM101.111 24.2544C101.182 24.361 101.289 24.432 101.395 24.4675C101.502 24.503 101.644 24.5385 101.786 24.5385C101.999 24.5385 102.212 24.4675 102.354 24.361C102.496 24.2544 102.638 24.0414 102.745 23.7573L105.23 17.4363C105.301 17.2232 105.372 17.0101 105.372 16.7615C105.372 16.4774 105.301 16.2644 105.124 16.1223C104.946 15.9803 104.733 15.8738 104.449 15.8738C104.201 15.8738 104.023 15.9448 103.881 16.0868C103.739 16.2289 103.632 16.4419 103.49 16.7615L101.857 21.449L100.081 16.6905C99.9748 16.4064 99.8682 16.1934 99.7262 16.0513C99.5842 15.9093 99.4066 15.8382 99.1935 15.8738C98.9094 15.8738 98.6609 15.9448 98.4833 16.1579C98.3057 16.3354 98.1992 16.584 98.1992 16.8326C98.1992 17.0101 98.2347 17.1877 98.3057 17.3652L100.863 23.7928C100.969 24.0059 101.04 24.1479 101.111 24.2544ZM106.864 24.503C107.503 24.503 107.823 24.0414 107.823 23.1536V19.2829L111.303 23.8638C111.658 24.3255 112.013 24.574 112.404 24.574C112.688 24.574 112.936 24.4675 113.078 24.29C113.221 24.0769 113.292 23.7928 113.292 23.4022V17.2942C113.292 16.3709 112.972 15.9448 112.333 15.9448C111.694 15.9448 111.374 16.4064 111.374 17.2942V21.236L107.858 16.584C107.716 16.4064 107.574 16.2289 107.397 16.1223C107.219 16.0158 107.042 15.9803 106.864 15.9803C106.26 15.9803 105.976 16.4064 105.976 17.2587V23.2246C105.976 23.6863 106.047 24.0414 106.225 24.2544C106.296 24.3965 106.544 24.503 106.864 24.503ZM117.73 17.9334L118.689 21.0584H116.665L117.73 17.9334ZM114.463 24.3965C114.605 24.4675 114.748 24.503 114.925 24.503C115.351 24.503 115.671 24.2189 115.848 23.6508L116.132 22.7985H119.222L119.471 23.5797C119.577 23.8993 119.684 24.1124 119.861 24.29C120.039 24.432 120.216 24.5385 120.465 24.5385C120.713 24.5385 120.962 24.4675 121.14 24.29C121.317 24.1124 121.424 23.8993 121.424 23.6508C121.424 23.5087 121.388 23.2956 121.282 23.0471L119.151 17.0101C119.009 16.655 118.831 16.3709 118.583 16.1934C118.334 16.0158 118.05 15.9093 117.73 15.9093C117.375 15.9093 117.091 16.0158 116.843 16.1934C116.594 16.4064 116.417 16.726 116.274 17.1167L114.108 23.0471C114.037 23.2246 114.002 23.4022 114.002 23.6152C114.002 23.7928 114.037 23.9348 114.108 24.0769C114.215 24.2189 114.321 24.3255 114.463 24.3965ZM54.3072 36.8965C54.4492 36.7189 54.5913 36.3993 54.6268 35.9732L55.266 31.0726L56.5089 36.2573C56.6154 36.6124 56.7219 36.861 56.8995 37.003C57.077 37.1451 57.3256 37.2161 57.6452 37.2161C57.8583 37.2161 58.0003 37.1806 58.1424 37.1451C58.2844 37.1096 58.391 37.003 58.462 36.8965C58.5685 36.7544 58.6751 36.4348 58.8171 36.0087C58.9592 35.5471 59.1367 34.9079 59.3498 34.0556C59.5628 33.2033 59.8114 32.209 60.06 31.1081L60.6637 36.1152C60.7702 36.861 61.0543 37.2516 61.6225 37.2516C61.9066 37.2516 62.1552 37.1451 62.3327 36.9675C62.5103 36.79 62.5813 36.5414 62.5813 36.2218C62.5813 36.0797 62.5813 35.9377 62.5458 35.7601L61.6225 29.9718C61.587 29.6877 61.516 29.4391 61.3739 29.1905C61.2674 29.013 61.1253 28.8354 60.9478 28.7289C60.7347 28.6223 60.4861 28.5868 60.2731 28.5868C59.5628 28.5868 59.1367 28.9775 58.9591 29.7232L57.7518 34.7658L56.4734 29.7587C56.2958 29.013 55.8342 28.6223 55.1239 28.6223C54.8398 28.6223 54.6268 28.6579 54.4492 28.7644C54.2717 28.8709 54.1296 29.013 54.0586 29.1905C53.952 29.4391 53.881 29.6877 53.81 29.9363L52.7802 35.6536C52.7447 35.8312 52.7092 36.0442 52.7092 36.2218C52.7092 36.5059 52.8157 36.7544 52.9577 36.9675C53.1353 37.1451 53.3839 37.2516 53.6324 37.2516C53.9165 37.1806 54.1296 37.074 54.3072 36.8965ZM64.4279 37.1806C65.0671 37.1806 65.3867 36.7189 65.3867 35.8311V29.9363C65.3867 29.013 65.0671 28.5868 64.4279 28.5868C63.7887 28.5868 63.4691 29.0485 63.4691 29.9363V35.8311C63.4691 36.2928 63.5401 36.6479 63.7177 36.861C63.8597 37.074 64.1083 37.1806 64.4279 37.1806ZM67.908 37.1806C68.5472 37.1806 68.8668 36.7189 68.8668 35.8311V31.9604L72.3114 36.5414C72.6665 37.003 73.0217 37.2516 73.4123 37.2516C73.6964 37.2516 73.945 37.1451 74.087 36.9675C74.229 36.7544 74.3001 36.4704 74.3001 36.0797V29.9718C74.3001 29.0485 73.9805 28.6223 73.3412 28.6223C72.702 28.6223 72.3824 29.084 72.3824 29.9718V33.9135L68.8668 29.2615C68.7248 29.084 68.5827 28.9064 68.4052 28.7999C68.2276 28.6934 68.0501 28.6578 67.8725 28.6578C67.2688 28.6578 66.9847 29.084 66.9847 29.9363V35.8311C66.9847 36.2928 67.0557 36.6479 67.2333 36.861C67.3043 37.074 67.5529 37.1806 67.908 37.1806ZM76.7859 37.1806C77.4251 37.1806 77.7447 36.7189 77.7447 35.8311V29.9363C77.7447 29.013 77.4251 28.5868 76.7859 28.5868C76.1466 28.5868 75.827 29.0485 75.827 29.9363V35.8311C75.827 36.2928 75.8981 36.6479 76.0756 36.861C76.2177 37.074 76.4307 37.1806 76.7859 37.1806ZM81.793 35.5115C81.5089 35.5115 81.1182 35.4405 80.6566 35.2985C80.1949 35.1564 79.9109 35.0854 79.7333 35.0854C79.5557 35.0854 79.3782 35.1209 79.2361 35.1919C79.0941 35.263 78.9876 35.3695 78.9165 35.5115C78.8455 35.6536 78.81 35.7956 78.81 35.9732C78.81 36.1863 78.9165 36.4348 79.1651 36.6124C79.4137 36.8255 79.7333 36.9675 80.1594 37.1096C80.5856 37.2516 81.0472 37.2871 81.5444 37.2871C82.1836 37.2871 82.7873 37.1806 83.2844 36.932C83.7816 36.6834 84.1722 36.3638 84.4208 35.9377C84.6694 35.5115 84.8114 35.0144 84.8114 34.4817C84.8114 34.0556 84.7404 33.7005 84.5628 33.3809C84.3853 33.0613 84.1012 32.7772 83.7816 32.5641C83.391 32.3155 82.9293 32.1025 82.5032 31.9604C82.2546 31.8894 82.0415 31.8184 81.864 31.7473C81.6509 31.6763 81.5089 31.6053 81.3668 31.5698C81.2248 31.4988 81.1538 31.4277 81.0827 31.3212C81.0117 31.2147 80.9762 31.1081 80.9762 30.9661C80.9762 30.753 81.0472 30.5755 81.2248 30.4334C81.4023 30.2914 81.6154 30.2204 81.8995 30.2204C82.077 30.2204 82.3256 30.2559 82.6807 30.3624C83.0359 30.4689 83.2844 30.5044 83.391 30.5044C83.6751 30.5044 83.8526 30.4334 84.0302 30.2914C84.1722 30.1493 84.2432 29.9363 84.2432 29.6877C84.2432 29.3326 84.0302 29.0485 83.604 28.7999C83.1779 28.5513 82.6452 28.4448 81.935 28.4448C81.3313 28.4448 80.7986 28.5513 80.337 28.7999C79.8753 29.0485 79.5202 29.3681 79.2717 29.7587C79.0231 30.1493 78.881 30.611 78.881 31.1081C78.881 31.7473 79.0586 32.2445 79.4492 32.5641C79.8043 32.9192 80.408 33.2033 81.2603 33.4519C81.6154 33.5584 81.8995 33.665 82.077 33.736C82.2901 33.8425 82.4322 33.949 82.5387 34.0556C82.6452 34.1976 82.7163 34.4107 82.7163 34.5882C82.7163 34.8368 82.6097 35.0499 82.4322 35.1919C82.2901 35.4405 82.0415 35.5471 81.793 35.5115ZM87.0842 36.8255C87.2262 37.0385 87.4748 37.1806 87.7944 37.1806C88.4336 37.1806 88.7532 36.7189 88.7532 35.8311V30.4689H89.4634C90.3512 30.4689 90.8128 30.1848 90.8128 29.5811C90.8128 28.9775 90.3512 28.6934 89.4634 28.6934H86.1254C85.2376 28.6934 84.7759 28.9775 84.7759 29.5811C84.7759 30.1493 85.2376 30.4689 86.1254 30.4689H86.8356V35.8311C86.8711 36.2928 86.9421 36.6124 87.0842 36.8255ZM94.8256 30.4689C95.7489 30.4689 96.1751 30.1848 96.1751 29.5811C96.1751 28.9775 95.7134 28.6934 94.8256 28.6934H92.6594C92.3043 28.6934 92.0557 28.7289 91.8427 28.8354C91.6651 28.9419 91.5231 29.084 91.452 29.2615C91.381 29.4391 91.3455 29.7232 91.3455 30.0428V35.9022C91.3455 36.2218 91.381 36.4703 91.452 36.6479C91.5231 36.8255 91.6651 36.932 91.8427 37.003C92.0202 37.074 92.2688 37.1096 92.6239 37.1096H94.8611C95.7844 37.1096 96.2106 36.8255 96.2106 36.2218C96.2106 35.6536 95.7489 35.334 94.8611 35.334H93.2631V33.7715H94.6126C95.5359 33.7715 95.962 33.4874 95.962 32.8837C95.962 32.28 95.5004 31.9959 94.6126 31.9959H93.2631V30.5044H94.8256V30.4689ZM101.005 32.209C100.792 32.3865 100.507 32.4931 100.117 32.4931H99.229V30.4689H100.152C100.401 30.4689 100.614 30.5044 100.792 30.5755C100.969 30.6465 101.111 30.753 101.182 30.9306C101.289 31.0726 101.324 31.2857 101.324 31.4633C101.324 31.7473 101.218 32.0314 101.005 32.209ZM103.313 31.2857C103.313 30.5044 103.029 29.8652 102.461 29.3681C101.892 28.9064 101.111 28.6578 100.081 28.6578H98.5898C98.2347 28.6578 97.9861 28.6934 97.7731 28.7999C97.5955 28.8709 97.4535 29.0485 97.3824 29.226C97.3114 29.4036 97.2759 29.6877 97.2759 30.0073V35.8311C97.2759 36.2928 97.3469 36.6479 97.5245 36.861C97.6665 37.074 97.9151 37.1806 98.2347 37.1806C98.8739 37.1806 99.1935 36.7189 99.1935 35.8311V33.7715L101.431 36.5769C101.608 36.8255 101.786 37.003 101.963 37.1096C102.105 37.2161 102.283 37.2871 102.461 37.2871C102.958 37.2871 103.384 36.8965 103.384 36.3993C103.384 36.0797 103.206 35.7246 102.816 35.2985L101.324 33.6294C101.963 33.5229 102.461 33.2743 102.816 32.8482C103.171 32.3866 103.313 31.8894 103.313 31.2857ZM106.899 35.5115C106.615 35.5115 106.225 35.4405 105.763 35.2985C105.301 35.1564 105.017 35.0854 104.84 35.0854C104.662 35.0854 104.485 35.1209 104.343 35.1919C104.201 35.263 104.094 35.3695 104.023 35.5115C103.952 35.6536 103.917 35.7956 103.917 35.9732C103.917 36.1863 104.023 36.4348 104.272 36.6124C104.52 36.8255 104.84 36.9675 105.266 37.1096C105.692 37.2516 106.154 37.2871 106.651 37.2871C107.29 37.2871 107.894 37.1806 108.391 36.932C108.853 36.7189 109.243 36.3638 109.527 35.9377C109.811 35.476 109.918 34.9789 109.918 34.4817C109.918 34.0556 109.847 33.7005 109.669 33.3809C109.492 33.0613 109.208 32.7772 108.888 32.5641C108.498 32.3155 108.036 32.1025 107.61 31.9604C107.361 31.8894 107.148 31.8184 106.971 31.7473C106.793 31.7118 106.651 31.6408 106.473 31.5698C106.367 31.4988 106.26 31.4277 106.189 31.3212C106.118 31.2147 106.083 31.1081 106.083 30.9661C106.083 30.753 106.154 30.5755 106.331 30.4334C106.509 30.2914 106.722 30.2204 107.006 30.2204C107.184 30.2204 107.432 30.2559 107.787 30.3624C108.142 30.4689 108.391 30.5044 108.498 30.5044C108.782 30.5044 108.959 30.4334 109.137 30.2914C109.279 30.1493 109.35 29.9363 109.35 29.6877C109.35 29.3326 109.137 29.0485 108.711 28.7999C108.284 28.5513 107.752 28.4448 107.042 28.4448C106.438 28.4448 105.905 28.5513 105.444 28.7999C105.017 29.013 104.627 29.3326 104.378 29.7587C104.13 30.1848 103.988 30.6465 103.988 31.1081C103.988 31.7473 104.165 32.2445 104.556 32.5641C104.911 32.9192 105.515 33.2033 106.367 33.4519C106.722 33.5584 107.006 33.665 107.184 33.736C107.397 33.8425 107.539 33.949 107.645 34.0556C107.752 34.1976 107.823 34.4107 107.823 34.5882C107.823 34.8368 107.752 35.0499 107.539 35.1919C107.397 35.4405 107.148 35.5471 106.899 35.5115ZM112.191 36.8255C112.368 37.0385 112.581 37.1806 112.901 37.1806C113.54 37.1806 113.86 36.7189 113.86 35.8311V30.4689H114.57C115.493 30.4689 115.919 30.1848 115.919 29.5811C115.919 28.9775 115.458 28.6934 114.57 28.6934H111.267C110.344 28.6934 109.918 28.9775 109.918 29.5811C109.918 30.1493 110.38 30.4689 111.267 30.4689H111.978V35.8311C111.978 36.2928 112.049 36.6124 112.191 36.8255ZM118.476 36.932C118.547 37.0385 118.654 37.1096 118.76 37.1451C118.867 37.1806 119.009 37.2161 119.151 37.2161C119.364 37.2161 119.577 37.1451 119.719 37.0385C119.861 36.932 120.003 36.7189 120.11 36.4348L122.596 30.1138C122.667 29.9007 122.738 29.6877 122.738 29.4391C122.738 29.155 122.667 28.9419 122.489 28.7999C122.311 28.6579 122.098 28.5513 121.814 28.5513C121.566 28.5513 121.388 28.6223 121.246 28.7644C121.104 28.9064 120.998 29.1195 120.855 29.4746L119.222 34.1621L117.446 29.4036C117.34 29.1195 117.233 28.9064 117.091 28.7644C116.949 28.6223 116.772 28.5513 116.559 28.5513C116.31 28.5513 116.026 28.6578 115.848 28.8354C115.671 29.013 115.564 29.2615 115.564 29.5101C115.564 29.6877 115.6 29.8652 115.671 30.0428L118.228 36.4703C118.299 36.6834 118.37 36.8255 118.476 36.932ZM126.218 30.611L127.176 33.736H125.152L126.218 30.611ZM122.951 37.074C123.093 37.1451 123.235 37.1806 123.412 37.1806C123.838 37.1806 124.158 36.8965 124.336 36.3283L124.62 35.476H127.709L127.958 36.2573C128.064 36.5769 128.171 36.79 128.348 36.9675C128.526 37.1096 128.739 37.2161 128.952 37.2161C129.201 37.2161 129.449 37.1451 129.627 36.9675C129.804 36.79 129.911 36.5769 129.911 36.3283C129.911 36.1863 129.875 35.9732 129.769 35.7246L127.638 29.6877C127.496 29.3326 127.319 29.0485 127.07 28.8709C126.821 28.6934 126.537 28.5868 126.218 28.5868C125.898 28.5868 125.578 28.6934 125.33 28.9064C125.081 29.1195 124.904 29.4391 124.726 29.8297L122.525 35.7601C122.453 35.9377 122.418 36.1152 122.418 36.3283C122.418 36.5059 122.453 36.6479 122.525 36.79C122.702 36.8965 122.844 37.003 122.951 37.074ZM55.266 49.6451C55.337 49.7516 55.4435 49.8226 55.5501 49.8581C55.6566 49.8936 55.7986 49.9292 55.9407 49.9292C56.1893 49.9292 56.3668 49.8581 56.5089 49.7516C56.6509 49.6096 56.793 49.432 56.8995 49.1479L59.3853 42.8624C59.4563 42.6493 59.5273 42.4363 59.5273 42.1877C59.5273 41.9036 59.4563 41.6905 59.2788 41.5485C59.1012 41.4064 58.8881 41.2999 58.604 41.2999C58.3555 41.2999 58.1779 41.3709 58.0359 41.513C57.8938 41.655 57.7518 41.8681 57.6452 42.1877L56.0117 46.8752L54.2361 42.1167C54.1296 41.8326 54.0231 41.6195 53.881 41.4775C53.739 41.3354 53.5614 41.2644 53.3484 41.2999C53.0998 41.2999 52.8157 41.4064 52.6381 41.584C52.4606 41.7616 52.354 42.0101 52.354 42.2587C52.354 42.4363 52.3895 42.6493 52.4606 42.8269L55.0174 49.2544C55.0884 49.3965 55.1594 49.5385 55.266 49.6451ZM61.0188 49.8581C61.658 49.8581 61.9776 49.3965 61.9776 48.5087V44.638L65.4222 49.2189C65.7773 49.6806 66.1324 49.9292 66.5231 49.9292C66.8427 49.9292 67.0557 49.8226 67.1978 49.6451C67.3398 49.4675 67.4109 49.1479 67.4109 48.7573V42.6493C67.4109 41.7615 67.0913 41.2999 66.452 41.2999C65.8129 41.2999 65.4932 41.7615 65.4932 42.6493V46.5911L61.9776 41.9391C61.8356 41.7616 61.6935 41.584 61.516 41.4775C61.3384 41.3709 61.1609 41.2999 60.9833 41.3354C60.3796 41.3354 60.0955 41.7616 60.0955 42.6138V48.5797C60.0955 49.0414 60.1665 49.3965 60.3441 49.6096C60.4506 49.7516 60.6992 49.8581 61.0188 49.8581ZM69.8967 49.8581C70.5359 49.8581 70.8555 49.3965 70.8555 48.5087V42.6138C70.8555 41.726 70.5359 41.2644 69.8967 41.2644C69.2574 41.2644 68.9378 41.726 68.9378 42.6138V48.5087C68.9378 48.9704 69.0089 49.3255 69.1864 49.5385C69.3285 49.7516 69.577 49.8581 69.8967 49.8581ZM73.6964 49.5385C73.8384 49.7516 74.087 49.8581 74.4066 49.8581C75.0458 49.8581 75.3654 49.3965 75.3654 48.5087V43.1465H76.0756C76.9989 43.1465 77.4251 42.8624 77.4251 42.2587C77.4251 41.655 76.9634 41.3709 76.0756 41.3709H72.7376C71.8143 41.3709 71.3881 41.655 71.3881 42.2587C71.3881 42.8269 71.8498 43.1465 72.7376 43.1465H73.4478V48.5087C73.4833 48.9704 73.5543 49.29 73.6964 49.5385ZM81.6509 44.8865C81.4378 45.0641 81.1538 45.1706 80.7631 45.1706H79.8754V43.111H80.7631C81.0117 43.111 81.2248 43.1465 81.4023 43.253C81.5799 43.324 81.7219 43.4306 81.793 43.6081C81.8995 43.7502 81.935 43.9632 81.935 44.1408C81.9705 44.4604 81.864 44.709 81.6509 44.8865ZM83.9592 43.9988C83.9592 43.2175 83.6751 42.5783 83.1069 42.0812C82.5387 41.6195 81.7574 41.3709 80.7276 41.3709H79.2361C78.881 41.3709 78.6324 41.4064 78.4194 41.513C78.2418 41.584 78.0998 41.7616 78.0288 41.9391C77.9577 42.1167 77.9222 42.4008 77.9222 42.7204V48.5087C77.9222 48.9704 77.9932 49.3255 78.1708 49.5385C78.3128 49.7516 78.5614 49.8581 78.881 49.8581C79.5202 49.8581 79.8398 49.3965 79.8398 48.5087V46.449L82.077 49.2544C82.2901 49.503 82.4322 49.6806 82.6097 49.7871C82.7518 49.8936 82.9293 49.9647 83.1069 49.9647C83.604 49.9647 84.0302 49.574 84.0302 49.0769C84.0302 48.7573 83.8526 48.4022 83.462 47.976L81.9705 46.307C82.6097 46.2005 83.1069 45.9519 83.462 45.5257C83.8171 45.0996 83.9592 44.6025 83.9592 43.9988ZM87.9719 43.2885L88.9307 46.4135H86.9066L87.9719 43.2885ZM84.7049 49.7871C84.8469 49.8581 84.989 49.8937 85.1665 49.8937C85.5927 49.8937 85.9123 49.6096 86.0898 49.0414L86.3739 48.1891H89.4634L89.712 48.9704C89.8185 49.29 89.9251 49.503 90.1026 49.6806C90.2802 49.8226 90.4932 49.9292 90.7063 49.9292C90.9549 49.9292 91.2035 49.8581 91.381 49.6806C91.5586 49.503 91.6651 49.29 91.6651 49.0414C91.6651 48.8993 91.6296 48.6863 91.5231 48.4377L89.3924 42.4007C89.2504 42.0456 89.0728 41.7616 88.8242 41.584C88.5756 41.4064 88.2915 41.2999 87.9719 41.2999C87.6168 41.2999 87.3327 41.4064 87.0842 41.6195C86.8356 41.8326 86.658 42.1522 86.516 42.5428L84.3143 48.4732C84.2432 48.6152 84.2077 48.8283 84.2077 49.0414C84.2077 49.2189 84.2432 49.3965 84.3143 49.503C84.4563 49.574 84.5984 49.6806 84.7049 49.7871ZM97.5955 39.5598L98.8739 40.5542C99.016 40.6607 99.1935 40.7317 99.3711 40.7317C99.5486 40.7317 99.6907 40.6607 99.8682 40.5542L101.147 39.5598C101.253 39.4888 101.36 39.3823 101.431 39.2758C101.466 39.1692 101.502 39.0627 101.502 38.9206C101.502 38.7786 101.466 38.601 101.324 38.459C101.218 38.3525 101.076 38.2814 100.934 38.2814C100.792 38.2814 100.614 38.3525 100.401 38.459L99.3711 39.0627L98.3413 38.459C98.1282 38.3169 97.9151 38.2814 97.7731 38.2814C97.631 38.2814 97.489 38.3525 97.3824 38.459C97.2759 38.5655 97.2049 38.7431 97.2404 38.9206C97.2404 39.0627 97.2759 39.1692 97.3114 39.2758C97.3825 39.3468 97.489 39.4533 97.5955 39.5598ZM96.3526 43.253C95.9975 43.9277 95.82 44.709 95.82 45.5613C95.82 46.236 95.9265 46.8397 96.104 47.3723C96.2816 47.905 96.5657 48.4022 96.9563 48.7928C97.3114 49.1834 97.7731 49.503 98.2702 49.6806C98.7674 49.8937 99.3356 50.0002 99.9393 50.0002C100.436 50.0002 100.898 49.9292 101.289 49.7871C101.715 49.6451 101.999 49.4675 102.248 49.2544C102.461 49.0414 102.603 48.7928 102.603 48.5442C102.603 48.3311 102.532 48.1181 102.354 47.976C102.212 47.7985 102.034 47.7275 101.821 47.7275C101.715 47.7275 101.466 47.7985 101.076 47.9405C100.685 48.0826 100.33 48.1536 100.046 48.1536C99.6197 48.1536 99.2645 48.0471 98.9449 47.8695C98.6253 47.6564 98.3768 47.3368 98.1992 46.9817C98.0217 46.5911 97.9506 46.1294 97.9506 45.6323C97.9506 45.0996 98.0217 44.638 98.1992 44.2473C98.3768 43.8567 98.6254 43.5371 98.9094 43.324C99.229 43.111 99.5842 43.0044 99.9748 43.0044C100.259 43.0044 100.543 43.0755 100.934 43.182C101.289 43.2885 101.537 43.3596 101.679 43.3596C101.892 43.3596 102.105 43.253 102.248 43.0755C102.39 42.8979 102.496 42.6848 102.496 42.4718C102.496 42.2587 102.39 42.0456 102.176 41.8326C101.963 41.6195 101.679 41.4419 101.289 41.3354C100.863 41.1934 100.436 41.1579 99.9748 41.1579C99.1935 41.1579 98.5188 41.3354 97.8796 41.726C97.2049 42.0456 96.7077 42.5783 96.3526 43.253ZM107.042 44.8865C106.828 45.0641 106.544 45.1706 106.154 45.1706H105.266V43.111H106.154C106.402 43.111 106.615 43.1465 106.793 43.253C106.971 43.324 107.113 43.4306 107.184 43.6081C107.29 43.7502 107.326 43.9632 107.326 44.1408C107.361 44.4604 107.255 44.709 107.042 44.8865ZM109.35 43.9988C109.35 43.2175 109.066 42.5783 108.498 42.0812C107.929 41.6195 107.148 41.3709 106.118 41.3709H104.627C104.272 41.3709 104.023 41.4064 103.81 41.513C103.632 41.584 103.49 41.7616 103.419 41.9391C103.348 42.1167 103.313 42.4008 103.313 42.7204V48.5087C103.313 48.9704 103.384 49.3255 103.561 49.5385C103.703 49.7516 103.952 49.8581 104.307 49.8581C104.946 49.8581 105.266 49.3965 105.266 48.5087V46.449L107.503 49.2544C107.681 49.503 107.858 49.6806 108.036 49.7871C108.178 49.8936 108.355 49.9647 108.533 49.9647C109.03 49.9647 109.456 49.574 109.456 49.0769C109.456 48.7573 109.279 48.4022 108.888 47.976L107.361 46.307C108 46.2005 108.498 45.9519 108.853 45.5257C109.172 45.0996 109.35 44.6025 109.35 43.9988ZM14.3924 18.7147H8.24892C6.54438 18.7147 5.15944 17.3297 5.15944 15.6252C5.15944 13.9206 6.54438 12.5357 8.24892 12.5357H29.8753C36.6935 12.5357 42.2333 18.0755 42.2333 24.8937C42.2333 31.7118 36.6935 37.2516 29.8753 37.2516H27.5671C26.7859 37.2516 26.7859 38.0329 26.7859 38.0329V41.9036C26.7859 43.6081 25.4009 44.9931 23.6964 44.9931C21.9918 44.9931 20.6069 43.6081 20.6069 41.9036V38.0329C20.6069 38.0329 20.6069 37.2516 19.8256 37.2516H8.24892C6.54438 37.2516 5.15944 35.8667 5.15944 34.1621C5.15944 33.3809 5.44353 32.7062 5.90517 32.138L15.0671 19.8865C15.3512 19.5669 15.2447 18.7147 14.3924 18.7147ZM5.15944 49.6451H42.2688C44.8256 49.6451 46.8853 47.5499 46.9208 44.9931V7.91921C46.9208 5.36239 44.8611 3.30273 42.2688 3.26722H5.15944C2.60262 3.26722 0.542958 5.32688 0.507446 7.91921V45.0286C0.542958 47.5499 2.60262 49.6451 5.15944 49.6451ZM23.7319 23.3667C25.4364 23.3667 26.8214 24.7516 26.8214 26.4562C26.8214 28.1607 25.4364 29.5456 23.7319 29.5456C22.0273 29.5456 20.6424 28.1607 20.6424 26.4562C20.6424 24.7516 22.0273 23.3667 23.7319 23.3667ZM26.8214 31.1081H29.9109C33.32 31.1081 36.0898 28.3382 36.0898 24.9292C36.0898 21.5201 33.32 18.7502 29.9109 18.7502H24.087C23.8739 18.7502 23.6253 18.8567 23.4833 19.0343L15.3157 29.9363C15.1026 30.2204 15.1026 31.1436 16.0259 31.1436H26.8214V31.1081Z" fill="#283796"/>
<path d="M143.193 49.7889C141.784 49.7889 140.54 49.249 139.46 48.1692C138.427 47.0424 137.911 45.7748 137.911 44.3664C137.911 43.5213 137.981 42.7232 138.122 41.972C138.263 41.2208 138.498 40.4931 138.826 39.7889C139.202 39.0847 139.695 38.4509 140.305 37.8875C141.948 36.1974 143.779 34.6715 145.798 33.31C147.817 31.9016 149.812 30.587 151.784 29.3664C153.803 28.0988 155.634 26.8546 157.277 25.634C158.967 24.3664 160.305 23.0284 161.291 21.6199C162.324 20.1645 162.84 18.5917 162.84 16.9016C162.84 15.9626 162.629 15.0237 162.207 14.0847C161.831 13.0988 161.127 12.3007 160.094 11.6903C159.061 11.033 157.629 10.7044 155.798 10.7044C154.578 10.7044 153.498 10.8687 152.559 11.1974C151.667 11.526 150.916 12.019 150.305 12.6762C149.742 13.2866 149.319 14.0612 149.038 15.0002C148.756 15.9392 148.615 17.019 148.615 18.2396C148.615 19.1316 148.521 19.9767 148.333 20.7748C148.193 21.526 147.747 22.1363 146.995 22.6058C146.244 23.0753 144.977 23.31 143.193 23.31C141.455 23.31 140.211 23.0518 139.46 22.5354C138.709 21.972 138.263 21.2678 138.122 20.4227C137.981 19.5307 137.911 18.6387 137.911 17.7467C137.911 15.4931 138.31 13.31 139.108 11.1974C139.906 9.03774 141.08 7.13633 142.629 5.49314C144.178 3.803 146.033 2.46497 148.193 1.47906C150.399 0.493142 152.911 0.000183105 155.728 0.000183105C159.155 0.000183105 162.207 0.774832 164.883 2.32413C167.559 3.82648 169.671 5.91568 171.221 8.59173C172.817 11.2678 173.615 14.3429 173.615 17.8171C173.615 19.8828 173.286 21.7842 172.629 23.5213C171.972 25.2584 171.08 26.8546 169.953 28.31C168.873 29.7185 167.653 30.9861 166.291 32.1129C164.977 33.2396 163.639 34.2255 162.277 35.0706C160.916 35.9157 159.648 36.6669 158.474 37.3241C157.301 37.9345 156.315 38.4509 155.517 38.8734L154.531 39.0143H170.094C171.033 39.0143 171.901 39.1082 172.7 39.296C173.545 39.4838 174.202 39.9532 174.671 40.7044C175.188 41.4556 175.446 42.7232 175.446 44.5072C175.446 46.1504 175.188 47.3711 174.671 48.1692C174.155 48.9204 173.474 49.3664 172.629 49.5072C171.784 49.695 170.892 49.7889 169.953 49.7889H143.193Z" fill="#283796"/>
<path d="M195.95 50.0002C194.025 50.0002 192.663 49.6011 191.865 48.803C191.114 48.0049 190.738 46.6199 190.738 44.6481V5.91568C190.738 3.94385 191.114 2.58235 191.865 1.83117C192.663 1.03305 194.048 0.633986 196.02 0.633986C197.992 0.633986 199.353 1.03305 200.104 1.83117C200.903 2.62929 201.302 4.03774 201.302 6.05652V44.7185C201.302 46.6903 200.903 48.0753 200.104 48.8734C199.353 49.6246 197.968 50.0002 195.95 50.0002ZM187.076 19.7889C185.715 20.9626 184.494 21.526 183.414 21.4791C182.334 21.4321 181.184 20.7514 179.964 19.4368C178.649 18.0284 178.039 16.7373 178.133 15.5636C178.227 14.3429 179.048 13.0518 180.597 11.6903L191.09 2.39455C192.405 1.22084 193.602 0.680935 194.682 0.774834C195.809 0.868729 196.982 1.59643 198.203 2.95793C199.471 4.27249 200.057 5.51662 199.964 6.69033C199.87 7.86403 199.025 9.15511 197.428 10.5636L187.076 19.7889Z" fill="#283796"/>
<path d="M222.908 50.0002C220.983 50.0002 219.622 49.6011 218.824 48.803C218.072 48.0049 217.697 46.6199 217.697 44.6481V5.91568C217.697 3.94385 218.072 2.58235 218.824 1.83117C219.622 1.03305 221.007 0.633986 222.979 0.633986C224.95 0.633986 226.312 1.03305 227.063 1.83117C227.861 2.62929 228.26 4.03774 228.26 6.05652V44.7185C228.26 46.6903 227.861 48.0753 227.063 48.8734C226.312 49.6246 224.927 50.0002 222.908 50.0002ZM214.035 19.7889C212.673 20.9626 211.453 21.526 210.373 21.4791C209.293 21.4321 208.143 20.7514 206.922 19.4368C205.608 18.0284 204.997 16.7373 205.091 15.5636C205.185 14.3429 206.007 13.0518 207.556 11.6903L218.049 2.39455C219.364 1.22084 220.561 0.680935 221.641 0.774834C222.767 0.868729 223.941 1.59643 225.162 2.95793C226.429 4.27249 227.016 5.51662 226.922 6.69033C226.828 7.86403 225.983 9.15511 224.387 10.5636L214.035 19.7889Z" fill="#283796"/>
</svg>
