<svg width="45" height="52" viewBox="0 0 45 52" fill="none" xmlns="http://www.w3.org/2000/svg">
<path fill-rule="evenodd" clip-rule="evenodd" d="M8.09229e-06 1.30361V35.7712C-0.00128389 37.7027 0.152462 39.3927 0.22223 41.0051C0.669257 51.4288 10.4276 55.7621 15.4199 47.2621C16.4509 45.5076 16.8992 43.3384 17.5865 41.7027C18.2248 40.1846 19.0129 38.8746 20.947 38.8771C23.1472 38.8797 23.8953 41.3461 24.2067 43.403C24.6679 46.4559 24.5542 50.6691 28.2687 51.005C31.1407 51.266 32.9883 49.62 34.9922 47.9327C35.3035 47.6704 35.6885 47.2208 35.9624 46.9353L37.341 45.4999C39.2208 43.465 41.1213 40.1691 42.1679 37.5451C44.8048 30.9392 45.6097 20.8049 43.071 13.8333C41.9728 10.8191 40.425 8.24933 38.496 6.38887L36.9611 4.91859C32.3035 0.819119 25.7842 0.00516794 19.5374 0L1.26226 6.35182e-06C1.02657 6.35182e-06 0.00259206 0.138242 8.09229e-06 1.30361ZM3.81545 4.67957C3.81545 5.1051 4.02693 23.0037 4.02563 32.3991C4.02563 35.5683 3.79845 40.9844 4.98191 44.4702C6.40826 48.6743 10.8501 49.0231 12.5103 44.5787C13.6692 41.4753 14.6808 37.1885 17.9883 35.5374C22.5555 33.2583 26.7519 36.8797 27.6485 41.6536C27.9017 42.9973 28.0723 45.4663 28.4806 46.5464C29.4315 49.0619 34.2402 43.2596 34.6717 42.7311C36.4069 40.6058 37.6898 38.3371 38.7389 35.4366C40.6859 30.0503 41.195 21.2816 39.3681 15.5658C37.6317 10.1343 33.3656 6.11497 27.4986 4.7067C22.6434 3.54133 5.09205 4.04127 4.66651 4.04127C4.24098 4.04127 3.81545 4.25403 3.81545 4.67957Z" fill="#5ECAC0"/>
</svg>
